<?xml version="1.0" encoding="UTF-8"?>
<svg id="_레이어_2" data-name="레이어 2" xmlns="http://www.w3.org/2000/svg" viewBox="0 0 1909.09 285.63">
  <defs>
    <style>
      .cls-1 {
        fill: #f72b21;
      }
    </style>
  </defs>
  <g id="_레이어_1-2" data-name="레이어 1">
    <g>
      <g>
        <path class="cls-1" d="m0,279.42V104.21h26.53v175.2H0Z"/>
        <path class="cls-1" d="m119.89,282.42c-12.85,0-24.11-2.25-33.79-6.76-9.68-4.51-17.23-10.93-22.65-19.27-5.42-8.34-8.22-18.27-8.38-29.78h28.03c.16,9.35,3.42,17.27,9.76,23.78,6.34,6.51,15.27,9.76,26.78,9.76,10.18,0,18.15-2.46,23.9-7.38,5.76-4.92,8.63-11.22,8.63-18.9,0-6.17-1.38-11.18-4.13-15.02-2.75-3.84-6.51-7.01-11.26-9.51-4.75-2.5-10.22-4.76-16.39-6.76-6.18-2-12.68-4.17-19.52-6.51-13.52-4.51-23.65-10.34-30.41-17.52-6.76-7.17-10.14-16.6-10.14-28.28-.17-9.84,2.13-18.43,6.88-25.78,4.76-7.34,11.43-13.05,20.02-17.15,8.59-4.09,18.65-6.13,30.16-6.13s21.31,2.09,29.91,6.26c8.59,4.17,15.31,9.97,20.15,17.39,4.84,7.43,7.34,16.06,7.51,25.9h-28.03c0-4.51-1.17-8.8-3.5-12.89-2.34-4.09-5.76-7.47-10.26-10.14-4.51-2.67-10.01-4-16.52-4-8.35-.16-15.23,1.92-20.65,6.26-5.42,4.34-8.13,10.35-8.13,18.02,0,6.84,2,12.1,6.01,15.77,4,3.67,9.51,6.72,16.52,9.14,7.01,2.42,15.02,5.22,24.03,8.38,8.67,2.84,16.43,6.26,23.28,10.26,6.84,4,12.3,9.26,16.39,15.77,4.09,6.51,6.13,14.77,6.13,24.78,0,8.85-2.25,17.06-6.76,24.65-4.51,7.59-11.26,13.77-20.27,18.52-9.01,4.75-20.11,7.13-33.29,7.13Z"/>
        <path class="cls-1" d="m296.53,279.42V125.74h-51.81v-21.53h129.9v21.53h-51.56v153.68h-26.53Z"/>
        <path class="cls-1" d="m399.39,279.42V104.21h26.53v75.09h84.85v-75.09h26.53v175.2h-26.53v-78.34h-84.85v78.34h-26.53Z"/>
        <path class="cls-1" d="m572.84,279.42V104.21h111.38v21.53h-84.85v54.56h77.34v21.02h-77.34v56.57h84.85v21.53h-111.38Z"/>
      </g>
      <g>
        <path class="cls-1" d="m878.82,203.95c17.5-19.16,33.79-37.11,43.45-47.97,35.45-39.98,61.85-68.49,76.03-68.49,3.92,0,6.64,2.11,6.64,6.34,0,10.26-43.45,64.87-75.12,104.39-11.16,14.03-22.63,31.08-32.43,46.46,49.18-57.32,120.68-140.29,144.67-140.29,4.07,0,5.58,1.81,5.58,4.53,0,7.54-11.46,22.02-14.93,26.25-31.07,37.86-95.94,107.41-95.94,137.88,0,5.73,3.92,7.54,8.15,7.54,13.58,0,33.19-16.9,52.5-34.09l41.03-36.51,1.81,2.41-41.03,36.51c-19.46,17.35-39.52,34.69-54.31,34.69-6.03,0-11.16-2.41-11.16-10.56,0-44.05,61.25-98.96,96.55-139.69,10.26-11.77,13.73-19.16,13.73-22.93,0-1.96-1.06-3.02-2.56-3.02-24.29,0-106.65,98.2-157.49,158.54-3.47,5.58-6.64,10.56-9.05,14.03h-10.86c24.14-29.87,42.84-58.83,69.39-91.11,34.09-41.33,68.49-87.8,68.49-95.04,0-2.41-1.51-3.32-3.62-3.32-12.67,0-38.92,28.96-73.62,67.28-32.28,35.6-60.34,71.5-104.69,122.19h-23.53c33.19-31.38,66.68-63.66,98.05-102.58,33.19-41.03,58.23-84.48,58.23-112.84,0-20.21-11.16-29.42-27.76-30.02.6,3.47.91,7.24.91,11.31,0,60.04-73.32,159-143.01,159-12.97,0-18.1-9.35-18.1-22.33,0-72.56,101.97-149.49,156.43-151-5.13-19.76-21.27-28.51-42.09-28.51-60.64,0-161.41,73.01-161.41,174.69,0,35.3,15.09,58.23,15.09,58.23l-2.41,1.81s-15.69-24.14-15.69-60.04C714.7,74.22,817.28,0,879.13,0c22.63,0,39.98,9.96,45.1,31.38,18.86.45,31.53,10.26,31.53,33.19,0,28.36-24.44,72.71-57.32,114.04-6.34,8.15-12.97,16.74-19.61,25.34Zm42.99-169.41c-52.95.91-154.02,76.33-154.02,147.99,0,11.16,4.53,19.31,15.08,19.31,45.56,0,139.99-100.77,139.99-155.98,0-4.07-.3-7.84-1.06-11.31Z"/>
        <path class="cls-1" d="m1164.07,221.33l-8.29,59.32h-109.33v-2.51c11.56-1.01,13.82-3.52,13.82-19.35V126.32c0-15.58-2.26-18.35-13.82-19.1v-2.51h103.55l8.29,59.32h-5.03c-9.3-52.28-12.07-54.29-26.14-54.29h-53.03v75.91h39.46c8.8,0,9.8-2.51,7.79-26.89h5.03l6.54,61.58h-5.03c-4.27-27.14-4.27-29.66-15.33-29.66h-38.45v84.95h58.81c14.08,0,17.09-2.01,26.14-54.29h5.03Z"/>
        <path class="cls-1" d="m1167.97,258.59l21.72-45.06h5.08c-3.7,9.71-9.47,24.03-9.47,35.13,0,24.03,21.72,30.04,37.9,30.04,32.35,0,56.15-19.64,56.15-45.99,0-18.49-16.87-24.26-39.05-31.2l-9.94-3.24c-15.02-4.62-33.51-14.33-33.51-36.51,0-29.58,24.26-56.15,60.78-56.15,23.11,0,38.36,10.17,45.99,18.72l-21.72,36.51h-5.08c3.47-7.16,9.24-18.95,9.24-26.34,0-15.94-16.41-21.49-30.73-21.49-26.34,0-47.14,16.18-47.14,36.51,0,18.03,18.95,24.5,33.28,28.89l7.63,2.08c16.87,5.08,42.29,12.71,42.29,40.44,0,36.28-31.43,64.71-71.18,64.71-28.19,0-45.06-13.87-52.23-27.04Z"/>
        <path class="cls-1" d="m1293.99,257.92l21.72-45.06h5.08c-3.7,9.71-9.48,24.03-9.48,35.13,0,24.03,21.72,30.04,37.9,30.04,32.35,0,56.15-19.64,56.15-45.99,0-18.49-16.87-24.26-39.05-31.2l-9.94-3.24c-15.02-4.62-33.51-14.33-33.51-36.51,0-29.58,24.27-56.15,60.78-56.15,23.11,0,38.36,10.17,45.99,18.72l-21.72,36.51h-5.08c3.47-7.16,9.24-18.95,9.24-26.34,0-15.94-16.41-21.49-30.73-21.49-26.34,0-47.14,16.18-47.14,36.51,0,18.03,18.95,24.5,33.28,28.89l7.62,2.08c16.87,5.08,42.29,12.71,42.29,40.44,0,36.28-31.43,64.71-71.17,64.71-28.19,0-45.06-13.87-52.23-27.04Z"/>
        <path class="cls-1" d="m1504.2,198.57c56.87-57.66,106.01-89.36,139.3-89.36,5.75,0,10.11.99,10.9,1.78-11.1,1.39-46.96,40.22-76.48,83.42-18.82,27.54-35.67,56.87-35.67,72.32,0,1.39,0,3.37.4,4.56-2.97-4.36-4.16-9.51-4.16-14.66,0-13.47,8.12-32.1,20.8-51.91-4.95.2-11.69.2-18.82.2-13.67,0-19.81-.2-22.99-.4l4.95-5.15c8.52.4,21.99.59,34.48.59h5.35c19.81-29.72,56.87-72.92,82.03-88.37-31.9.79-77.47,34.48-133.55,93.72-41.21,43.59-75.69,79.65-106.01,79.65-11.69,0-17.24-9.12-17.24-16.84,0-1.19.2-3.17.4-4.36,0,2.58,2.18,13.28,14.86,13.28,24.17,0,57.26-33.29,96.3-73.31-4.36-.2-8.52-.2-12.68-.2-23.18,0-41.81,2.58-59.84,8.92-28.14,9.91-43,26.75-43,48.55,0,3.17.4,6.54.99,10.11-2.97-4.36-4.95-14.07-4.95-21.6,0-18.82,16.05-36.46,43.2-44.58,16.05-4.76,33.88-7.13,57.86-7.13,7.13,0,15.06.2,23.58.79Zm93.13-96.5c25.76,0,40.82,1.39,49.34,3.37-5.35-.4-15.06-.59-31.7-.59-52.51,0-128.2,17.64-148.81,41.61-3.57,4.16-5.94,8.92-5.94,16.25-.99-2.97-1.98-9.11-1.98-12.09,0-25.36,72.52-48.55,139.1-48.55Zm-118.49,73.51c-9.12-2.18-15.06-6.54-15.06-13.08,0-1.98.79-4.95,1.59-6.54,1.19,7.53,7.33,16.45,13.47,19.62Zm135.93,60.24c-27.15,27.74-50.92,42.4-61.42,42.4-4.76,0-6.34-5.15-6.34-11.1,0-.99.2-2.77.2-3.96.4,2.77,2.77,5.55,6.74,5.55,12.28,0,38.64-13.28,59.84-32.89h.99Zm-37.25-31.9l2.38-3.96c16.84-.4,27.54-4.16,31.11-5.94-2.58,3.76-15.85,9.31-33.49,9.91Z"/>
        <path class="cls-1" d="m1805.79,266.57V118.78l-13.57-14.08h100.29v16.34l-71.63-13.82v66.86l71.63-.5v16.34l-71.63-13.32v101.54l88.22-13.82v16.34h-116.87l13.57-14.07Z"/>
        <path class="cls-1" d="m1713.8,283.6c-16.55,0-30.88-3.69-42.98-11.08-12.1-7.38-21.45-17.84-28.03-31.37-6.59-13.52-9.88-29.63-9.88-48.32s3.42-34.79,10.28-48.32c6.85-13.52,16.37-23.98,28.57-31.37,12.19-7.38,26.3-11.08,42.31-11.08,17.97,0,32.52,3.56,43.65,10.68,11.12,7.12,19.53,17.98,25.23,32.57l-12.28,6.41c-4.09-12.28-10.86-21.58-20.29-27.9-9.44-6.32-21.54-9.48-36.31-9.48-13.35,0-25.05,3.16-35.1,9.48-10.06,6.32-17.93,15.35-23.63,27.1-5.7,11.75-8.54,25.72-8.54,41.91s2.67,30.17,8.01,41.91c5.34,11.75,13.03,20.78,23.09,27.1,10.05,6.32,22.2,9.48,36.44,9.48,9.79,0,18.29-1.56,25.49-4.67,7.21-3.11,13.17-7.21,17.89-12.28,4.71-5.07,8.23-10.85,10.54-17.35,2.31-6.5,3.47-13.12,3.47-19.89v-9.88h-59.8v-12.55h72.34v86.23h-10.95l-.53-38.17,2.4.53c-4.27,12.46-11.61,22.29-22.02,29.5-10.41,7.21-23.54,10.81-39.38,10.81Z"/>
      </g>
    </g>
  </g>
</svg>