<?xml version="1.0" encoding="UTF-8"?>
<svg id="_레이어_2" data-name="레이어 2" xmlns="http://www.w3.org/2000/svg" viewBox="0 0 145.6 44.05">
  <defs>
    <style>
      .cls-1 {
        fill: #fff;
      }

      .cls-2 {
        fill: #ff0b00;
      }
    </style>
  </defs>
  <g id="_레이어_1-2" data-name="레이어 1">
    <g>
      <rect class="cls-2" x="0" y="0" width="145.6" height="44.05" rx="22.02" ry="22.02"/>
      <g>
        <path class="cls-1" d="m20.86,30.63c-.67-.65-1.27-1.41-1.81-2.28s-.96-1.84-1.28-2.9c-.32-1.06-.48-2.21-.48-3.43s.16-2.37.48-3.43c.32-1.06.74-2.03,1.28-2.9s1.14-1.63,1.81-2.28h1.91v.18c-1.08,1.12-1.95,2.39-2.6,3.83-.65,1.44-.98,2.97-.98,4.59s.33,3.15.98,4.59c.65,1.44,1.53,2.72,2.62,3.83v.18h-1.93Z"/>
        <path class="cls-1" d="m29.18,28.23c-1.25,0-2.32-.27-3.23-.82-.91-.55-1.61-1.31-2.1-2.29-.49-.98-.74-2.11-.74-3.39s.25-2.43.74-3.41c.49-.98,1.19-1.74,2.1-2.29.91-.55,1.98-.83,3.23-.83,1.48,0,2.68.36,3.62,1.08.94.72,1.53,1.73,1.78,3.02h-2.12c-.17-.73-.53-1.31-1.08-1.75s-1.29-.65-2.21-.65c-1.26,0-2.26.43-2.99,1.29-.73.86-1.1,2.04-1.1,3.54s.37,2.66,1.1,3.51c.73.85,1.73,1.28,2.99,1.28.92,0,1.66-.2,2.21-.61.55-.41.91-.97,1.08-1.67h2.12c-.25,1.25-.85,2.23-1.78,2.93-.94.71-2.14,1.06-3.62,1.06Z"/>
        <path class="cls-1" d="m36.68,28.02v-12.6h1.91v11.09h5.72v1.51h-7.63Z"/>
        <path class="cls-1" d="m46.37,28.02v-12.6h1.91v12.6h-1.91Z"/>
        <path class="cls-1" d="m56.44,28.23c-1.25,0-2.32-.27-3.23-.82-.91-.55-1.61-1.31-2.1-2.29-.49-.98-.74-2.11-.74-3.39s.25-2.43.74-3.41c.49-.98,1.19-1.74,2.1-2.29.91-.55,1.98-.83,3.23-.83,1.48,0,2.68.36,3.62,1.08.94.72,1.53,1.73,1.78,3.02h-2.12c-.17-.73-.53-1.31-1.08-1.75s-1.29-.65-2.21-.65c-1.26,0-2.26.43-2.99,1.29-.73.86-1.1,2.04-1.1,3.54s.37,2.66,1.1,3.51c.73.85,1.73,1.28,2.99,1.28.92,0,1.66-.2,2.21-.61.55-.41.91-.97,1.08-1.67h2.12c-.25,1.25-.85,2.23-1.78,2.93-.94.71-2.14,1.06-3.62,1.06Z"/>
        <path class="cls-1" d="m63.95,28.02v-12.6h1.91v5.4l4.97-5.4h2.36l-4.66,5.02,4.77,7.58h-2.32l-3.82-6.12-1.3,1.4v4.72h-1.91Z"/>
        <path class="cls-1" d="m79.49,28.02v-12.6h1.91v5.4h6.1v-5.4h1.91v12.6h-1.91v-5.63h-6.1v5.63h-1.91Z"/>
        <path class="cls-1" d="m91.96,28.02v-12.6h8.01v1.55h-6.1v3.92h5.56v1.51h-5.56v4.07h6.1v1.55h-8.01Z"/>
        <path class="cls-1" d="m102.24,28.02v-12.6h4.34c1,0,1.81.17,2.46.5.64.34,1.12.79,1.43,1.36.31.57.47,1.2.47,1.9,0,.78-.21,1.49-.62,2.12s-1.06,1.09-1.93,1.37l2.68,5.35h-2.21l-2.45-5.08h-2.25v5.08h-1.91Zm1.91-6.52h2.32c.86,0,1.5-.21,1.9-.63.4-.42.6-.97.6-1.64s-.2-1.21-.59-1.61c-.4-.4-1.04-.6-1.93-.6h-2.3v4.48Z"/>
        <path class="cls-1" d="m113.18,28.02v-12.6h8.01v1.55h-6.1v3.92h5.56v1.51h-5.56v4.07h6.1v1.55h-8.01Z"/>
        <path class="cls-1" d="m122.81,30.63v-.18c1.08-1.12,1.95-2.39,2.61-3.83.66-1.44.99-2.97.99-4.59s-.33-3.15-.98-4.59-1.52-2.72-2.6-3.83v-.18h1.91c.66.65,1.26,1.41,1.8,2.28s.97,1.84,1.29,2.9c.32,1.06.48,2.21.48,3.43s-.16,2.37-.48,3.43c-.32,1.06-.75,2.03-1.29,2.9s-1.14,1.63-1.8,2.28h-1.93Z"/>
      </g>
    </g>
  </g>
</svg>