<?xml version="1.0" encoding="UTF-8"?>
<svg id="_레이어_2" data-name="레이어 2" xmlns="http://www.w3.org/2000/svg" viewBox="0 0 979.95 146.61">
  <defs>
    <style>
      .cls-1 {
        fill: #fff;
      }
    </style>
  </defs>
  <g id="_레이어_1-2" data-name="레이어 1">
    <g>
      <g>
        <path class="cls-1" d="m0,143.43V53.49h13.62v89.93H0Z"/>
        <path class="cls-1" d="m61.54,144.97c-6.6,0-12.38-1.16-17.34-3.47-4.97-2.31-8.85-5.61-11.63-9.89-2.78-4.28-4.22-9.38-4.3-15.29h14.39c.08,4.8,1.75,8.86,5.01,12.21,3.25,3.34,7.84,5.01,13.75,5.01,5.22,0,9.31-1.26,12.27-3.79,2.96-2.53,4.43-5.76,4.43-9.7,0-3.17-.71-5.74-2.12-7.71-1.41-1.97-3.34-3.6-5.78-4.88-2.44-1.28-5.25-2.44-8.42-3.47-3.17-1.03-6.51-2.14-10.02-3.34-6.94-2.31-12.14-5.31-15.61-8.99-3.47-3.68-5.2-8.52-5.2-14.52-.09-5.05,1.09-9.46,3.53-13.23,2.44-3.77,5.87-6.7,10.28-8.8,4.41-2.1,9.57-3.15,15.48-3.15s10.94,1.07,15.35,3.21c4.41,2.14,7.86,5.12,10.34,8.93,2.48,3.81,3.77,8.24,3.85,13.3h-14.39c0-2.31-.6-4.52-1.8-6.62-1.2-2.1-2.96-3.83-5.27-5.2-2.31-1.37-5.14-2.06-8.48-2.06-4.28-.08-7.82.99-10.6,3.21-2.78,2.23-4.18,5.31-4.18,9.25,0,3.51,1.03,6.21,3.08,8.09,2.06,1.88,4.88,3.45,8.48,4.69,3.6,1.24,7.71,2.68,12.33,4.3,4.45,1.46,8.43,3.21,11.95,5.27,3.51,2.06,6.32,4.75,8.42,8.09,2.1,3.34,3.15,7.58,3.15,12.72,0,4.54-1.16,8.76-3.47,12.65-2.31,3.9-5.78,7.07-10.41,9.51-4.63,2.44-10.32,3.66-17.09,3.66Z"/>
        <path class="cls-1" d="m152.21,143.43v-78.88h-26.59v-11.05h66.68v11.05h-26.47v78.88h-13.62Z"/>
        <path class="cls-1" d="m205.01,143.43V53.49h13.62v38.54h43.55v-38.54h13.62v89.93h-13.62v-40.21h-43.55v40.21h-13.62Z"/>
        <path class="cls-1" d="m294.05,143.43V53.49h57.17v11.05h-43.55v28.01h39.7v10.79h-39.7v29.04h43.55v11.05h-57.17Z"/>
      </g>
      <g>
        <path class="cls-1" d="m451.11,104.69c8.98-9.83,17.35-19.05,22.3-24.62,18.2-20.52,31.75-35.15,39.03-35.15,2.01,0,3.41,1.08,3.41,3.25,0,5.27-22.3,33.3-38.56,53.58-5.73,7.2-11.62,15.95-16.65,23.85,25.24-29.42,61.95-72.01,74.26-72.01,2.09,0,2.87.93,2.87,2.32,0,3.87-5.89,11.3-7.67,13.47-15.95,19.44-49.25,55.13-49.25,70.77,0,2.94,2.01,3.87,4.18,3.87,6.97,0,17.03-8.67,26.95-17.5l21.06-18.74.93,1.24-21.06,18.74c-9.99,8.9-20.29,17.81-27.88,17.81-3.1,0-5.73-1.24-5.73-5.42,0-22.61,31.44-50.8,49.56-71.7,5.26-6.04,7.05-9.83,7.05-11.77,0-1.01-.54-1.55-1.32-1.55-12.47,0-54.75,50.41-80.84,81.38-1.78,2.87-3.41,5.42-4.65,7.2h-5.57c12.39-15.33,21.99-30.2,35.62-46.77,17.5-21.22,35.15-45.07,35.15-48.78,0-1.24-.77-1.7-1.86-1.7-6.51,0-19.98,14.87-37.79,34.54-16.57,18.27-30.97,36.7-53.74,62.72h-12.08c17.03-16.11,34.23-32.68,50.33-52.66,17.03-21.06,29.89-43.36,29.89-57.92,0-10.38-5.73-15.1-14.25-15.41.31,1.78.47,3.72.47,5.81,0,30.82-37.63,81.61-73.41,81.61-6.66,0-9.29-4.8-9.29-11.46,0-37.25,52.34-76.74,80.3-77.51-2.63-10.14-10.92-14.64-21.6-14.64-31.13,0-82.85,37.48-82.85,89.67,0,18.12,7.74,29.89,7.74,29.89l-1.24.93s-8.05-12.39-8.05-30.82c0-53.12,52.65-91.22,84.4-91.22,11.62,0,20.52,5.11,23.15,16.11,9.68.23,16.18,5.27,16.18,17.04,0,14.56-12.54,37.32-29.42,58.54-3.25,4.18-6.66,8.6-10.07,13.01Zm22.07-86.96c-27.18.46-79.06,39.18-79.06,75.96,0,5.73,2.32,9.91,7.74,9.91,23.39,0,71.86-51.73,71.86-80.07,0-2.09-.15-4.03-.54-5.81Z"/>
        <path class="cls-1" d="m597.52,113.61l-4.26,30.45h-56.12v-1.29c5.94-.52,7.1-1.81,7.1-9.93v-67.99c0-8-1.16-9.42-7.1-9.81v-1.29h53.15l4.26,30.45h-2.58c-4.77-26.84-6.19-27.87-13.42-27.87h-27.22v38.96h20.26c4.52,0,5.03-1.29,4-13.8h2.58l3.35,31.61h-2.58c-2.19-13.93-2.19-15.22-7.87-15.22h-19.74v43.61h30.19c7.23,0,8.77-1.03,13.42-27.87h2.58Z"/>
        <path class="cls-1" d="m599.53,132.74l11.15-23.13h2.61c-1.9,4.98-4.86,12.34-4.86,18.03,0,12.34,11.15,15.42,19.45,15.42,16.61,0,28.82-10.08,28.82-23.61,0-9.49-8.66-12.46-20.05-16.01l-5.1-1.66c-7.71-2.37-17.2-7.35-17.2-18.74,0-15.18,12.45-28.82,31.2-28.82,11.86,0,19.69,5.22,23.61,9.61l-11.15,18.74h-2.61c1.78-3.68,4.74-9.73,4.74-13.52,0-8.18-8.42-11.03-15.78-11.03-13.52,0-24.2,8.3-24.2,18.74,0,9.25,9.73,12.57,17.08,14.83l3.91,1.07c8.66,2.61,21.71,6.52,21.71,20.76,0,18.62-16.13,33.21-36.54,33.21-14.47,0-23.13-7.12-26.81-13.88Z"/>
        <path class="cls-1" d="m664.22,132.39l11.15-23.13h2.61c-1.9,4.98-4.86,12.34-4.86,18.03,0,12.34,11.15,15.42,19.45,15.42,16.61,0,28.82-10.08,28.82-23.61,0-9.49-8.66-12.46-20.05-16.01l-5.1-1.66c-7.71-2.37-17.2-7.35-17.2-18.74,0-15.18,12.46-28.82,31.2-28.82,11.86,0,19.69,5.22,23.61,9.61l-11.15,18.74h-2.61c1.78-3.68,4.74-9.73,4.74-13.52,0-8.18-8.42-11.03-15.78-11.03-13.52,0-24.2,8.3-24.2,18.74,0,9.25,9.73,12.57,17.08,14.83l3.91,1.07c8.66,2.61,21.71,6.52,21.71,20.76,0,18.62-16.13,33.21-36.53,33.21-14.47,0-23.13-7.12-26.81-13.88Z"/>
        <path class="cls-1" d="m772.12,101.93c29.19-29.6,54.41-45.87,71.5-45.87,2.95,0,5.19.51,5.59.92-5.7.71-24.11,20.65-39.26,42.82-9.66,14.14-18.31,29.19-18.31,37.12,0,.71,0,1.73.2,2.34-1.53-2.24-2.14-4.88-2.14-7.53,0-6.92,4.17-16.48,10.68-26.65-2.54.1-6,.1-9.66.1-7.02,0-10.17-.1-11.8-.2l2.54-2.64c4.37.2,11.29.31,17.7.31h2.75c10.17-15.26,29.19-37.43,42.11-45.36-16.38.41-39.77,17.7-68.55,48.11-21.16,22.38-38.85,40.89-54.41,40.89-6,0-8.85-4.68-8.85-8.65,0-.61.1-1.63.2-2.24,0,1.32,1.12,6.81,7.63,6.81,12.41,0,29.39-17.09,49.43-37.63-2.24-.1-4.37-.1-6.51-.1-11.9,0-21.46,1.32-30.72,4.58-14.44,5.09-22.07,13.73-22.07,24.92,0,1.63.2,3.36.51,5.19-1.53-2.24-2.54-7.22-2.54-11.09,0-9.66,8.24-18.71,22.17-22.88,8.24-2.44,17.39-3.66,29.7-3.66,3.66,0,7.73.1,12.1.41Zm47.8-49.53c13.22,0,20.95.71,25.33,1.73-2.75-.2-7.73-.31-16.27-.31-26.95,0-65.81,9.05-76.38,21.36-1.83,2.14-3.05,4.58-3.05,8.34-.51-1.53-1.02-4.68-1.02-6.2,0-13.02,37.23-24.92,71.4-24.92Zm-60.82,37.73c-4.68-1.12-7.73-3.36-7.73-6.71,0-1.02.41-2.54.81-3.36.61,3.87,3.76,8.44,6.92,10.07Zm69.77,30.92c-13.93,14.24-26.14,21.77-31.53,21.77-2.44,0-3.25-2.64-3.25-5.7,0-.51.1-1.42.1-2.03.2,1.42,1.42,2.85,3.46,2.85,6.31,0,19.83-6.81,30.72-16.88h.51Zm-19.12-16.38l1.22-2.03c8.65-.2,14.14-2.14,15.97-3.05-1.32,1.93-8.14,4.78-17.19,5.09Z"/>
        <path class="cls-1" d="m926.93,136.83V60.97l-6.97-7.23h51.48v8.39l-36.77-7.1v34.32l36.77-.26v8.39l-36.77-6.84v52.12l45.28-7.1v8.39h-59.99l6.97-7.22Z"/>
        <path class="cls-1" d="m879.71,145.57c-8.5,0-15.85-1.9-22.06-5.69-6.21-3.79-11.01-9.16-14.39-16.1-3.38-6.94-5.07-15.21-5.07-24.8s1.76-17.86,5.28-24.8c3.52-6.94,8.4-12.31,14.66-16.1,6.26-3.79,13.5-5.69,21.72-5.69,9.23,0,16.69,1.83,22.4,5.48,5.71,3.65,10.03,9.23,12.95,16.72l-6.3,3.29c-2.1-6.3-5.57-11.08-10.41-14.32-4.84-3.24-11.05-4.86-18.64-4.86-6.85,0-12.86,1.62-18.02,4.86-5.16,3.24-9.2,7.88-12.13,13.91-2.92,6.03-4.38,13.2-4.38,21.51s1.37,15.48,4.11,21.51c2.74,6.03,6.69,10.67,11.85,13.91,5.16,3.24,11.39,4.86,18.7,4.86,5.02,0,9.39-.8,13.09-2.4,3.7-1.6,6.76-3.7,9.18-6.3,2.42-2.6,4.23-5.57,5.41-8.91,1.19-3.33,1.78-6.74,1.78-10.21v-5.07h-30.7v-6.44h37.14v44.26h-5.62l-.27-19.6,1.23.27c-2.19,6.4-5.96,11.44-11.3,15.14-5.34,3.7-12.08,5.55-20.21,5.55Z"/>
      </g>
    </g>
  </g>
</svg>