<?xml version="1.0" encoding="UTF-8"?>
<svg id="_레이어_2" data-name="레이어 2" xmlns="http://www.w3.org/2000/svg" viewBox="0 0 61.62 13.97">
  <defs>
    <style>
      .cls-1 {
        fill: #fff;
      }
    </style>
  </defs>
  <g id="_레이어_1-2" data-name="레이어 1">
    <g>
      <path class="cls-1" d="m55.08,8.04c0-2.48-1.34-3.35-2.92-3.35-.94,0-2.01.44-2.48,1.34v-1.04h-3.59v8.65h3.59v-4.43c0-.87.3-1.27.84-1.34.64-.07,1.07.27,1.07,1.34v4.43h3.49v-5.6Zm-25.97,5.6h3.66v-3.76h2.52v-3.19h-2.52v-1.71h3.09V1.6h-5.03c-1.04,0-1.71.67-1.71,1.64v10.4Zm27.01-1.34c0,.77.57,1.34,1.44,1.34h4.06v-3.29h-1.95v-2.11h1.95v-3.25h-1.95v-2.15h-3.55v9.46Zm-16.77-3.05c0-.77.5-1.34,1.27-1.34s1.27.57,1.27,1.34-.5,1.34-1.27,1.34-1.27-.57-1.27-1.34h0Zm-3.45,0c0,2.78,1.91,4.73,4.73,4.73s4.73-1.95,4.73-4.73-1.91-4.73-4.73-4.73-4.73,1.95-4.73,4.73Z"/>
      <path class="cls-1" d="m25.52,9.11l2.92-4.13h-4.46l-1.04,1.81-1.07-1.81h-4.43l2.98,4.13-3.66,4.33V4.98h-3.96v8.45l-3.66-4.74c1.64-.77,2.62-2.47,2.62-4.22,0-2.88-1.84-4.48-5.23-4.48H0v13.64h3.96v-4.17h1.54l2.58,4.17h13.41l1.44-2.31,1.44,2.31h4.63l-3.49-4.53ZM6.37,6.18h-2.41v-2.9h2.41c.77,0,1.24.62,1.24,1.4,0,.87-.57,1.5-1.24,1.5Z"/>
    </g>
  </g>
</svg>