<?xml version="1.0" encoding="UTF-8"?>
<svg id="_레이어_2" data-name="레이어 2" xmlns="http://www.w3.org/2000/svg" viewBox="0 0 82.63 13.97">
  <defs>
    <style>
      .cls-1 {
        fill: #fff;
      }
    </style>
  </defs>
  <g id="_레이어_1-2" data-name="레이어 1">
    <g>
      <g>
        <path class="cls-1" d="m47.39,3.59h-1.24V1.39c0-.48-.44-.69-.98-.69-.48,0-.96.21-.96.69v7.27c0,.57.39.81.93.81s1.01-.24,1.01-.81v-3.44h1.24c.47,0,.64-.33.64-.82s-.17-.81-.64-.81"/>
        <path class="cls-1" d="m45.91,11.73h-4.82c-.32,0-.35-.05-.35-.35v-2.17c0-.49-.47-.72-1.01-.72s-.99.24-.99.73v2.85c0,1.07.37,1.2,1.36,1.2h5.81c.46,0,.64-.33.64-.76s-.17-.78-.64-.78"/>
        <path class="cls-1" d="m39.94,5.34c.43.96,1.28,1.63,2.16,2.02.64.29,1.07.07,1.29-.45.2-.43.12-.92-.36-1.13-1.12-.51-2.14-1.28-2.14-3.21v-.71c0-.48-.45-.71-1-.71s-1,.23-1,.71v.8c0,1.89-.76,2.77-2.08,3.44-.53.27-.58.76-.35,1.16.23.41.65.64,1.25.36.92-.43,1.88-1.26,2.22-2.28"/>
        <path class="cls-1" d="m57.34,11.78h-4.94c-.24,0-.31-.03-.31-.21v-.16c0-.21.07-.25.32-.25h4.15c.99,0,1.12-.21,1.12-1.05v-1.36c0-.79-.14-1.01-1.09-1.01h-5.86c-.43,0-.63.36-.63.72s.2.76.63.76h4.7c.27,0,.31.05.31.27v.1c0,.22-.05.26-.31.26h-4.28c-.85,0-1,.26-1,1.01v1.29c0,.89.23,1.13,1.23,1.13h5.97c.44,0,.64-.33.64-.76,0-.39-.2-.73-.64-.73m1.5-6.2h-3.93v-.76h2.21c.44,0,.63-.31.63-.77s-.19-.77-.63-.77h-4.62c-.31,0-.33-.04-.33-.32v-.39c0-.31.05-.33.37-.33h4.57c.44,0,.63-.32.63-.77s-.19-.79-.63-.79h-5.56c-1.03,0-1.34.2-1.34,1.13v1.84c0,.96.33,1.17,1.37,1.17h1.39s0,.75,0,.75h-4c-.41,0-.6.4-.6.76s.19.76.6.76h9.87c.41,0,.6-.39.6-.76s-.19-.76-.6-.76"/>
        <path class="cls-1" d="m74.01,2.2h4.61c.27,0,.31.05.31.27v.08c0,.23-.05.27-.31.27h-4.18c-.85,0-1,.25-1,1.01v1.31c0,.84.21,1.09,1.21,1.09h5.98c.44,0,.57-.34.57-.72s-.13-.69-.57-.69h-4.94c-.24,0-.31-.04-.31-.23v-.18c0-.21.07-.25.32-.25h4.09c.98,0,1.12-.21,1.12-1.05v-1.4c0-.78-.15-1.01-1.09-1.01h-5.81c-.43,0-.63.37-.63.73s.2.77.63.77"/>
        <path class="cls-1" d="m72.29,6.98c-.42,0-.6.4-.6.76s.18.76.6.76h9.74c.42,0,.6-.39.6-.76s-.18-.76-.6-.76h-9.74Z"/>
        <path class="cls-1" d="m79.45,9.29h-4.54c-1.33,0-1.53.19-1.53,1.36v1.27c0,1.12.13,1.36,1.53,1.36h4.54c1.32,0,1.56-.23,1.56-1.36v-1.27c0-1.17-.12-1.36-1.56-1.36Zm-.39,2.24c0,.29-.07.33-.44.33h-2.91c-.36,0-.4-.04-.4-.33v-.45c0-.27.03-.36.4-.36h2.91c.39,0,.44.06.44.36v.45Z"/>
        <path class="cls-1" d="m70.54,5.97h-1.79c.51-.86.69-2.1.69-3.36v-.81c0-.76-.15-1.11-1.05-1.11h-5.99c-.41,0-.6.36-.6.8s.19.82.6.82h4.81c.33,0,.36.05.36.32v.83c0,.9-.18,1.89-.54,2.5h-6.23c-.41,0-.6.4-.6.79s.19.79.6.79h3.85v4.9c0,.57.39.82.93.82s1.02-.24,1.02-.82v-4.9h3.94c.41,0,.6-.39.6-.79s-.19-.79-.6-.79"/>
      </g>
      <path class="cls-1" d="m26.2.35c-1.81,0-3.45.73-4.65,1.9-1.28-1.38-3.1-2.25-5.13-2.25s-3.86.87-5.13,2.25c-1.2-1.18-2.84-1.9-4.65-1.9C2.97.35,0,3.32,0,6.99s2.97,6.64,6.64,6.64c1.81,0,3.45-.73,4.65-1.9,1.28,1.38,3.1,2.25,5.13,2.25s3.86-.87,5.13-2.25c1.2,1.18,2.84,1.9,4.65,1.9,3.67,0,6.64-2.97,6.64-6.64S29.87.35,26.2.35Z"/>
    </g>
  </g>
</svg>