<?xml version="1.0" encoding="UTF-8"?>
<svg id="_레이어_2" data-name="레이어 2" xmlns="http://www.w3.org/2000/svg" viewBox="0 0 61.63 13.97">
  <defs>
    <style>
      .cls-1 {
        fill: #fff;
      }
    </style>
  </defs>
  <g id="_레이어_1-2" data-name="레이어 1">
    <g>
      <path class="cls-1" d="m5.38.22v10.23c0,2.44-1.12,3.52-2.67,3.52-.76,0-2.22,0-2.71,0v-2.79c.18,0,.88,0,1.07,0,.53,0,.82-.57.82-1.16V.22h3.49Z"/>
      <path class="cls-1" d="m25.4.22v10.23c0,2.44-1.12,3.52-2.67,3.52-.76,0-2.22,0-2.71,0v-2.79c.18,0,.88,0,1.08,0,.53,0,.81-.57.81-1.16V.22h3.49Z"/>
      <rect class="cls-1" x="6.76" y=".22" width="3.49" height="9.27"/>
      <polygon class="cls-1" points="15.13 3.9 15.15 3.9 17.15 .22 21.09 .22 18.66 4.31 21.19 9.49 17.12 9.49 15.15 4.99 15.13 4.99 15.13 9.49 11.64 9.49 11.64 .22 15.13 .22 15.13 3.9"/>
      <rect class="cls-1" x="26.77" y=".22" width="3.49" height="9.27"/>
      <path class="cls-1" d="m37.2,1.56c-.68-.27-1.06-.39-1.75-.39-.75,0-1.63.27-1.63,1.24,0,1.79,4.01,1.38,4.01,4.45,0,1.99-1.54,2.78-3.41,2.78-.66,0-1.3-.19-1.91-.39l.13-1.24c.45.19,1.26.45,1.94.45.76,0,1.83-.43,1.83-1.52,0-2.08-4.01-1.51-4.01-4.41,0-1.66,1.31-2.54,2.99-2.54.62,0,1.35.11,1.99.33l-.19,1.23Z"/>
      <path class="cls-1" d="m40.19,4.82c0-1.9,1.02-3.66,3.07-3.65,2.06-.01,3.07,1.75,3.07,3.65s-.92,3.65-3.07,3.65-3.07-1.79-3.07-3.65m-1.42,0c0,2.83,1.64,4.82,4.49,4.82s4.49-1.99,4.49-4.82-1.66-4.82-4.49-4.82-4.49,2.06-4.49,4.82Z"/>
      <polygon class="cls-1" points="49.25 .16 54.21 .16 54.21 1.34 50.59 1.34 50.59 4.06 54.05 4.06 54.05 5.24 50.59 5.24 50.59 9.49 49.25 9.49 49.25 .16"/>
      <polygon class="cls-1" points="57.67 1.34 55.05 1.34 55.05 .16 61.63 .16 61.63 1.34 59.01 1.34 59.01 9.49 57.67 9.49 57.67 1.34"/>
    </g>
  </g>
</svg>