<?xml version="1.0" encoding="UTF-8"?>
<svg id="_레이어_2" data-name="레이어 2" xmlns="http://www.w3.org/2000/svg" xmlns:xlink="http://www.w3.org/1999/xlink" viewBox="0 0 173.66 30.66">
  <defs>
    <style>
      .cls-1 {
        fill: #f72b21;
      }

      .cls-2 {
        fill: url(#_무제_그라디언트_149);
      }
    </style>
    <linearGradient id="_무제_그라디언트_149" data-name="무제 그라디언트 149" x1="86.83" y1="30.66" x2="86.83" y2="0" gradientUnits="userSpaceOnUse">
      <stop offset="0" stop-color="#e3483b"/>
      <stop offset=".32" stop-color="#e59a94"/>
      <stop offset=".56" stop-color="#e6d0cf"/>
      <stop offset=".67" stop-color="#e7e6e6"/>
      <stop offset="1" stop-color="#d0d0d0"/>
    </linearGradient>
  </defs>
  <g id="_레이어_1-2" data-name="레이어 1">
    <g>
      <rect class="cls-2" width="173.66" height="30.66"/>
      <g>
        <path class="cls-1" d="m39.82,20.38c-.41-.41-.78-.89-1.09-1.42-.32-.54-.57-1.13-.76-1.78-.19-.64-.28-1.33-.28-2.06s.09-1.41.28-2.06c.19-.64.44-1.24.76-1.78.32-.54.68-1.01,1.09-1.42h1.41v.13c-.66.7-1.18,1.48-1.57,2.36s-.58,1.8-.58,2.77.19,1.89.58,2.77c.39.88.91,1.66,1.57,2.36v.13h-1.41Z"/>
        <path class="cls-1" d="m42.33,18.79v-7.7h1.41v7.7h-1.41Z"/>
        <path class="cls-1" d="m45.23,18.79v-7.7h2.63c.9,0,1.64.16,2.23.48s1.02.77,1.3,1.34c.28.58.42,1.25.42,2.03s-.14,1.45-.42,2.03c-.28.58-.71,1.02-1.3,1.34-.58.32-1.33.48-2.23.48h-2.63Zm1.41-1.21h1.16c.65,0,1.15-.1,1.53-.31s.64-.51.8-.9c.16-.39.24-.87.24-1.42s-.08-1.02-.24-1.42c-.16-.4-.43-.7-.8-.91-.37-.21-.88-.32-1.53-.32h-1.16v5.29Z"/>
        <path class="cls-1" d="m53.05,18.79v-7.7h5.03v1.13h-3.62v2.11h3.29v1.1h-3.29v2.22h3.62v1.13h-5.03Z"/>
        <path class="cls-1" d="m59.41,18.79v-7.7h1.41l3.62,5.42v-5.42h1.41v7.7h-1.41l-3.62-5.41v5.41h-1.41Z"/>
        <path class="cls-1" d="m69.14,18.79v-6.57h-2.24v-1.13h5.91v1.13h-2.25v6.57h-1.41Z"/>
        <path class="cls-1" d="m73.84,18.79v-7.7h1.41v7.7h-1.41Z"/>
        <path class="cls-1" d="m78.54,18.79v-6.57h-2.24v-1.13h5.91v1.13h-2.25v6.57h-1.41Z"/>
        <path class="cls-1" d="m85.24,18.79v-2.74l-2.58-4.96h1.6l1.71,3.55,1.69-3.55h1.57l-2.57,4.96v2.74h-1.41Z"/>
        <path class="cls-1" d="m92.74,18.79v-7.7h2.63c.9,0,1.64.16,2.23.48s1.02.77,1.3,1.34c.28.58.42,1.25.42,2.03s-.14,1.45-.42,2.03c-.28.58-.71,1.02-1.3,1.34-.58.32-1.33.48-2.23.48h-2.63Zm1.41-1.21h1.16c.65,0,1.15-.1,1.53-.31s.64-.51.8-.9c.16-.39.24-.87.24-1.42s-.08-1.02-.24-1.42c-.16-.4-.43-.7-.8-.91-.37-.21-.88-.32-1.53-.32h-1.16v5.29Z"/>
        <path class="cls-1" d="m100.56,18.79v-7.7h5.03v1.13h-3.62v2.11h3.29v1.1h-3.29v2.22h3.62v1.13h-5.03Z"/>
        <path class="cls-1" d="m109.55,18.92c-.56,0-1.06-.1-1.5-.29-.43-.19-.77-.47-1.02-.84-.25-.36-.38-.8-.38-1.33h1.48c.01.36.14.66.39.91.25.25.58.37,1.02.37.37,0,.67-.09.89-.27.22-.18.33-.42.33-.72s-.1-.56-.29-.74-.45-.32-.78-.43-.67-.23-1.03-.35c-.59-.21-1.05-.47-1.36-.79-.31-.32-.47-.75-.47-1.29,0-.46.1-.85.32-1.17s.53-.58.92-.76.84-.27,1.34-.27.97.09,1.36.27c.39.18.7.44.92.77s.34.72.36,1.18h-1.51c0-.27-.11-.51-.31-.72s-.48-.31-.84-.31c-.31,0-.57.07-.78.23-.21.16-.31.39-.31.69,0,.26.08.46.24.61.16.15.38.28.66.38.28.1.6.21.96.33.38.13.73.29,1.04.46.31.18.57.41.76.7.19.29.29.66.29,1.12,0,.4-.1.78-.31,1.12-.21.35-.51.62-.91.83s-.9.31-1.48.31Z"/>
        <path class="cls-1" d="m113.49,18.79v-7.7h1.41v7.7h-1.41Z"/>
        <path class="cls-1" d="m119.76,18.92c-.73,0-1.36-.17-1.9-.5s-.96-.79-1.27-1.38c-.3-.59-.45-1.28-.45-2.06s.16-1.49.47-2.09c.31-.61.76-1.08,1.33-1.42.58-.34,1.26-.51,2.05-.51.9,0,1.65.22,2.24.65.59.43.98,1.03,1.16,1.79h-1.57c-.12-.36-.33-.64-.64-.84-.31-.2-.7-.3-1.19-.3-.77,0-1.36.24-1.78.73s-.63,1.16-.63,2.01.21,1.51.62,1.97c.41.47.98.7,1.69.7s1.22-.19,1.58-.57c.36-.38.57-.88.64-1.49h-1.95v-1.06h3.37v4.24h-1.3l-.11-1.01c-.25.37-.56.65-.94.85s-.85.3-1.43.3Z"/>
        <path class="cls-1" d="m124.89,18.79v-7.7h1.41l3.62,5.42v-5.42h1.41v7.7h-1.41l-3.62-5.41v5.41h-1.41Z"/>
        <path class="cls-1" d="m132.43,20.38v-.13c.66-.7,1.18-1.48,1.57-2.36.39-.88.58-1.8.58-2.77s-.19-1.89-.58-2.77-.91-1.66-1.57-2.36v-.13h1.41c.41.41.78.88,1.09,1.42s.57,1.13.76,1.78c.19.65.28,1.33.28,2.06s-.09,1.41-.28,2.06c-.19.65-.44,1.24-.76,1.78s-.68,1.01-1.09,1.42h-1.41Z"/>
      </g>
    </g>
  </g>
</svg>