<?xml version="1.0" encoding="UTF-8"?>
<svg id="_레이어_2" data-name="레이어 2" xmlns="http://www.w3.org/2000/svg" xmlns:xlink="http://www.w3.org/1999/xlink" viewBox="0 0 173.66 30.66">
  <defs>
    <style>
      .cls-1 {
        fill: #f72b21;
      }

      .cls-2 {
        fill: url(#_무제_그라디언트_149);
      }
    </style>
    <linearGradient id="_무제_그라디언트_149" data-name="무제 그라디언트 149" x1="86.83" y1="30.66" x2="86.83" y2="0" gradientUnits="userSpaceOnUse">
      <stop offset="0" stop-color="#e3483b"/>
      <stop offset=".32" stop-color="#e59a94"/>
      <stop offset=".56" stop-color="#e6d0cf"/>
      <stop offset=".67" stop-color="#e7e6e6"/>
      <stop offset="1" stop-color="#d0d0d0"/>
    </linearGradient>
  </defs>
  <g id="_레이어_1-2" data-name="레이어 1">
    <g>
      <rect class="cls-2" width="173.66" height="30.66"/>
      <g>
        <path class="cls-1" d="m35.95,20.38c-.41-.41-.78-.89-1.09-1.42-.32-.54-.57-1.13-.76-1.78-.19-.65-.28-1.33-.28-2.06s.09-1.41.28-2.06c.19-.65.44-1.24.76-1.78.32-.54.68-1.01,1.09-1.42h1.41v.13c-.66.7-1.18,1.48-1.57,2.36-.39.88-.58,1.8-.58,2.77s.19,1.89.58,2.77.91,1.66,1.57,2.36v.13h-1.41Z"/>
        <path class="cls-1" d="m38.46,18.79v-7.7h5.03v1.13h-3.62v2.11h3.29v1.1h-3.29v2.22h3.62v1.13h-5.03Z"/>
        <path class="cls-1" d="m44.82,18.79v-7.7h2.63c.9,0,1.64.16,2.23.48.58.32,1.02.77,1.3,1.34s.42,1.25.42,2.03-.14,1.45-.42,2.03-.71,1.02-1.3,1.34-1.33.48-2.23.48h-2.63Zm1.41-1.21h1.16c.65,0,1.15-.1,1.53-.31s.64-.51.8-.9c.16-.39.24-.87.24-1.42s-.08-1.02-.24-1.42c-.16-.4-.43-.7-.8-.91-.37-.21-.88-.32-1.53-.32h-1.16v5.29Z"/>
        <path class="cls-1" d="m52.64,18.79v-7.7h1.41v7.7h-1.41Z"/>
        <path class="cls-1" d="m57.33,18.79v-6.57h-2.24v-1.13h5.91v1.13h-2.25v6.57h-1.41Z"/>
        <path class="cls-1" d="m65.37,18.92c-.77,0-1.44-.17-2.02-.51s-1.03-.8-1.35-1.4-.49-1.29-.49-2.07.16-1.48.49-2.07.78-1.07,1.35-1.4c.58-.34,1.25-.51,2.02-.51s1.43.17,2.01.51c.58.34,1.03.81,1.35,1.4.32.6.48,1.29.48,2.07s-.16,1.48-.48,2.07c-.32.6-.77,1.06-1.35,1.4-.58.34-1.25.51-2.01.51Zm0-1.26c.73,0,1.32-.24,1.75-.73.44-.48.65-1.15.65-1.99s-.22-1.51-.65-1.99c-.44-.48-1.02-.73-1.75-.73s-1.32.24-1.76.73c-.44.48-.66,1.15-.66,1.99s.22,1.51.66,1.99c.44.48,1.03.73,1.76.73Z"/>
        <path class="cls-1" d="m70.47,18.79v-7.7h2.83c.62,0,1.12.1,1.52.31.4.21.7.49.9.85.2.36.3.75.3,1.18,0,.47-.12.9-.37,1.29s-.63.67-1.15.85l1.6,3.22h-1.62l-1.43-3.04h-1.17v3.04h-1.41Zm1.41-4.07h1.33c.47,0,.81-.11,1.03-.34.22-.23.33-.53.33-.9s-.11-.66-.32-.88c-.22-.22-.57-.33-1.05-.33h-1.32v2.45Z"/>
        <path class="cls-1" d="m77.32,18.79v-7.7h1.41v7.7h-1.41Z"/>
        <path class="cls-1" d="m79.73,18.79l2.82-7.7h1.58l2.82,7.7h-1.5l-.62-1.78h-3l-.63,1.78h-1.47Zm2.49-2.88h2.23l-1.12-3.2-1.11,3.2Z"/>
        <path class="cls-1" d="m87.93,18.79v-7.7h1.41v6.6h3.41v1.1h-4.82Z"/>
        <path class="cls-1" d="m96.61,18.79v-7.7h2.63c.9,0,1.64.16,2.23.48.58.32,1.02.77,1.3,1.34s.42,1.25.42,2.03-.14,1.45-.42,2.03-.71,1.02-1.3,1.34-1.33.48-2.23.48h-2.63Zm1.41-1.21h1.16c.65,0,1.15-.1,1.53-.31s.64-.51.8-.9c.16-.39.24-.87.24-1.42s-.08-1.02-.24-1.42c-.16-.4-.43-.7-.8-.91-.37-.21-.88-.32-1.53-.32h-1.16v5.29Z"/>
        <path class="cls-1" d="m104.43,18.79v-7.7h5.03v1.13h-3.62v2.11h3.29v1.1h-3.29v2.22h3.62v1.13h-5.03Z"/>
        <path class="cls-1" d="m113.42,18.92c-.56,0-1.06-.1-1.5-.29-.43-.19-.77-.47-1.02-.84-.25-.36-.38-.8-.38-1.33h1.48c.01.36.14.66.39.91.25.25.58.37,1.02.37.37,0,.67-.09.89-.27.22-.18.33-.42.33-.72s-.1-.56-.29-.74c-.19-.18-.45-.32-.78-.43-.32-.11-.67-.23-1.03-.35-.59-.21-1.05-.47-1.36-.79-.31-.32-.47-.75-.47-1.29,0-.45.1-.85.32-1.17.22-.33.53-.58.92-.76s.84-.27,1.34-.27.97.09,1.36.27c.39.18.7.44.92.77s.34.72.36,1.18h-1.51c0-.27-.11-.51-.31-.72s-.48-.31-.84-.31c-.31,0-.57.07-.78.23-.21.16-.31.39-.31.69,0,.26.08.46.24.61.16.15.38.28.66.38.28.1.6.21.96.33.38.13.73.29,1.04.46.31.18.57.41.76.7.19.29.29.66.29,1.12,0,.4-.1.78-.31,1.12-.21.35-.51.62-.91.83s-.9.31-1.48.31Z"/>
        <path class="cls-1" d="m117.36,18.79v-7.7h1.41v7.7h-1.41Z"/>
        <path class="cls-1" d="m123.63,18.92c-.73,0-1.36-.17-1.9-.49-.54-.33-.96-.79-1.27-1.38-.3-.59-.45-1.28-.45-2.06s.16-1.49.47-2.1.76-1.08,1.33-1.42c.58-.34,1.26-.51,2.05-.51.9,0,1.65.22,2.24.65.59.43.98,1.03,1.16,1.79h-1.57c-.12-.36-.33-.64-.64-.84-.31-.2-.7-.3-1.19-.3-.77,0-1.36.24-1.78.73-.42.49-.63,1.16-.63,2.01s.21,1.51.62,1.97c.41.47.98.7,1.69.7s1.22-.19,1.58-.57c.36-.38.57-.87.64-1.49h-1.95v-1.06h3.37v4.23h-1.3l-.11-1.01c-.25.37-.56.65-.94.85-.37.2-.85.3-1.43.3Z"/>
        <path class="cls-1" d="m128.77,18.79v-7.7h1.41l3.62,5.42v-5.42h1.41v7.7h-1.41l-3.62-5.41v5.41h-1.41Z"/>
        <path class="cls-1" d="m136.3,20.38v-.13c.66-.7,1.18-1.48,1.57-2.36s.58-1.8.58-2.77-.19-1.89-.58-2.77c-.39-.88-.91-1.66-1.57-2.36v-.13h1.41c.41.41.78.89,1.09,1.42s.57,1.13.76,1.78c.19.65.28,1.33.28,2.06s-.09,1.41-.28,2.06c-.19.65-.44,1.24-.76,1.78s-.68,1.01-1.09,1.42h-1.41Z"/>
      </g>
    </g>
  </g>
</svg>