<?xml version="1.0" encoding="UTF-8"?>
<svg id="_레이어_2" data-name="레이어 2" xmlns="http://www.w3.org/2000/svg" viewBox="0 0 140.2 128.48">
  <defs>
    <style>
      .cls-1 {
        fill: none;
      }

      .cls-2 {
        fill: #a0a1a2;
      }
    </style>
  </defs>
  <g>
    <g>
      <path class="cls-2" d="m83.73,19.86h-27.27c-11.46,0-20.78,9.32-20.78,20.78v27.27c0,11.46,9.32,20.78,20.78,20.78h27.27c11.46,0,20.78-9.32,20.78-20.78v-27.27c0-11.46-9.32-20.78-20.78-20.78Zm17.02,48.05c0,9.38-7.63,17.02-17.02,17.02h-27.27c-9.38,0-17.02-7.63-17.02-17.02v-27.27c0-9.38,7.63-17.02,17.02-17.02h27.27c9.38,0,17.02,7.63,17.02,17.02v27.27Z"/>
      <path class="cls-2" d="m70.1,37.23c-9.4,0-17.04,7.64-17.04,17.04s7.64,17.04,17.04,17.04,17.04-7.65,17.04-17.04-7.64-17.04-17.04-17.04Zm0,30.19c-7.25,0-13.15-5.9-13.15-13.15s5.9-13.15,13.15-13.15,13.15,5.9,13.15,13.15-5.9,13.15-13.15,13.15Z"/>
      <path class="cls-2" d="m93.71,34.55c0-2.14-1.74-3.88-3.88-3.88s-3.88,1.74-3.88,3.88,1.74,3.88,3.88,3.88,3.88-1.74,3.88-3.88Z"/>
    </g>
    <g>
      <path class="cls-2" d="m33.3,110.65c-1.3,0-2.37-.32-3.21-.95-.84-.63-1.33-1.48-1.45-2.52h2.21c.11.47.37.87.79,1.21.41.34.96.51,1.64.51s1.15-.14,1.45-.41c.3-.28.46-.59.46-.95,0-.52-.21-.88-.63-1.07s-1-.35-1.75-.51c-.58-.12-1.16-.29-1.73-.5-.57-.21-1.05-.5-1.43-.88-.38-.38-.57-.89-.57-1.54,0-.9.34-1.65,1.03-2.25.69-.6,1.66-.9,2.9-.9,1.15,0,2.07.28,2.78.83.71.55,1.13,1.33,1.25,2.34h-2.11c-.07-.44-.27-.79-.61-1.03-.34-.25-.79-.37-1.36-.37s-.98.11-1.28.34-.45.52-.45.88.21.64.63.85.98.39,1.67.56c.69.15,1.33.33,1.91.53.59.2,1.06.49,1.42.88s.54.95.54,1.7c.01.94-.35,1.72-1.09,2.34s-1.74.93-3.01.93Z"/>
      <path class="cls-2" d="m39.79,110.4v-10.26h1.95l.17,1.8c.32-.63.78-1.13,1.4-1.5.61-.37,1.32-.55,2.12-.55,1.24,0,2.22.39,2.93,1.16.71.77,1.07,1.92,1.07,3.46v5.9h-2.17v-5.67c0-1.99-.81-2.98-2.44-2.98-.81,0-1.49.29-2.02.87-.53.58-.8,1.41-.8,2.48v5.3h-2.19Z"/>
      <path class="cls-2" d="m55.48,110.65c-.87,0-1.59-.14-2.15-.43s-.99-.67-1.26-1.15-.41-1-.41-1.56c0-.99.39-1.78,1.16-2.36.77-.58,1.88-.87,3.31-.87h2.69v-.19c0-.8-.22-1.4-.65-1.8-.43-.4-1-.6-1.69-.6-.61,0-1.14.15-1.58.44-.45.3-.72.73-.82,1.31h-2.19c.07-.74.32-1.38.75-1.91.43-.53.99-.94,1.66-1.22.67-.28,1.4-.42,2.2-.42,1.43,0,2.54.38,3.33,1.13s1.18,1.78,1.18,3.07v6.31h-1.9l-.19-1.76c-.29.57-.71,1.04-1.26,1.43-.55.39-1.28.58-2.17.58Zm.43-1.78c.59,0,1.09-.14,1.5-.42.41-.28.72-.66.95-1.13s.37-.99.42-1.55h-2.44c-.87,0-1.49.15-1.85.46-.37.3-.55.68-.55,1.14s.18.84.53,1.11c.35.27.83.4,1.44.4Z"/>
      <path class="cls-2" d="m68.25,110.65c-.99,0-1.87-.23-2.63-.7-.76-.47-1.35-1.11-1.78-1.92s-.64-1.74-.64-2.77.21-1.96.64-2.76c.43-.81,1.02-1.44,1.79-1.9s1.65-.69,2.64-.69c.81,0,1.53.16,2.14.48.61.32,1.09.77,1.44,1.34v-6.21h2.19v14.9h-1.97l-.23-1.59c-.33.48-.78.91-1.37,1.28-.58.37-1.32.56-2.23.56Zm.39-1.9c.94,0,1.71-.32,2.31-.97s.9-1.48.9-2.5-.3-1.87-.9-2.51-1.37-.96-2.31-.96-1.71.32-2.32.96c-.61.64-.91,1.48-.91,2.51,0,.68.14,1.28.41,1.8.27.52.66.93,1.15,1.23.49.3,1.04.44,1.67.44Z"/>
      <path class="cls-2" d="m76.59,113.23v-2.07h11.36v2.07h-11.36Z"/>
      <path class="cls-2" d="m93.37,110.4l-3.85-10.26h2.3l2.85,8.17,2.86-8.17h2.28l-3.83,10.26h-2.61Z"/>
      <path class="cls-2" d="m105.77,110.65c-.99,0-1.87-.23-2.63-.7-.76-.47-1.35-1.11-1.78-1.92s-.64-1.74-.64-2.77.21-1.96.64-2.76c.43-.81,1.02-1.44,1.79-1.9s1.65-.69,2.64-.69c.81,0,1.53.16,2.14.48.61.32,1.09.77,1.44,1.34v-6.21h2.19v14.9h-1.97l-.23-1.59c-.33.48-.78.91-1.37,1.28-.58.37-1.32.56-2.23.56Zm.39-1.9c.94,0,1.71-.32,2.31-.97s.9-1.48.9-2.5-.3-1.87-.9-2.51-1.37-.96-2.31-.96-1.71.32-2.32.96c-.61.64-.91,1.48-.91,2.51,0,.68.14,1.28.41,1.8.27.52.66.93,1.15,1.23.49.3,1.04.44,1.67.44Z"/>
    </g>
  </g>
  <rect class="cls-1" width="140.2" height="128.48"/>
</svg>