<?xml version="1.0" encoding="UTF-8"?>
<svg id="_레이어_2" data-name="레이어 2" xmlns="http://www.w3.org/2000/svg" viewBox="0 0 358.07 246.59">
  <defs>
    <style>
      .cls-1 {
        fill: #fff;
        stroke: #fff;
        stroke-miterlimit: 10;
        stroke-width: 4px;
      }
    </style>
  </defs>
  <g id="_레이어_1-2" data-name="레이어 1">
    <g>
      <path class="cls-1" d="m211.68,176.46c14.97-16.39,28.9-31.74,37.16-41.03,30.32-34.19,52.9-58.58,65.03-58.58,3.35,0,5.68,1.81,5.68,5.42,0,8.78-37.16,55.49-64.26,89.29-9.55,12-19.36,26.58-27.74,39.74,42.07-49.03,103.23-120,123.75-120,3.48,0,4.78,1.55,4.78,3.87,0,6.45-9.81,18.84-12.78,22.45-26.58,32.39-82.07,91.87-82.07,117.94,0,4.9,3.35,6.45,6.97,6.45,11.61,0,28.39-14.45,44.9-29.16l35.1-31.23,1.55,2.06-35.1,31.23c-16.65,14.84-33.81,29.68-46.45,29.68-5.16,0-9.55-2.06-9.55-9.03,0-37.68,52.39-84.65,82.58-119.49,8.77-10.06,11.74-16.39,11.74-19.61,0-1.68-.9-2.58-2.19-2.58-20.78,0-91.23,84-134.71,135.62-2.97,4.78-5.68,9.03-7.74,12h-9.29c20.65-25.55,36.65-50.32,59.36-77.94,29.16-35.36,58.58-75.1,58.58-81.29,0-2.06-1.29-2.84-3.1-2.84-10.84,0-33.29,24.78-62.97,57.55-27.61,30.45-51.61,61.16-89.55,104.52h-20.13c28.39-26.84,57.03-54.45,83.87-87.75,28.39-35.1,49.81-72.26,49.81-96.52,0-17.29-9.55-25.16-23.74-25.68.52,2.97.78,6.19.78,9.68,0,51.36-62.71,136-122.33,136-11.1,0-15.48-8-15.48-19.1,0-62.07,87.23-127.88,133.81-129.17-4.39-16.9-18.19-24.39-36-24.39-51.87,0-138.07,62.45-138.07,149.42,0,30.19,12.9,49.81,12.9,49.81l-2.07,1.55s-13.42-20.65-13.42-51.36C71.28,65.49,159.03,2,211.93,2c19.36,0,34.19,8.52,38.58,26.84,16.13.39,26.97,8.77,26.97,28.39,0,24.26-20.9,62.2-49.03,97.55-5.42,6.97-11.1,14.32-16.78,21.68ZM248.45,31.55c-45.29.77-130.62,63.12-130.62,124.41,0,9.55,2.75,18.69,11.78,18.69,38.97,0,119.75-86.2,119.75-133.42,0-3.48-.26-6.71-.9-9.68Z"/>
      <g>
        <path class="cls-1" d="m24.49,241.56c-4.24-4.09-8.05-8.88-11.42-14.37-3.37-5.49-6.06-11.59-8.07-18.29-2.01-6.7-3.01-13.92-3.01-21.64s1-14.94,3.01-21.64c2.01-6.7,4.7-12.8,8.07-18.29,3.37-5.49,7.17-10.28,11.42-14.37h12.04v1.14c-6.82,7.04-12.29,15.11-16.42,24.2-4.13,9.09-6.19,18.74-6.19,28.97s2.06,19.88,6.19,28.97c4.13,9.09,9.64,17.15,16.53,24.2v1.14h-12.15Z"/>
        <path class="cls-1" d="m48.69,225.09v-79.52h14.2l26.92,52.94,26.81-52.94h14.2v79.52h-12.04v-58.73l-24.31,47.37h-9.31l-24.42-47.26v58.62h-12.04Z"/>
        <path class="cls-1" d="m142.86,241.56v-1.14c6.82-7.04,12.31-15.11,16.47-24.2,4.16-9.09,6.25-18.74,6.25-28.97s-2.06-19.88-6.19-28.97c-4.13-9.09-9.6-17.15-16.41-24.2v-1.14h12.04c4.16,4.09,7.95,8.88,11.36,14.37,3.41,5.49,6.11,11.59,8.12,18.29,2.01,6.7,3.01,13.92,3.01,21.64s-1,14.94-3.01,21.64c-2.01,6.7-4.71,12.8-8.12,18.29-3.41,5.49-7.2,10.28-11.36,14.37h-12.15Z"/>
      </g>
    </g>
  </g>
</svg>