<?xml version="1.0" encoding="UTF-8"?>
<svg id="_레이어_2" data-name="레이어 2" xmlns="http://www.w3.org/2000/svg" viewBox="0 0 140.2 128.48">
  <defs>
    <style>
      .cls-1 {
        fill: none;
      }

      .cls-2 {
        fill: #a0a1a2;
      }
    </style>
  </defs>
  <g>
    <g>
      <path class="cls-2" d="m25.95,104.24c-.28-.3-.63-.57-1.03-.79-.4-.22-.86-.44-1.37-.65l-1.08-.43c-.27-.1-.53-.22-.77-.35-.25-.13-.46-.28-.64-.43-.18-.16-.32-.35-.43-.56-.11-.21-.17-.45-.17-.72,0-.65.22-1.14.65-1.47.43-.33,1.06-.49,1.87-.49.58,0,1.1.05,1.55.15.44.1.85.22,1.21.35h0s0,0,0,0c.22-.53.36-1.07.43-1.6,0,0,0,0,0,0,0,0,0,0,0,0-.45-.16-.94-.29-1.47-.39-.55-.1-1.14-.16-1.76-.16-1.44,0-2.57.34-3.36,1-.8.66-1.2,1.59-1.2,2.75,0,.49.06.92.2,1.27.13.36.31.67.53.94.22.27.49.5.8.69.3.18.64.35,1.02.51l1.1.45,1.15.5c.33.16.61.33.82.51.21.18.38.41.49.66.11.26.17.56.17.92,0,.73-.26,1.31-.78,1.74-.52.43-1.31.64-2.36.64-.66,0-1.24-.06-1.7-.17-.48-.13-.93-.26-1.33-.41h0c-.03.09-.29.87-.29.87-.09.3-.15.6-.17.87h0c.08.03.79.26.79.26t.81.2l.89.12,1.09.04c1.64,0,2.93-.38,3.84-1.15.91-.76,1.37-1.82,1.37-3.14,0-.55-.07-1.03-.22-1.45-.15-.42-.37-.78-.65-1.07Z"/>
      <path class="cls-2" d="m37.31,109.09h-5.81v-4.73h4.51c.01-.08.06-.43.06-.43l.02-.44-.02-.44s-.05-.35-.06-.43h-4.51v-3.95h5.66c0-.08.04-.43.04-.43v-.45c.01-.29,0-.58-.04-.85,0,0,0,0,0,0h-7.63v13.89h7.79c0-.08.05-.43.05-.43v-.44c.01-.32,0-.6-.05-.85h0Z"/>
      <path class="cls-2" d="m49.81,98.75c-.48-.63-1.09-1.14-1.82-1.5-.73-.36-1.61-.54-2.61-.54s-1.87.18-2.6.54c-.74.36-1.35.86-1.83,1.5-.48.63-.84,1.4-1.08,2.27-.23.87-.35,1.84-.35,2.87s.12,2.01.35,2.88c.24.88.6,1.64,1.08,2.27.48.63,1.09,1.13,1.82,1.49.74.35,1.61.53,2.61.53s1.88-.18,2.61-.53c.73-.36,1.35-.86,1.82-1.49.48-.64.84-1.4,1.08-2.27.23-.88.34-1.84.34-2.88s-.12-1.99-.34-2.87c-.24-.88-.59-1.64-1.08-2.27Zm-.91,7.42c-.15.67-.39,1.24-.69,1.72-.3.47-.7.84-1.16,1.09-.46.25-1.02.37-1.66.37s-1.2-.12-1.66-.37c-.47-.25-.86-.61-1.16-1.09-.31-.47-.54-1.05-.69-1.72-.15-.66-.23-1.42-.23-2.28s.08-1.6.23-2.26c.16-.67.39-1.25.69-1.72.31-.47.7-.83,1.16-1.08.47-.25,1.03-.37,1.66-.37s1.2.13,1.66.37c.47.25.86.61,1.16,1.08.31.46.54,1.04.69,1.72.15.67.23,1.43.23,2.26s-.08,1.61-.23,2.28Z"/>
      <path class="cls-2" d="m62.99,96.88c-.33,0-.66.02-.98.06h0v7.88c0,.79-.05,1.47-.16,2.04-.1.57-.27,1.03-.5,1.38-.23.35-.53.61-.9.78-.36.17-.83.25-1.39.25s-1.02-.08-1.39-.25c-.38-.17-.68-.43-.91-.78-.23-.35-.4-.81-.5-1.38-.1-.56-.15-1.25-.15-2.04v-7.88h0c-.3-.04-.62-.06-.97-.06s-.7.02-1.01.06h0v8.23c0,.91.09,1.75.26,2.49.17.73.46,1.36.85,1.85.39.5.9.89,1.53,1.15.63.26,1.41.39,2.3.39s1.66-.13,2.3-.39c.63-.27,1.14-.65,1.53-1.15.39-.5.68-1.12.85-1.85.17-.73.26-1.57.26-2.49v-8.23h0c-.3-.04-.64-.06-1.01-.06Z"/>
      <path class="cls-2" d="m74.84,109.09h-5.44v-12.13c-.08,0-.49-.06-.49-.06l-.5-.02-.51.02s-.38.05-.46.06v13.89h7.4c.04-.28.06-.57.06-.88,0,0,0-.42,0-.43,0,0-.04-.37-.05-.45Z"/>
      <path class="cls-2" d="m86.62,96.97v-.03h-9.81v.03c-.09.38-.12.78-.12,1.18,0,.42.03.83.11,1.22v.03h3.45v11.43l.8.08s.71.02.71.02l.68-.03.73-.07v-.03s0-11.31,0-11.39h3.44v-.03c.09-.39.12-.8.12-1.22,0-.4-.04-.79-.12-1.18Z"/>
      <path class="cls-2" d="m97.25,108.4v-.03h-5.19v-3.57h4.01v-.03c.08-.4.12-.81.12-1.21s-.04-.79-.12-1.2v-.03h-4.01v-2.92h5.05v-.03c.08-.39.12-.8.12-1.22,0-.4-.04-.79-.12-1.18v-.03h-7.94v13.89h8.08v-.03c.08-.39.12-.8.12-1.22,0-.4-.03-.79-.11-1.18Z"/>
      <path class="cls-2" d="m109.37,110.42c-.05-.39-.13-.77-.24-1.15-.11-.38-.25-.75-.41-1.11l-.02-.03h-.03c-.45.16-.86.28-1.21.34-.35.06-.78.1-1.25.1-2.62,0-3.95-1.57-3.95-4.65,0-1.56.33-2.75.98-3.54.65-.79,1.6-1.19,2.82-1.19.47,0,.88.03,1.23.09.34.06.74.17,1.19.33h.04s.44-1.13.44-1.13c.13-.37.21-.75.23-1.14v-.03s-.02-.01-.02-.01c-.61-.24-1.17-.41-1.7-.48-.52-.08-1.1-.12-1.71-.12-1.04,0-1.99.19-2.8.55-.82.36-1.52.86-2.07,1.51-.56.64-1,1.41-1.29,2.29-.3.88-.45,1.84-.45,2.86s.14,1.98.42,2.85c.28.87.71,1.64,1.27,2.27.56.64,1.26,1.14,2.09,1.49.82.35,1.8.53,2.89.53.61,0,1.19-.04,1.73-.11.54-.08,1.14-.24,1.81-.48h.03s0-.04,0-.04Z"/>
      <path class="cls-2" d="m122.13,96.94c-.49-.08-.97-.11-1.44-.11s-.94.04-1.41.11h-.03v5.42h-4.57v-5.41h-.03c-.49-.08-.97-.12-1.43-.12s-.94.04-1.41.11h-.03v13.89h.03c.48.08.96.12,1.43.12.45,0,.92-.04,1.42-.12h.03v-5.98h4.57v5.97h.03c.48.08.96.12,1.44.12.45,0,.92-.04,1.41-.12h.03v-13.88h-.03Z"/>
    </g>
    <path class="cls-2" d="m121.76,50.9h-33.05V17.85c0-.24-.19-.43-.42-.43h-36.01c-.24,0-.43.19-.43.43v33.02H18.79c-.23,0-.43.19-.43.43v24.87c0,.24.2.43.43.43h10.73v10.73c0,.24.19.43.43.43h24.84c.24,0,.43-.19.43-.43v-33.05h7.36c.24,0,.55-.16.69-.35,0,0,6.9-9.44,6.95-9.5.02.03,6.87,9.44,6.87,9.44.14.19.45.41.69.41h7.55v33.05c0,.24.21.43.45.43h35.97c.24,0,.43-.19.43-.43v-13.68c0-.24-.2-.43-.43-.43h-10.72v-7.78s10.72,0,10.72,0c.24,0,.43-.19.43-.43v-13.71c0-.23-.2-.39-.43-.4Zm-69.91,33.48h-18.94v-10.73c0-.24-.19-.43-.43-.43h-10.74v-18.94h30.11v30.11Zm33.48-33.48s-6.31,0-6.31,0c-.01-.01-8.54-11.86-8.54-11.86-.14-.19-.36-.19-.51,0l-8.67,11.86s-5.79,0-6.07,0v-30.1h30.1v30.1Zm33.47,11.16h-10.73c-.24,0-.43.2-.43.43v13.68c0,.24.19.43.43.43,0,0,10.69,0,10.72,0v7.77h-30.1v-30.1h30.1v7.78Z"/>
  </g>
  <rect class="cls-1" width="140.2" height="128.48"/>
</svg>