<?xml version="1.0" encoding="UTF-8"?>
<svg id="_완전잠금" data-name="완전잠금" xmlns="http://www.w3.org/2000/svg" viewBox="0 0 5442.52 3061.42">
  <defs>
    <style>
      .cls-1 {
        fill: #fff;
        stroke-width: 0px;
      }
    </style>
  </defs>
  <g>
    <path class="cls-1" d="m747.88,2711.72c79.74-87.3,153.98-169.1,197.97-218.59,161.54-182.16,281.82-312.08,346.45-312.08,17.87,0,30.24,9.63,30.24,28.87,0,46.75-197.97,295.58-342.32,475.68-50.87,63.92-103.11,141.6-147.79,211.71,224.09-261.21,549.91-639.27,659.21-639.27,18.56,0,25.44,8.25,25.44,20.62,0,34.37-52.24,100.36-68.05,119.6-141.6,172.54-437.18,489.42-437.18,628.28,0,26.12,17.87,34.37,37.12,34.37,61.86,0,151.22-76.99,239.21-155.35l186.97-166.35,8.25,11-186.97,166.35c-88.67,79.05-180.09,158.1-247.46,158.1-27.49,0-50.87-10.99-50.87-48.11,0-200.72,279.08-450.93,439.93-636.53,46.74-53.61,62.55-87.3,62.55-104.48,0-8.94-4.81-13.75-11.68-13.75-110.67,0-485.99,447.49-717.63,722.44-15.81,25.44-30.25,48.12-41.25,63.93h-49.49c109.98-136.1,195.22-268.08,316.2-415.18,155.35-188.34,312.07-400.06,312.07-433.06,0-11-6.87-15.12-16.49-15.12-57.75,0-177.35,131.98-335.45,306.58-147.1,162.23-274.95,325.82-477.05,556.79h-107.23c151.22-142.98,303.83-290.08,446.8-467.43,151.22-186.97,265.33-384.93,265.33-514.16,0-92.11-50.87-134.04-126.48-136.79,2.75,15.81,4.13,32.99,4.13,51.55,0,273.58-334.08,724.51-651.65,724.51-59.11,0-82.48-42.62-82.48-101.73,0-330.64,464.67-681.2,712.83-688.08-23.37-90.05-96.92-129.92-191.78-129.92-276.34,0-735.51,332.7-735.51,796,0,160.85,68.74,265.33,68.74,265.33l-11,8.25S0,2755.71,0,2592.11c0-471.55,467.42-809.74,749.26-809.74,103.11,0,182.16,45.37,205.53,142.98,85.92,2.06,143.66,46.74,143.66,151.23,0,129.23-111.36,331.32-261.2,519.67-28.87,37.12-59.12,76.3-89.36,115.48Zm195.9-771.94c-241.27,4.12-701.82,347.82-701.82,674.33,0,50.87,20.62,87.99,68.73,87.99,207.59,0,637.9-459.18,637.9-710.76,0-18.56-1.37-35.74-4.81-51.55Z"/>
    <path class="cls-1" d="m2047.64,2790.91l-37.79,270.29h-498.2v-11.45c52.69-4.58,62.99-16.03,62.99-88.19v-603.57c0-71-10.31-83.6-62.99-87.04v-11.45h471.86l37.79,270.29h-22.9c-42.38-238.22-54.98-247.39-119.11-247.39h-241.66v345.88h179.81c40.09,0,44.67-11.45,35.5-122.55h22.91l29.78,280.59h-22.91c-19.47-123.69-19.47-135.14-69.87-135.14h-175.22v387.11h267.99c64.14,0,77.88-9.16,119.11-247.38h22.91Z"/>
    <path class="cls-1" d="m2065.42,2960.69l98.99-205.34h23.16c-16.85,44.23-43.17,109.51-43.17,160.06,0,109.51,98.99,136.89,172.69,136.89,147.43,0,255.88-89.51,255.88-209.55,0-84.24-76.87-110.57-177.96-142.16l-45.28-14.74c-68.44-21.06-152.68-65.29-152.68-166.38,0-134.79,110.56-255.88,276.94-255.88,105.3,0,174.8,46.33,209.55,85.29l-98.99,166.38h-23.17c15.8-32.64,42.12-86.35,42.12-120.05,0-72.66-74.76-97.93-140.05-97.93-120.04,0-214.81,73.71-214.81,166.38,0,82.14,86.35,111.62,151.63,131.63l34.75,9.48c76.87,23.17,192.7,57.91,192.7,184.28,0,165.33-143.21,294.85-324.33,294.85-128.47,0-205.34-63.18-237.98-123.2Z"/>
    <path class="cls-1" d="m2639.69,2957.65l98.99-205.34h23.17c-16.85,44.23-43.18,109.51-43.18,160.06,0,109.51,98.99,136.89,172.7,136.89,147.42,0,255.88-89.51,255.88-209.55,0-84.24-76.87-110.57-177.96-142.16l-45.28-14.74c-68.45-21.06-152.69-65.29-152.69-166.38,0-134.79,110.57-255.88,276.94-255.88,105.31,0,174.8,46.33,209.55,85.29l-98.98,166.38h-23.17c15.8-32.64,42.12-86.35,42.12-120.05,0-72.66-74.76-97.93-140.05-97.93-120.05,0-214.82,73.71-214.82,166.38,0,82.14,86.35,111.62,151.64,131.63l34.74,9.48c76.88,23.17,192.7,57.91,192.7,184.28,0,165.33-143.21,294.85-324.32,294.85-128.47,0-205.34-63.18-237.99-123.2Z"/>
    <path class="cls-1" d="m3597.53,2687.19c259.13-262.74,483.05-407.21,634.73-407.21,26.18,0,46.05,4.51,49.66,8.12-50.56,6.32-213.99,183.29-348.52,380.12-85.77,125.5-162.52,259.13-162.52,329.56,0,6.32,0,15.35,1.8,20.77-13.54-19.86-18.96-43.34-18.96-66.81,0-61.4,37.01-146.27,94.8-236.56-22.57.9-53.27.9-85.77.9-62.3,0-90.29-.9-104.74-1.81l22.57-23.47c38.82,1.81,100.22,2.71,157.11,2.71h24.37c90.29-135.43,259.13-332.27,373.8-402.69-145.36,3.61-353.03,157.1-608.55,427.07-187.8,198.64-344.9,362.96-483.05,362.96-53.27,0-78.56-41.54-78.56-76.75,0-5.42.9-14.44,1.81-19.86,0,11.74,9.93,60.49,67.72,60.49,110.15,0,260.93-151.69,438.8-334.07-19.86-.9-38.82-.9-57.79-.9-105.64,0-190.51,11.74-272.68,40.63-128.21,45.15-195.93,121.89-195.93,221.21,0,14.44,1.81,29.79,4.51,46.05-13.54-19.86-22.57-64.1-22.57-98.42,0-85.77,73.14-166.13,196.83-203.15,73.14-21.67,154.4-32.51,263.65-32.51,32.51,0,68.62.9,107.45,3.61Zm424.36-439.71c117.38,0,186,6.32,224.82,15.35-24.38-1.81-68.62-2.71-144.47-2.71-239.27,0-584.17,80.36-678.07,189.61-16.26,18.96-27.09,40.63-27.09,74.04-4.51-13.54-9.03-41.53-9.03-55.08,0-115.57,330.46-221.21,633.83-221.21Zm-539.93,334.97c-41.54-9.93-68.62-29.8-68.62-59.59,0-9.03,3.61-22.57,7.23-29.8,5.41,34.31,33.4,74.94,61.4,89.39Zm619.38,274.48c-123.7,126.4-232.04,193.22-279.9,193.22-21.67,0-28.89-23.47-28.89-50.56,0-4.51.9-12.64.9-18.06,1.8,12.64,12.64,25.28,30.7,25.28,55.98,0,176.06-60.49,272.67-149.88h4.51Zm-169.74-145.36l10.83-18.06c76.75-1.81,125.5-18.96,141.75-27.09-11.74,17.15-72.23,42.44-152.58,45.15Z"/>
    <path class="cls-1" d="m4971.81,2997.06v-673.43l-61.85-64.14h456.97v74.45l-326.41-62.99v304.65l326.41-2.29v74.45l-326.41-60.7v462.7l401.99-62.99v74.45h-532.56l61.85-64.14Z"/>
    <path class="cls-1" d="m4552.62,3074.66c-75.42,0-140.71-16.82-195.85-50.48-55.15-33.65-97.73-81.29-127.72-142.94-30.02-61.61-45.01-135.02-45.01-220.17s15.61-158.54,46.83-220.17c31.21-61.62,74.6-109.27,130.17-142.93,55.53-33.65,119.82-50.49,192.8-50.49,81.9,0,148.2,16.23,198.89,48.66,50.68,32.44,89,81.92,114.96,148.4l-55.96,29.19c-18.66-55.95-49.47-98.32-92.44-127.11-43-28.78-98.13-43.19-165.44-43.19-60.82,0-114.15,14.4-159.96,43.19-45.83,28.79-81.71,69.94-107.65,123.47-25.96,53.52-38.92,117.19-38.92,190.98s12.16,137.46,36.49,190.98c24.32,53.52,59.39,94.69,105.22,123.47,45.8,28.79,101.15,43.19,166.04,43.19,44.59,0,83.33-7.09,116.17-21.29,32.84-14.18,60-32.84,81.5-55.96,21.48-23.11,37.51-49.45,48.05-79.06,10.54-29.6,15.82-59.8,15.82-90.63v-45.01h-272.49v-57.17h329.66v392.91h-49.88l-2.43-173.95,10.95,2.44c-19.47,56.77-52.91,101.57-100.35,134.41-47.44,32.85-107.26,49.27-179.42,49.27Z"/>
  </g>
  <g>
    <path class="cls-1" d="m2324.7,2040.9v-798.35h120.89v798.35h-120.89Z"/>
    <path class="cls-1" d="m2870.99,2054.59c-58.56,0-109.88-10.26-153.97-30.79-44.11-20.53-78.52-49.79-103.22-87.82-24.72-38.01-37.46-83.26-38.21-135.72h127.74c.75,42.59,15.57,78.69,44.48,108.35,28.89,29.65,69.57,44.48,122.04,44.48,46.37,0,82.68-11.21,108.92-33.65,26.23-22.42,39.35-51.12,39.35-86.11,0-28.12-6.27-50.93-18.82-68.43-12.54-17.48-29.65-31.93-51.32-43.34-21.67-11.4-46.58-21.67-74.7-30.79-28.14-9.12-57.79-19-88.96-29.65-61.59-20.53-107.78-47.14-138.57-79.83-30.79-32.68-46.19-75.65-46.19-128.88-.76-44.85,9.7-84,31.36-117.47,21.67-33.45,52.07-59.48,91.24-78.13,39.15-18.62,84.97-27.94,137.43-27.94s97.12,9.52,136.29,28.51c39.15,19.01,69.75,45.44,91.81,79.26,22.05,33.84,33.45,73.19,34.22,118.04h-127.74c0-20.53-5.33-40.09-15.97-58.74-10.66-18.62-26.23-34.02-46.76-46.19-20.53-12.15-45.62-18.25-75.27-18.25-38.03-.75-69.4,8.75-94.09,28.51-24.72,19.78-37.07,47.15-37.07,82.12,0,31.18,9.12,55.14,27.37,71.85,18.25,16.73,43.34,30.62,75.28,41.63,31.93,11.03,68.43,23.77,109.49,38.21,39.53,12.94,74.88,28.51,106.07,46.76,31.17,18.25,56.06,42.2,74.7,71.85,18.62,29.65,27.94,67.29,27.94,112.91,0,40.31-10.26,77.75-30.79,112.34-20.53,34.61-51.32,62.73-92.38,84.4-41.06,21.67-91.64,32.5-151.69,32.5Z"/>
    <path class="cls-1" d="m3675.89,2040.9v-700.27h-236.08v-98.08h591.92v98.08h-234.94v700.27h-120.89Z"/>
    <path class="cls-1" d="m4144.63,2040.9v-798.35h120.89v342.15h386.63v-342.15h120.89v798.35h-120.89v-356.98h-386.63v356.98h-120.89Z"/>
    <path class="cls-1" d="m4934.99,2040.9v-798.35h507.53v98.08h-386.63v248.63h352.41v95.8h-352.41v257.75h386.63v98.08h-507.53Z"/>
  </g>
  <g>
    <path class="cls-1" d="m530.5,1633.52c-15.79-15.23-29.99-33.09-42.52-53.54-12.56-20.45-22.58-43.18-30.06-68.15-7.49-24.98-11.22-51.85-11.22-80.63s3.73-55.67,11.22-80.63c7.49-24.98,17.51-47.7,30.06-68.15,12.53-20.47,26.73-38.31,42.52-53.55h44.86v4.24c-25.39,26.24-45.78,56.29-61.15,90.16-15.39,33.86-23.08,69.84-23.08,107.94s7.68,74.07,23.08,107.94c15.37,33.86,35.91,63.91,61.6,90.16v4.23h-45.31Z"/>
    <path class="cls-1" d="m620.67,1572.15v-296.3h52.89l100.32,197.25,99.89-197.25h52.92v296.3h-44.86v-218.84l-90.59,176.51h-34.72l-90.99-176.09v218.41h-44.86Z"/>
    <path class="cls-1" d="m986.8,1572.15v-296.3h188.35v36.41h-143.49v92.27h130.78v35.56h-130.78v95.65h143.49v36.41h-188.35Z"/>
    <path class="cls-1" d="m1228.51,1572.15v-296.3h96.06c34.72,0,63.29,6.07,85.72,18.2,22.43,12.14,39.09,29.28,49.96,51.43,10.84,22.16,16.29,48.47,16.29,78.94s-5.45,56.37-16.29,78.52c-10.87,22.16-27.53,39.23-49.96,51.21-22.43,12-51,17.99-85.72,17.99h-96.06Zm44.86-38.1h49.51c26.81,0,48.04-4.36,63.71-13.12,15.67-8.74,26.96-21.3,33.87-37.67,6.91-16.36,10.37-35.98,10.37-58.84s-3.46-42.61-10.37-59.26c-6.91-16.65-18.2-29.42-33.87-38.31-15.67-8.89-36.9-13.33-63.71-13.33h-49.51v220.53Z"/>
    <path class="cls-1" d="m1526.06,1572.15v-296.3h44.86v296.3h-44.86Z"/>
    <path class="cls-1" d="m1611.97,1572.15l109.19-296.3h49.11l108.35,296.3h-47.4l-25.41-72.38h-121.06l-25.39,72.38h-47.4Zm85.49-107.94h95.67l-47.85-135.03-47.82,135.03Z"/>
    <path class="cls-1" d="m1893.9,1633.52v-4.23c25.39-26.25,45.86-56.3,61.37-90.16,15.52-33.87,23.28-69.84,23.28-107.94s-7.68-74.08-23.08-107.94c-15.37-33.87-35.76-63.92-61.15-90.16v-4.24h44.86c15.52,15.24,29.64,33.09,42.32,53.55,12.71,20.45,22.78,43.17,30.26,68.15,7.49,24.97,11.22,51.85,11.22,80.63s-3.73,55.65-11.22,80.63c-7.49,24.97-17.56,47.7-30.26,68.15-12.68,20.45-26.81,38.31-42.32,53.54h-45.28Z"/>
  </g>
</svg>