<?xml version="1.0" encoding="UTF-8"?>
<svg id="_레이어_2" data-name="레이어 2" xmlns="http://www.w3.org/2000/svg" viewBox="0 0 644.89 209">
  <defs>
    <style>
      .cls-1 {
        fill: #ff3427;
      }
    </style>
  </defs>
  <g id="_레이어_1-2" data-name="레이어 1">
    <g>
      <g>
        <path class="cls-1" d="m116.05,167.07c8.98-9.83,17.35-19.05,22.3-24.62,18.2-20.52,31.75-35.15,39.03-35.15,2.01,0,3.41,1.08,3.41,3.25,0,5.27-22.3,33.3-38.56,53.58-5.73,7.2-11.62,15.95-16.65,23.85,25.24-29.42,61.95-72.01,74.26-72.01,2.09,0,2.87.93,2.87,2.32,0,3.87-5.89,11.3-7.67,13.47-15.95,19.44-49.25,55.13-49.25,70.77,0,2.94,2.01,3.87,4.18,3.87,6.97,0,17.03-8.67,26.95-17.5l21.06-18.74.93,1.24-21.06,18.74c-9.99,8.9-20.29,17.81-27.88,17.81-3.1,0-5.73-1.24-5.73-5.42,0-22.61,31.44-50.8,49.56-71.7,5.26-6.04,7.05-9.83,7.05-11.77,0-1.01-.54-1.55-1.32-1.55-12.47,0-54.75,50.41-80.84,81.38-1.78,2.87-3.41,5.42-4.65,7.2h-5.57c12.39-15.33,21.99-30.2,35.62-46.77,17.5-21.22,35.15-45.07,35.15-48.78,0-1.24-.77-1.7-1.86-1.7-6.51,0-19.98,14.87-37.79,34.54-16.57,18.27-30.97,36.7-53.74,62.72h-12.08c17.03-16.11,34.23-32.68,50.33-52.66,17.03-21.06,29.89-43.36,29.89-57.92,0-10.38-5.73-15.1-14.25-15.41.31,1.78.47,3.72.47,5.81,0,30.82-37.63,81.61-73.41,81.61-6.66,0-9.29-4.8-9.29-11.46,0-37.25,52.34-76.74,80.3-77.51-2.63-10.14-10.92-14.64-21.6-14.64-31.13,0-82.85,37.48-82.85,89.67,0,18.12,7.74,29.89,7.74,29.89l-1.24.93s-8.05-12.39-8.05-30.82c0-53.12,52.65-91.22,84.4-91.22,11.62,0,20.52,5.11,23.15,16.11,9.68.23,16.18,5.27,16.18,17.04,0,14.56-12.54,37.32-29.42,58.54-3.25,4.18-6.66,8.6-10.07,13.01Zm22.07-86.96c-27.18.46-79.06,39.18-79.06,75.96,0,5.73,2.32,9.91,7.74,9.91,23.39,0,71.86-51.73,71.86-80.07,0-2.09-.15-4.03-.54-5.81Z"/>
        <path class="cls-1" d="m262.47,175.99l-4.26,30.45h-56.12v-1.29c5.94-.52,7.1-1.81,7.1-9.93v-67.99c0-8-1.16-9.42-7.1-9.81v-1.29h53.15l4.26,30.45h-2.58c-4.77-26.84-6.19-27.87-13.42-27.87h-27.22v38.96h20.26c4.52,0,5.03-1.29,4-13.8h2.58l3.35,31.61h-2.58c-2.19-13.93-2.19-15.22-7.87-15.22h-19.74v43.61h30.19c7.23,0,8.77-1.03,13.42-27.87h2.58Z"/>
        <path class="cls-1" d="m264.47,195.12l11.15-23.13h2.61c-1.9,4.98-4.86,12.34-4.86,18.03,0,12.34,11.15,15.42,19.45,15.42,16.61,0,28.82-10.08,28.82-23.61,0-9.49-8.66-12.46-20.05-16.01l-5.1-1.66c-7.71-2.37-17.2-7.35-17.2-18.74,0-15.18,12.45-28.82,31.2-28.82,11.86,0,19.69,5.22,23.61,9.61l-11.15,18.74h-2.61c1.78-3.68,4.74-9.73,4.74-13.52,0-8.18-8.42-11.03-15.78-11.03-13.52,0-24.2,8.3-24.2,18.74,0,9.25,9.73,12.57,17.08,14.83l3.91,1.07c8.66,2.61,21.71,6.52,21.71,20.76,0,18.62-16.13,33.21-36.54,33.21-14.47,0-23.13-7.12-26.81-13.88Z"/>
        <path class="cls-1" d="m329.16,194.78l11.15-23.13h2.61c-1.9,4.98-4.86,12.34-4.86,18.03,0,12.34,11.15,15.42,19.45,15.42,16.61,0,28.82-10.08,28.82-23.61,0-9.49-8.66-12.46-20.05-16.01l-5.1-1.66c-7.71-2.37-17.2-7.35-17.2-18.74,0-15.18,12.46-28.82,31.2-28.82,11.86,0,19.69,5.22,23.61,9.61l-11.15,18.74h-2.61c1.78-3.68,4.74-9.73,4.74-13.52,0-8.18-8.42-11.03-15.78-11.03-13.52,0-24.2,8.3-24.2,18.74,0,9.25,9.73,12.57,17.08,14.83l3.91,1.07c8.66,2.61,21.71,6.52,21.71,20.76,0,18.62-16.13,33.21-36.53,33.21-14.47,0-23.13-7.12-26.81-13.88Z"/>
        <path class="cls-1" d="m437.06,164.31c29.19-29.6,54.41-45.87,71.5-45.87,2.95,0,5.19.51,5.59.92-5.7.71-24.11,20.65-39.26,42.82-9.66,14.14-18.31,29.19-18.31,37.12,0,.71,0,1.73.2,2.34-1.53-2.24-2.14-4.88-2.14-7.53,0-6.92,4.17-16.48,10.68-26.65-2.54.1-6,.1-9.66.1-7.02,0-10.17-.1-11.8-.2l2.54-2.64c4.37.2,11.29.31,17.7.31h2.75c10.17-15.26,29.19-37.43,42.11-45.36-16.38.41-39.77,17.7-68.55,48.11-21.16,22.38-38.85,40.89-54.41,40.89-6,0-8.85-4.68-8.85-8.65,0-.61.1-1.63.2-2.24,0,1.32,1.12,6.81,7.63,6.81,12.41,0,29.39-17.09,49.43-37.63-2.24-.1-4.37-.1-6.51-.1-11.9,0-21.46,1.32-30.72,4.58-14.44,5.09-22.07,13.73-22.07,24.92,0,1.63.2,3.36.51,5.19-1.53-2.24-2.54-7.22-2.54-11.09,0-9.66,8.24-18.71,22.17-22.88,8.24-2.44,17.39-3.66,29.7-3.66,3.66,0,7.73.1,12.1.41Zm47.8-49.53c13.22,0,20.95.71,25.33,1.73-2.75-.2-7.73-.31-16.27-.31-26.95,0-65.81,9.05-76.38,21.36-1.83,2.14-3.05,4.58-3.05,8.34-.51-1.53-1.02-4.68-1.02-6.2,0-13.02,37.23-24.92,71.4-24.92Zm-60.82,37.73c-4.68-1.12-7.73-3.36-7.73-6.71,0-1.02.41-2.54.81-3.36.61,3.87,3.76,8.44,6.92,10.07Zm69.77,30.92c-13.93,14.24-26.14,21.77-31.53,21.77-2.44,0-3.25-2.64-3.25-5.7,0-.51.1-1.42.1-2.03.2,1.42,1.42,2.85,3.46,2.85,6.31,0,19.83-6.81,30.72-16.88h.51Zm-19.12-16.38l1.22-2.03c8.65-.2,14.14-2.14,15.97-3.05-1.32,1.93-8.14,4.78-17.19,5.09Z"/>
        <path class="cls-1" d="m591.87,199.22v-75.86l-6.97-7.23h51.48v8.39l-36.77-7.1v34.32l36.77-.26v8.39l-36.77-6.84v52.12l45.28-7.1v8.39h-59.99l6.97-7.22Z"/>
        <path class="cls-1" d="m544.65,207.96c-8.5,0-15.85-1.9-22.06-5.69-6.21-3.79-11.01-9.16-14.39-16.1-3.38-6.94-5.07-15.21-5.07-24.8s1.76-17.86,5.28-24.8c3.52-6.94,8.4-12.31,14.66-16.1,6.26-3.79,13.5-5.69,21.72-5.69,9.23,0,16.69,1.83,22.4,5.48,5.71,3.65,10.03,9.23,12.95,16.72l-6.3,3.29c-2.1-6.3-5.57-11.08-10.41-14.32-4.84-3.24-11.05-4.86-18.64-4.86-6.85,0-12.86,1.62-18.02,4.86-5.16,3.24-9.2,7.88-12.13,13.91-2.92,6.03-4.38,13.2-4.38,21.51s1.37,15.48,4.11,21.51c2.74,6.03,6.69,10.67,11.85,13.91,5.16,3.24,11.39,4.86,18.7,4.86,5.02,0,9.39-.8,13.09-2.4,3.7-1.6,6.76-3.7,9.18-6.3,2.42-2.6,4.23-5.57,5.41-8.91,1.19-3.33,1.78-6.74,1.78-10.21v-5.07h-30.7v-6.44h37.14v44.26h-5.62l-.27-19.6,1.23.27c-2.19,6.4-5.96,11.44-11.3,15.14-5.34,3.7-12.08,5.55-20.21,5.55Z"/>
      </g>
      <g>
        <path class="cls-1" d="m293.68,91.51V1.57h13.62v89.93h-13.62Z"/>
        <path class="cls-1" d="m355.21,93.05c-6.6,0-12.38-1.16-17.34-3.47-4.97-2.31-8.85-5.61-11.63-9.89-2.78-4.28-4.22-9.38-4.3-15.29h14.39c.08,4.8,1.75,8.86,5.01,12.21,3.25,3.34,7.84,5.01,13.75,5.01,5.22,0,9.31-1.26,12.27-3.79,2.96-2.53,4.43-5.76,4.43-9.7,0-3.17-.71-5.74-2.12-7.71-1.41-1.97-3.34-3.6-5.78-4.88-2.44-1.28-5.25-2.44-8.42-3.47-3.17-1.03-6.51-2.14-10.02-3.34-6.94-2.31-12.14-5.31-15.61-8.99-3.47-3.68-5.2-8.52-5.2-14.52-.09-5.05,1.09-9.46,3.53-13.23,2.44-3.77,5.87-6.7,10.28-8.8,4.41-2.1,9.57-3.15,15.48-3.15s10.94,1.07,15.35,3.21c4.41,2.14,7.86,5.12,10.34,8.93,2.48,3.81,3.77,8.24,3.85,13.3h-14.39c0-2.31-.6-4.52-1.8-6.62-1.2-2.1-2.96-3.83-5.27-5.2-2.31-1.37-5.14-2.06-8.48-2.06-4.28-.08-7.82.99-10.6,3.21-2.78,2.23-4.18,5.31-4.18,9.25,0,3.51,1.03,6.21,3.08,8.09,2.06,1.88,4.88,3.45,8.48,4.69,3.6,1.24,7.71,2.68,12.33,4.3,4.45,1.46,8.43,3.21,11.95,5.27,3.51,2.06,6.32,4.75,8.42,8.09,2.1,3.34,3.15,7.58,3.15,12.72,0,4.54-1.16,8.76-3.47,12.65-2.31,3.9-5.78,7.07-10.41,9.51-4.63,2.44-10.32,3.66-17.09,3.66Z"/>
        <path class="cls-1" d="m445.88,91.51V12.62h-26.59V1.57h66.68v11.05h-26.47v78.88h-13.62Z"/>
        <path class="cls-1" d="m498.69,91.51V1.57h13.62v38.54h43.55V1.57h13.62v89.93h-13.62v-40.21h-43.55v40.21h-13.62Z"/>
        <path class="cls-1" d="m587.72,91.51V1.57h57.17v11.05h-43.55v28.01h39.7v10.79h-39.7v29.04h43.55v11.05h-57.17Z"/>
      </g>
      <g>
        <path class="cls-1" d="m9.45,45.65c-1.78-1.72-3.38-3.73-4.8-6.04-1.42-2.31-2.55-4.87-3.39-7.69-.84-2.82-1.27-5.85-1.27-9.1s.42-6.28,1.27-9.1c.84-2.82,1.97-5.38,3.39-7.69C6.07,3.73,7.67,1.72,9.45,0h5.06v.48c-2.86,2.96-5.17,6.35-6.9,10.17-1.74,3.82-2.6,7.88-2.6,12.18s.87,8.36,2.6,12.18c1.73,3.82,4.05,7.21,6.95,10.17v.48h-5.11Z"/>
        <path class="cls-1" d="m19.62,38.72V5.3h10.84c3.92,0,7.14.68,9.67,2.05,2.53,1.37,4.41,3.3,5.63,5.8,1.22,2.5,1.84,5.47,1.84,8.9s-.61,6.36-1.84,8.86c-1.23,2.5-3.1,4.42-5.63,5.78-2.53,1.35-5.75,2.03-9.67,2.03h-10.84Zm5.06-4.3h5.59c3.02,0,5.42-.49,7.19-1.48,1.77-.99,3.04-2.4,3.82-4.25.78-1.85,1.17-4.06,1.17-6.64s-.39-4.81-1.17-6.68c-.78-1.88-2.05-3.32-3.82-4.32s-4.16-1.5-7.19-1.5h-5.59v24.88Z"/>
        <path class="cls-1" d="m53.19,38.72V5.3h21.25v4.11h-16.19v10.41h14.75v4.01h-14.75v10.79h16.19v4.11h-21.25Z"/>
        <path class="cls-1" d="m91.48,39.3c-2.45,0-4.6-.43-6.45-1.29-1.85-.86-3.29-2.08-4.32-3.68-1.03-1.59-1.57-3.49-1.6-5.68h5.35c.03,1.78.65,3.29,1.86,4.54,1.21,1.24,2.91,1.86,5.11,1.86,1.94,0,3.46-.47,4.56-1.41,1.1-.94,1.65-2.14,1.65-3.6,0-1.18-.26-2.13-.79-2.86-.53-.73-1.24-1.34-2.15-1.81s-1.95-.91-3.13-1.29c-1.18-.38-2.42-.8-3.72-1.24-2.58-.86-4.51-1.97-5.8-3.34-1.29-1.37-1.93-3.17-1.93-5.4-.03-1.88.41-3.52,1.31-4.92.91-1.4,2.18-2.49,3.82-3.27,1.64-.78,3.56-1.17,5.75-1.17s4.07.4,5.71,1.19c1.64.8,2.92,1.9,3.84,3.32.92,1.42,1.4,3.06,1.43,4.94h-5.35c0-.86-.22-1.68-.67-2.46-.45-.78-1.1-1.42-1.96-1.93-.86-.51-1.91-.76-3.15-.76-1.59-.03-2.91.37-3.94,1.19-1.03.83-1.55,1.97-1.55,3.44,0,1.31.38,2.31,1.15,3.01.76.7,1.81,1.28,3.15,1.74,1.34.46,2.86,1,4.58,1.6,1.66.54,3.13,1.19,4.44,1.96,1.3.76,2.35,1.77,3.13,3.01.78,1.24,1.17,2.82,1.17,4.73,0,1.69-.43,3.25-1.29,4.7-.86,1.45-2.15,2.63-3.87,3.53s-3.84,1.36-6.35,1.36Z"/>
        <path class="cls-1" d="m108.53,38.72V5.3h5.06v33.42h-5.06Z"/>
        <path class="cls-1" d="m134.88,39.3c-3.15,0-5.91-.72-8.26-2.15s-4.19-3.44-5.49-6.02c-1.31-2.58-1.96-5.59-1.96-9.02s.67-6.41,2.01-9.02c1.34-2.61,3.24-4.66,5.71-6.14,2.47-1.48,5.39-2.22,8.76-2.22,3.82,0,7,.92,9.55,2.77,2.55,1.85,4.2,4.39,4.97,7.64h-5.73c-.51-1.78-1.51-3.18-3.01-4.2-1.5-1.02-3.42-1.53-5.78-1.53-3.5,0-6.25,1.13-8.26,3.39-2,2.26-3.01,5.38-3.01,9.36s.99,7.08,2.96,9.31c1.97,2.23,4.6,3.34,7.88,3.34s5.8-.94,7.47-2.82c1.67-1.88,2.65-4.38,2.94-7.5h-9.07v-3.92h14.18v18.14h-4.63l-.43-4.92c-1.11,1.75-2.51,3.1-4.2,4.06-1.69.95-3.88,1.43-6.59,1.43Z"/>
        <path class="cls-1" d="m156.89,38.72V5.3h5.06l16.76,25.16V5.3h5.06v33.42h-5.06l-16.76-25.16v25.16h-5.06Z"/>
        <path class="cls-1" d="m190.55,38.72V5.3h21.25v4.11h-16.19v10.41h14.75v4.01h-14.75v10.79h16.19v4.11h-21.25Z"/>
        <path class="cls-1" d="m217.82,38.72V5.3h11.51c2.64,0,4.81.45,6.52,1.34,1.7.89,2.97,2.09,3.8,3.6.83,1.51,1.24,3.19,1.24,5.04,0,2.07-.55,3.95-1.65,5.63-1.1,1.69-2.81,2.9-5.13,3.63l7.11,14.18h-5.87l-6.49-13.46h-5.97v13.46h-5.06Zm5.06-17.28h6.16c2.29,0,3.97-.56,5.04-1.67,1.07-1.11,1.6-2.56,1.6-4.34s-.53-3.21-1.58-4.27c-1.05-1.07-2.75-1.6-5.11-1.6h-6.11v11.89Z"/>
        <path class="cls-1" d="m245.12,45.65v-.48c2.87-2.96,5.17-6.35,6.92-10.17,1.75-3.82,2.63-7.88,2.63-12.18s-.87-8.36-2.6-12.18c-1.74-3.82-4.03-7.21-6.9-10.17v-.48h5.06c1.75,1.72,3.34,3.73,4.77,6.04,1.43,2.31,2.57,4.87,3.41,7.69.84,2.82,1.26,5.85,1.26,9.1s-.42,6.28-1.26,9.1c-.84,2.82-1.98,5.38-3.41,7.69s-3.02,4.32-4.77,6.04h-5.11Z"/>
      </g>
    </g>
  </g>
</svg>