<svg xmlns="http://www.w3.org/2000/svg" xmlns:xlink="http://www.w3.org/1999/xlink" viewBox="0 0 197 197"><defs><style>.cls-1{fill:#4ad0ff;}.cls-2{fill:#8fc31f;}.cls-3{fill:#687755;}.cls-4{fill:#c9caca;}.cls-5{fill:#fff;}.cls-6{fill:url(#무제_그라디언트_3);}</style><linearGradient id="무제_그라디언트_3" x1="56.57" y1="29.24" x2="99.83" y2="95.42" gradientUnits="userSpaceOnUse"><stop offset="0" stop-color="#fff"/><stop offset="1" stop-color="#c9caca"/></linearGradient></defs><g id="레이어_2" data-name="레이어 2"><g id="레이어_1-2" data-name="레이어 1"><rect class="cls-1" width="197" height="197"/><path class="cls-2" d="M197,151.62c-22.82-10.24-57.49-16.77-96.32-16.77-41.4,0-78.06,7.42-100.68,18.84V197H197Z"/><path class="cls-3" d="M100.68,134.85A273.18,273.18,0,0,0,68,136.78a10.78,10.78,0,0,0-7.48,17l7.72,10.68a9.12,9.12,0,0,0,7.43,3.43h45.72a9.12,9.12,0,0,0,7.43-3.43l8.05-11.13a10.77,10.77,0,0,0-7.55-17A275.86,275.86,0,0,0,100.68,134.85Z"/><path class="cls-4" d="M121.36,50.32H75.64a8.58,8.58,0,0,0-7.43,4.29L45.35,94.21a8.59,8.59,0,0,0,0,8.58l22.86,39.6a8.58,8.58,0,0,0,7.43,4.29h45.72a8.58,8.58,0,0,0,7.43-4.29l22.86-39.6a8.59,8.59,0,0,0,0-8.58l-22.86-39.6A8.58,8.58,0,0,0,121.36,50.32Z"/><path class="cls-5" d="M91.15,0H0V49.35a55.84,55.84,0,0,0,22.18,4.46c24.33,0,44.05-14.67,44.05-32.76a24.42,24.42,0,0,0-.33-3.93C78.42,16,88.51,9,91.15,0Z"/><path class="cls-5" d="M197,0H160a14.3,14.3,0,0,0-2.44,7.91A14.29,14.29,0,0,0,160,15.83c-9.78,4-16.17,10.51-16.17,17.88,0,12.14,17.25,22,38.53,22A64.37,64.37,0,0,0,197,54Z"/><path class="cls-6" d="M124.41,50.89S95.22,94.65,95.22,94.65l-49.87-.44,22.86-39.6a8.67,8.67,0,0,1,7.43-4.29C80.82,50.32,124.41,50.89,124.41,50.89Z"/></g></g></svg>