<?xml version="1.0" encoding="UTF-8"?><svg id="_레이어_2" xmlns="http://www.w3.org/2000/svg" viewBox="0 0 197 197"><defs><style>.cls-1,.cls-2{stroke-width:0px;}.cls-2{fill:#fff;}</style></defs><g id="_레이어_1-2"><rect class="cls-2" width="197" height="197"/><rect class="cls-1" x="39.72" y="75.88" width="117.52" height="45.23"/><polygon class="cls-1" points="84.97 39.72 39.72 39.72 39.72 48.76 75.85 48.76 75.85 57.81 39.72 57.81 39.72 66.85 75.85 66.85 75.85 75.9 84.97 75.9 84.97 44.2 84.97 44.2 84.97 39.72"/><polygon class="cls-1" points="157.28 48.76 157.28 39.72 112.03 39.72 112.03 44.2 112.03 44.2 112.03 75.9 121.15 75.9 121.15 66.85 157.28 66.85 157.28 57.81 121.15 57.81 121.15 48.76 157.28 48.76"/><polygon class="cls-1" points="75.85 130.15 39.72 130.15 39.72 139.19 75.85 139.19 75.85 148.24 39.72 148.24 39.72 157.28 84.97 157.28 84.97 152.8 84.97 152.8 84.97 121.1 75.85 121.1 75.85 130.15"/><polygon class="cls-1" points="121.15 139.19 157.24 139.19 157.24 130.15 121.15 130.15 121.15 121.1 112.03 121.1 112.03 152.8 112.03 152.8 112.03 157.28 157.28 157.28 157.28 148.24 121.15 148.24 121.15 139.19"/><path class="cls-1" d="m121.15,148.23v-9.04h27.04v-9.01h-27.03v-9.05h36.08v-45.24h-36.09v-9.03h27.03v-9.05h-27.04v-9.04h36.09v-9.02h-45.17v36.09h-9v-36.13h-9.12v36.13h-8.98v-36.14h-45.24v9.07c.19,0,35.88-.02,36.13-.02v9.02h-27.03v9.04h27.04v9.05h-36.13v45.23h36.13v9.01h-27.03v9.04h27.03v9.02c-.15,0-36.03.02-36.13.02v9.07h45.23v-36.13h8.99v36.14h9.12v-36.14h8.99v36.13h45.23v-9.04h-36.13Zm18.08-63.27h8.96v27.05h-8.96v-27.05Zm-18.08.02h8.98v27.03h-8.98v-27.03Zm-63.38,27.03h-8.96v-27.05h8.96v27.05Zm18.08,0h-8.97v-27.06h8.97v27.06Zm9.13-27.06h8.96v8.98h-8.96v-8.98Zm-.02,27.06v-8.96h8.98v8.96h-8.98Zm27.05,0h-8.95v-8.96h8.95v8.96Zm0-18.07h-8.96v-8.98h8.96v8.98Z"/><rect class="cls-2" x="66.86" y="84.95" width="8.99" height="27.11"/><rect class="cls-2" x="48.79" y="84.95" width="8.99" height="27.11"/><rect class="cls-2" x="139.22" y="84.95" width="8.99" height="27.11"/><rect class="cls-2" x="121.18" y="84.95" width="8.99" height="27.11"/><rect class="cls-2" x="94" y="75.89" width="9" height="27.11" transform="translate(9.05 187.95) rotate(-90)"/><rect class="cls-2" x="94.01" y="93.99" width="8.99" height="27.11" transform="translate(-9.04 206.05) rotate(-90)"/></g></svg>