<?xml version="1.0" encoding="UTF-8"?><svg id="_레이어_2" xmlns="http://www.w3.org/2000/svg" xmlns:xlink="http://www.w3.org/1999/xlink" viewBox="0 0 197 197"><defs><style>.cls-1{clip-path:url(#clippath);}.cls-2{fill:none;}.cls-2,.cls-3{stroke-width:0px;}</style><clipPath id="clippath"><rect class="cls-2" width="197" height="197"/></clipPath></defs><g id="_레이어_1-2"><g class="cls-1"><rect class="cls-3" x="17.75" y="73.44" width="5.57" height="5.57"/><rect class="cls-3" x="17.75" y="79.01" width="5.57" height="5.57"/><rect class="cls-3" x="17.75" y="84.58" width="5.57" height="5.57"/><rect class="cls-3" x="17.75" y="106.85" width="5.57" height="5.57"/><rect class="cls-3" x="17.75" y="117.99" width="5.57" height="5.57"/><rect class="cls-3" x="17.75" y="123.56" width="5.57" height="5.57"/><rect class="cls-3" x="23.32" y="79.01" width="5.57" height="5.57"/><rect class="cls-3" x="23.32" y="84.58" width="5.57" height="5.57"/><rect class="cls-3" x="23.32" y="101.28" width="5.57" height="5.57"/><rect class="cls-3" x="23.32" y="117.99" width="5.57" height="5.57"/><rect class="cls-3" x="23.32" y="123.56" width="5.57" height="5.57"/><rect class="cls-3" x="28.89" y="67.87" width="5.57" height="5.57"/><rect class="cls-3" x="28.89" y="73.44" width="5.57" height="5.57"/><rect class="cls-3" x="28.89" y="90.15" width="5.57" height="5.57"/><rect class="cls-3" x="28.89" y="95.72" width="5.57" height="5.57"/><rect class="cls-3" x="28.89" y="112.42" width="5.57" height="5.57"/><rect class="cls-3" x="34.46" y="62.3" width="5.57" height="5.57"/><rect class="cls-3" x="34.46" y="67.87" width="5.57" height="5.57"/><rect class="cls-3" x="34.46" y="73.44" width="5.57" height="5.57"/><rect class="cls-3" x="34.46" y="79.01" width="5.57" height="5.57"/><rect class="cls-3" x="34.46" y="101.28" width="5.57" height="5.57"/><rect class="cls-3" x="34.46" y="106.85" width="5.57" height="5.57"/><rect class="cls-3" x="34.46" y="112.42" width="5.57" height="5.57"/><rect class="cls-3" x="34.46" y="117.99" width="5.57" height="5.57"/><rect class="cls-3" x="34.46" y="123.56" width="5.57" height="5.57"/><rect class="cls-3" x="40.03" y="67.87" width="5.57" height="5.57"/><rect class="cls-3" x="40.03" y="79.01" width="5.57" height="5.57"/><rect class="cls-3" x="40.03" y="90.15" width="5.57" height="5.57"/><rect class="cls-3" x="40.03" y="101.28" width="5.57" height="5.57"/><rect class="cls-3" x="40.03" y="112.42" width="5.57" height="5.57"/><rect class="cls-3" x="40.03" y="129.13" width="5.57" height="5.57"/><rect class="cls-3" x="45.59" y="62.3" width="5.57" height="5.57"/><rect class="cls-3" x="45.59" y="67.87" width="5.57" height="5.57"/><rect class="cls-3" x="45.59" y="73.44" width="5.57" height="5.57"/><rect class="cls-3" x="45.59" y="90.15" width="5.57" height="5.57"/><rect class="cls-3" x="45.59" y="106.85" width="5.57" height="5.57"/><rect class="cls-3" x="45.59" y="129.13" width="5.57" height="5.57"/><rect class="cls-3" x="51.16" y="62.3" width="5.57" height="5.57"/><rect class="cls-3" x="51.16" y="73.44" width="5.57" height="5.57"/><rect class="cls-3" x="51.16" y="84.58" width="5.57" height="5.57"/><rect class="cls-3" x="51.16" y="95.72" width="5.57" height="5.57"/><rect class="cls-3" x="51.16" y="106.85" width="5.57" height="5.57"/><rect class="cls-3" x="51.16" y="117.99" width="5.57" height="5.57"/><rect class="cls-3" x="51.16" y="129.13" width="5.57" height="5.57"/><rect class="cls-3" x="56.73" y="62.3" width="5.57" height="5.57"/><rect class="cls-3" x="56.73" y="73.44" width="5.57" height="5.57"/><rect class="cls-3" x="56.73" y="79.01" width="5.57" height="5.57"/><rect class="cls-3" x="56.73" y="84.58" width="5.57" height="5.57"/><rect class="cls-3" x="56.73" y="101.28" width="5.57" height="5.57"/><rect class="cls-3" x="56.73" y="106.85" width="5.57" height="5.57"/><rect class="cls-3" x="56.73" y="117.99" width="5.57" height="5.57"/><rect class="cls-3" x="56.73" y="129.13" width="5.57" height="5.57"/><rect class="cls-3" x="62.3" y="23.32" width="5.57" height="5.57"/><rect class="cls-3" x="62.3" y="28.89" width="5.57" height="5.57"/><rect class="cls-3" x="62.3" y="51.16" width="5.57" height="5.57"/><rect class="cls-3" x="62.3" y="67.87" width="5.57" height="5.57"/><rect class="cls-3" x="62.3" y="79.01" width="5.57" height="5.57"/><rect class="cls-3" x="62.3" y="84.58" width="5.57" height="5.57"/><rect class="cls-3" x="62.3" y="90.15" width="5.57" height="5.57"/><rect class="cls-3" x="62.3" y="101.28" width="5.57" height="5.57"/><rect class="cls-3" x="62.3" y="106.85" width="5.57" height="5.57"/><rect class="cls-3" x="62.3" y="112.42" width="5.57" height="5.57"/><rect class="cls-3" x="62.3" y="117.99" width="5.57" height="5.57"/><rect class="cls-3" x="62.3" y="123.56" width="5.57" height="5.57"/><rect class="cls-3" x="62.3" y="129.13" width="5.57" height="5.57"/><rect class="cls-3" x="62.3" y="140.27" width="5.57" height="5.57"/><rect class="cls-3" x="62.3" y="145.84" width="5.57" height="5.57"/><rect class="cls-3" x="62.3" y="156.97" width="5.57" height="5.57"/><rect class="cls-3" x="67.87" y="17.75" width="5.57" height="5.57"/><rect class="cls-3" x="67.87" y="28.89" width="5.57" height="5.57"/><rect class="cls-3" x="67.87" y="40.03" width="5.57" height="5.57"/><rect class="cls-3" x="67.87" y="56.73" width="5.57" height="5.57"/><rect class="cls-3" x="67.87" y="62.3" width="5.57" height="5.57"/><rect class="cls-3" x="67.87" y="67.87" width="5.57" height="5.57"/><rect class="cls-3" x="67.87" y="73.44" width="5.57" height="5.57"/><rect class="cls-3" x="67.87" y="95.72" width="5.57" height="5.57"/><rect class="cls-3" x="67.87" y="117.99" width="5.57" height="5.57"/><rect class="cls-3" x="67.87" y="140.27" width="5.57" height="5.57"/><rect class="cls-3" x="67.87" y="145.84" width="5.57" height="5.57"/><rect class="cls-3" x="67.87" y="156.97" width="5.57" height="5.57"/><rect class="cls-3" x="67.87" y="162.54" width="5.57" height="5.57"/><rect class="cls-3" x="67.87" y="168.11" width="5.57" height="5.57"/><rect class="cls-3" x="67.87" y="173.68" width="5.57" height="5.57"/><rect class="cls-3" x="73.44" y="40.03" width="5.57" height="5.57"/><rect class="cls-3" x="73.44" y="51.16" width="5.57" height="5.57"/><rect class="cls-3" x="73.44" y="56.73" width="5.57" height="5.57"/><rect class="cls-3" x="73.44" y="62.3" width="5.57" height="5.57"/><rect class="cls-3" x="73.44" y="67.87" width="5.57" height="5.57"/><rect class="cls-3" x="73.44" y="79.01" width="5.57" height="5.57"/><rect class="cls-3" x="73.44" y="112.42" width="5.57" height="5.57"/><rect class="cls-3" x="73.44" y="117.99" width="5.57" height="5.57"/><rect class="cls-3" x="73.44" y="123.56" width="5.57" height="5.57"/><rect class="cls-3" x="73.44" y="134.7" width="5.57" height="5.57"/><rect class="cls-3" x="73.44" y="151.41" width="5.57" height="5.57"/><rect class="cls-3" x="73.44" y="173.68" width="5.57" height="5.57"/><rect class="cls-3" x="79.01" y="23.32" width="5.57" height="5.57"/><rect class="cls-3" x="79.01" y="28.89" width="5.57" height="5.57"/><rect class="cls-3" x="79.01" y="73.44" width="5.57" height="5.57"/><rect class="cls-3" x="79.01" y="84.58" width="5.57" height="5.57"/><rect class="cls-3" x="79.01" y="90.15" width="5.57" height="5.57"/><rect class="cls-3" x="79.01" y="101.28" width="5.57" height="5.57"/><rect class="cls-3" x="79.01" y="106.85" width="5.57" height="5.57"/><rect class="cls-3" x="79.01" y="117.99" width="5.57" height="5.57"/><rect class="cls-3" x="79.01" y="140.27" width="5.57" height="5.57"/><rect class="cls-3" x="79.01" y="156.97" width="5.57" height="5.57"/><rect class="cls-3" x="84.58" y="34.46" width="5.57" height="5.57"/><rect class="cls-3" x="84.58" y="45.59" width="5.57" height="5.57"/><rect class="cls-3" x="84.58" y="51.16" width="5.57" height="5.57"/><rect class="cls-3" x="84.58" y="56.73" width="5.57" height="5.57"/><rect class="cls-3" x="84.58" y="62.3" width="5.57" height="5.57"/><rect class="cls-3" x="84.58" y="67.87" width="5.57" height="5.57"/><rect class="cls-3" x="84.58" y="73.44" width="5.57" height="5.57"/><rect class="cls-3" x="84.58" y="79.01" width="5.57" height="5.57"/><rect class="cls-3" x="84.58" y="90.15" width="5.57" height="5.57"/><rect class="cls-3" x="84.58" y="95.72" width="5.57" height="5.57"/><rect class="cls-3" x="84.58" y="129.13" width="5.57" height="5.57"/><rect class="cls-3" x="84.58" y="134.7" width="5.57" height="5.57"/><rect class="cls-3" x="84.58" y="140.27" width="5.57" height="5.57"/><rect class="cls-3" x="84.58" y="162.54" width="5.57" height="5.57"/><rect class="cls-3" x="84.58" y="168.11" width="5.57" height="5.57"/><rect class="cls-3" x="90.15" y="17.75" width="5.57" height="5.57"/><rect class="cls-3" x="90.15" y="28.89" width="5.57" height="5.57"/><rect class="cls-3" x="90.15" y="40.03" width="5.57" height="5.57"/><rect class="cls-3" x="90.15" y="45.59" width="5.57" height="5.57"/><rect class="cls-3" x="90.15" y="84.58" width="5.57" height="5.57"/><rect class="cls-3" x="90.15" y="95.72" width="5.57" height="5.57"/><rect class="cls-3" x="90.15" y="106.85" width="5.57" height="5.57"/><rect class="cls-3" x="90.15" y="112.42" width="5.57" height="5.57"/><rect class="cls-3" x="90.15" y="117.99" width="5.57" height="5.57"/><rect class="cls-3" x="90.15" y="123.56" width="5.57" height="5.57"/><rect class="cls-3" x="90.15" y="129.13" width="5.57" height="5.57"/><rect class="cls-3" x="90.15" y="140.27" width="5.57" height="5.57"/><rect class="cls-3" x="90.15" y="156.97" width="5.57" height="5.57"/><rect class="cls-3" x="90.15" y="173.68" width="5.57" height="5.57"/><rect class="cls-3" x="95.72" y="17.75" width="5.57" height="5.57"/><rect class="cls-3" x="95.72" y="51.16" width="5.57" height="5.57"/><rect class="cls-3" x="95.72" y="67.87" width="5.57" height="5.57"/><rect class="cls-3" x="95.72" y="73.44" width="5.57" height="5.57"/><rect class="cls-3" x="95.72" y="84.58" width="5.57" height="5.57"/><rect class="cls-3" x="95.72" y="101.28" width="5.57" height="5.57"/><rect class="cls-3" x="95.72" y="106.85" width="5.57" height="5.57"/><rect class="cls-3" x="95.72" y="123.56" width="5.57" height="5.57"/><rect class="cls-3" x="95.72" y="134.7" width="5.57" height="5.57"/><rect class="cls-3" x="95.72" y="140.27" width="5.57" height="5.57"/><rect class="cls-3" x="95.72" y="156.97" width="5.57" height="5.57"/><rect class="cls-3" x="95.72" y="162.54" width="5.57" height="5.57"/><rect class="cls-3" x="95.72" y="168.11" width="5.57" height="5.57"/><rect class="cls-3" x="95.72" y="173.68" width="5.57" height="5.57"/><rect class="cls-3" x="101.28" y="17.75" width="5.57" height="5.57"/><rect class="cls-3" x="101.28" y="34.46" width="5.57" height="5.57"/><rect class="cls-3" x="101.28" y="56.73" width="5.57" height="5.57"/><rect class="cls-3" x="101.28" y="62.3" width="5.57" height="5.57"/><rect class="cls-3" x="101.28" y="67.87" width="5.57" height="5.57"/><rect class="cls-3" x="101.28" y="90.15" width="5.57" height="5.57"/><rect class="cls-3" x="101.28" y="101.28" width="5.57" height="5.57"/><rect class="cls-3" x="101.28" y="112.42" width="5.57" height="5.57"/><rect class="cls-3" x="101.28" y="129.13" width="5.57" height="5.57"/><rect class="cls-3" x="101.28" y="134.7" width="5.57" height="5.57"/><rect class="cls-3" x="101.28" y="140.27" width="5.57" height="5.57"/><rect class="cls-3" x="101.28" y="156.97" width="5.57" height="5.57"/><rect class="cls-3" x="101.28" y="168.11" width="5.57" height="5.57"/><rect class="cls-3" x="106.85" y="17.75" width="5.57" height="5.57"/><rect class="cls-3" x="106.85" y="28.89" width="5.57" height="5.57"/><rect class="cls-3" x="106.85" y="40.03" width="5.57" height="5.57"/><rect class="cls-3" x="106.85" y="51.16" width="5.57" height="5.57"/><rect class="cls-3" x="106.85" y="62.3" width="5.57" height="5.57"/><rect class="cls-3" x="106.85" y="73.44" width="5.57" height="5.57"/><rect class="cls-3" x="106.85" y="84.58" width="5.57" height="5.57"/><rect class="cls-3" x="106.85" y="95.72" width="5.57" height="5.57"/><rect class="cls-3" x="106.85" y="112.42" width="5.57" height="5.57"/><rect class="cls-3" x="106.85" y="129.13" width="5.57" height="5.57"/><rect class="cls-3" x="106.85" y="140.27" width="5.57" height="5.57"/><rect class="cls-3" x="112.42" y="23.32" width="5.57" height="5.57"/><rect class="cls-3" x="112.42" y="28.89" width="5.57" height="5.57"/><rect class="cls-3" x="112.42" y="40.03" width="5.57" height="5.57"/><rect class="cls-3" x="112.42" y="45.59" width="5.57" height="5.57"/><rect class="cls-3" x="112.42" y="62.3" width="5.57" height="5.57"/><rect class="cls-3" x="112.42" y="79.01" width="5.57" height="5.57"/><rect class="cls-3" x="112.42" y="129.13" width="5.57" height="5.57"/><rect class="cls-3" x="112.42" y="134.7" width="5.57" height="5.57"/><rect class="cls-3" x="112.42" y="140.27" width="5.57" height="5.57"/><rect class="cls-3" x="112.42" y="145.84" width="5.57" height="5.57"/><rect class="cls-3" x="112.42" y="173.68" width="5.57" height="5.57"/><rect class="cls-3" x="117.99" y="17.75" width="5.57" height="5.57"/><rect class="cls-3" x="117.99" y="23.32" width="5.57" height="5.57"/><rect class="cls-3" x="117.99" y="40.03" width="5.57" height="5.57"/><rect class="cls-3" x="117.99" y="45.59" width="5.57" height="5.57"/><rect class="cls-3" x="117.99" y="51.16" width="5.57" height="5.57"/><rect class="cls-3" x="117.99" y="62.3" width="5.57" height="5.57"/><rect class="cls-3" x="117.99" y="95.72" width="5.57" height="5.57"/><rect class="cls-3" x="117.99" y="101.28" width="5.57" height="5.57"/><rect class="cls-3" x="117.99" y="117.99" width="5.57" height="5.57"/><rect class="cls-3" x="117.99" y="123.56" width="5.57" height="5.57"/><rect class="cls-3" x="117.99" y="156.97" width="5.57" height="5.57"/><rect class="cls-3" x="117.99" y="162.54" width="5.57" height="5.57"/><rect class="cls-3" x="117.99" y="173.68" width="5.57" height="5.57"/><rect class="cls-3" x="123.56" y="28.89" width="5.57" height="5.57"/><rect class="cls-3" x="123.56" y="45.59" width="5.57" height="5.57"/><rect class="cls-3" x="123.56" y="56.73" width="5.57" height="5.57"/><rect class="cls-3" x="123.56" y="62.3" width="5.57" height="5.57"/><rect class="cls-3" x="123.56" y="67.87" width="5.57" height="5.57"/><rect class="cls-3" x="123.56" y="73.44" width="5.57" height="5.57"/><rect class="cls-3" x="123.56" y="90.15" width="5.57" height="5.57"/><rect class="cls-3" x="123.56" y="134.7" width="5.57" height="5.57"/><rect class="cls-3" x="123.56" y="140.27" width="5.57" height="5.57"/><rect class="cls-3" x="123.56" y="145.84" width="5.57" height="5.57"/><rect class="cls-3" x="123.56" y="151.41" width="5.57" height="5.57"/><rect class="cls-3" x="123.56" y="173.68" width="5.57" height="5.57"/><rect class="cls-3" x="129.13" y="17.75" width="5.57" height="5.57"/><rect class="cls-3" x="129.13" y="23.32" width="5.57" height="5.57"/><rect class="cls-3" x="129.13" y="34.46" width="5.57" height="5.57"/><rect class="cls-3" x="129.13" y="51.16" width="5.57" height="5.57"/><rect class="cls-3" x="129.13" y="67.87" width="5.57" height="5.57"/><rect class="cls-3" x="129.13" y="79.01" width="5.57" height="5.57"/><rect class="cls-3" x="129.13" y="84.58" width="5.57" height="5.57"/><rect class="cls-3" x="129.13" y="90.15" width="5.57" height="5.57"/><rect class="cls-3" x="129.13" y="101.28" width="5.57" height="5.57"/><rect class="cls-3" x="129.13" y="106.85" width="5.57" height="5.57"/><rect class="cls-3" x="129.13" y="117.99" width="5.57" height="5.57"/><rect class="cls-3" x="129.13" y="129.13" width="5.57" height="5.57"/><rect class="cls-3" x="129.13" y="134.7" width="5.57" height="5.57"/><rect class="cls-3" x="129.13" y="140.27" width="5.57" height="5.57"/><rect class="cls-3" x="129.13" y="145.84" width="5.57" height="5.57"/><rect class="cls-3" x="129.13" y="151.41" width="5.57" height="5.57"/><rect class="cls-3" x="129.13" y="168.11" width="5.57" height="5.57"/><rect class="cls-3" x="134.7" y="62.3" width="5.57" height="5.57"/><rect class="cls-3" x="134.7" y="67.87" width="5.57" height="5.57"/><rect class="cls-3" x="134.7" y="73.44" width="5.57" height="5.57"/><rect class="cls-3" x="134.7" y="101.28" width="5.57" height="5.57"/><rect class="cls-3" x="134.7" y="106.85" width="5.57" height="5.57"/><rect class="cls-3" x="134.7" y="129.13" width="5.57" height="5.57"/><rect class="cls-3" x="134.7" y="151.41" width="5.57" height="5.57"/><rect class="cls-3" x="134.7" y="156.97" width="5.57" height="5.57"/><rect class="cls-3" x="134.7" y="173.68" width="5.57" height="5.57"/><rect class="cls-3" x="140.27" y="67.87" width="5.57" height="5.57"/><rect class="cls-3" x="140.27" y="73.44" width="5.57" height="5.57"/><rect class="cls-3" x="140.27" y="79.01" width="5.57" height="5.57"/><rect class="cls-3" x="140.27" y="95.72" width="5.57" height="5.57"/><rect class="cls-3" x="140.27" y="101.28" width="5.57" height="5.57"/><rect class="cls-3" x="140.27" y="112.42" width="5.57" height="5.57"/><rect class="cls-3" x="140.27" y="117.99" width="5.57" height="5.57"/><rect class="cls-3" x="140.27" y="129.13" width="5.57" height="5.57"/><rect class="cls-3" x="140.27" y="140.27" width="5.57" height="5.57"/><rect class="cls-3" x="140.27" y="151.41" width="5.57" height="5.57"/><rect class="cls-3" x="140.27" y="156.97" width="5.57" height="5.57"/><rect class="cls-3" x="140.27" y="162.54" width="5.57" height="5.57"/><rect class="cls-3" x="140.27" y="173.68" width="5.57" height="5.57"/><rect class="cls-3" x="145.84" y="67.87" width="5.57" height="5.57"/><rect class="cls-3" x="145.84" y="73.44" width="5.57" height="5.57"/><rect class="cls-3" x="145.84" y="84.58" width="5.57" height="5.57"/><rect class="cls-3" x="145.84" y="90.15" width="5.57" height="5.57"/><rect class="cls-3" x="145.84" y="101.28" width="5.57" height="5.57"/><rect class="cls-3" x="145.84" y="117.99" width="5.57" height="5.57"/><rect class="cls-3" x="145.84" y="123.56" width="5.57" height="5.57"/><rect class="cls-3" x="145.84" y="129.13" width="5.57" height="5.57"/><rect class="cls-3" x="145.84" y="151.41" width="5.57" height="5.57"/><rect class="cls-3" x="145.84" y="156.97" width="5.57" height="5.57"/><rect class="cls-3" x="145.84" y="168.11" width="5.57" height="5.57"/><rect class="cls-3" x="145.84" y="173.68" width="5.57" height="5.57"/><rect class="cls-3" x="151.41" y="67.87" width="5.57" height="5.57"/><rect class="cls-3" x="151.41" y="84.58" width="5.57" height="5.57"/><rect class="cls-3" x="151.41" y="90.15" width="5.57" height="5.57"/><rect class="cls-3" x="151.41" y="95.72" width="5.57" height="5.57"/><rect class="cls-3" x="151.41" y="101.28" width="5.57" height="5.57"/><rect class="cls-3" x="151.41" y="106.85" width="5.57" height="5.57"/><rect class="cls-3" x="151.41" y="112.42" width="5.57" height="5.57"/><rect class="cls-3" x="151.41" y="117.99" width="5.57" height="5.57"/><rect class="cls-3" x="151.41" y="123.56" width="5.57" height="5.57"/><rect class="cls-3" x="151.41" y="129.13" width="5.57" height="5.57"/><rect class="cls-3" x="151.41" y="134.7" width="5.57" height="5.57"/><rect class="cls-3" x="151.41" y="140.27" width="5.57" height="5.57"/><rect class="cls-3" x="151.41" y="145.84" width="5.57" height="5.57"/><rect class="cls-3" x="151.41" y="151.41" width="5.57" height="5.57"/><rect class="cls-3" x="156.97" y="73.44" width="5.57" height="5.57"/><rect class="cls-3" x="156.97" y="79.01" width="5.57" height="5.57"/><rect class="cls-3" x="156.97" y="95.72" width="5.57" height="5.57"/><rect class="cls-3" x="156.97" y="106.85" width="5.57" height="5.57"/><rect class="cls-3" x="156.97" y="112.42" width="5.57" height="5.57"/><rect class="cls-3" x="156.97" y="117.99" width="5.57" height="5.57"/><rect class="cls-3" x="156.97" y="123.56" width="5.57" height="5.57"/><rect class="cls-3" x="156.97" y="129.13" width="5.57" height="5.57"/><rect class="cls-3" x="156.97" y="145.84" width="5.57" height="5.57"/><rect class="cls-3" x="156.97" y="151.41" width="5.57" height="5.57"/><rect class="cls-3" x="156.97" y="168.11" width="5.57" height="5.57"/><rect class="cls-3" x="162.54" y="62.3" width="5.57" height="5.57"/><rect class="cls-3" x="162.54" y="73.44" width="5.57" height="5.57"/><rect class="cls-3" x="162.54" y="84.58" width="5.57" height="5.57"/><rect class="cls-3" x="162.54" y="106.85" width="5.57" height="5.57"/><rect class="cls-3" x="162.54" y="134.7" width="5.57" height="5.57"/><rect class="cls-3" x="162.54" y="151.41" width="5.57" height="5.57"/><rect class="cls-3" x="162.54" y="168.11" width="5.57" height="5.57"/><rect class="cls-3" x="162.54" y="173.68" width="5.57" height="5.57"/><rect class="cls-3" x="168.11" y="62.3" width="5.57" height="5.57"/><rect class="cls-3" x="168.11" y="73.44" width="5.57" height="5.57"/><rect class="cls-3" x="168.11" y="79.01" width="5.57" height="5.57"/><rect class="cls-3" x="168.11" y="95.72" width="5.57" height="5.57"/><rect class="cls-3" x="168.11" y="101.28" width="5.57" height="5.57"/><rect class="cls-3" x="168.11" y="106.85" width="5.57" height="5.57"/><rect class="cls-3" x="168.11" y="123.56" width="5.57" height="5.57"/><rect class="cls-3" x="168.11" y="129.13" width="5.57" height="5.57"/><rect class="cls-3" x="168.11" y="140.27" width="5.57" height="5.57"/><rect class="cls-3" x="168.11" y="156.97" width="5.57" height="5.57"/><rect class="cls-3" x="173.68" y="90.15" width="5.57" height="5.57"/><rect class="cls-3" x="173.68" y="106.85" width="5.57" height="5.57"/><rect class="cls-3" x="173.68" y="129.13" width="5.57" height="5.57"/><rect class="cls-3" x="173.68" y="134.7" width="5.57" height="5.57"/><rect class="cls-3" x="173.68" y="140.27" width="5.57" height="5.57"/><rect class="cls-3" x="173.68" y="145.84" width="5.57" height="5.57"/><rect class="cls-3" x="173.68" y="151.41" width="5.57" height="5.57"/><rect class="cls-3" x="173.68" y="156.97" width="5.57" height="5.57"/><rect class="cls-3" x="173.68" y="173.68" width="5.57" height="5.57"/><rect class="cls-3" x="17.75" y="17.75" width="5.57" height="5.57"/><rect class="cls-3" x="17.75" y="23.32" width="5.57" height="5.57"/><rect class="cls-3" x="17.75" y="28.89" width="5.57" height="5.57"/><rect class="cls-3" x="17.75" y="34.46" width="5.57" height="5.57"/><rect class="cls-3" x="17.75" y="40.03" width="5.57" height="5.57"/><rect class="cls-3" x="17.75" y="45.59" width="5.57" height="5.57"/><rect class="cls-3" x="17.75" y="51.16" width="5.57" height="5.57"/><rect class="cls-3" x="23.32" y="17.75" width="5.57" height="5.57"/><rect class="cls-3" x="23.32" y="51.16" width="5.57" height="5.57"/><rect class="cls-3" x="28.89" y="17.75" width="5.57" height="5.57"/><rect class="cls-3" x="28.89" y="51.16" width="5.57" height="5.57"/><rect class="cls-3" x="34.46" y="17.75" width="5.57" height="5.57"/><rect class="cls-3" x="34.46" y="51.16" width="5.57" height="5.57"/><rect class="cls-3" x="40.03" y="17.75" width="5.57" height="5.57"/><rect class="cls-3" x="40.03" y="51.16" width="5.57" height="5.57"/><rect class="cls-3" x="45.59" y="17.75" width="5.57" height="5.57"/><rect class="cls-3" x="45.59" y="51.16" width="5.57" height="5.57"/><rect class="cls-3" x="51.16" y="17.75" width="5.57" height="5.57"/><rect class="cls-3" x="51.16" y="23.32" width="5.57" height="5.57"/><rect class="cls-3" x="51.16" y="28.89" width="5.57" height="5.57"/><rect class="cls-3" x="51.16" y="34.46" width="5.57" height="5.57"/><rect class="cls-3" x="51.16" y="40.03" width="5.57" height="5.57"/><rect class="cls-3" x="51.16" y="45.59" width="5.57" height="5.57"/><rect class="cls-3" x="51.16" y="51.16" width="5.57" height="5.57"/><rect class="cls-3" x="28.89" y="28.89" width="5.57" height="5.57"/><rect class="cls-3" x="28.89" y="34.46" width="5.57" height="5.57"/><rect class="cls-3" x="28.89" y="40.03" width="5.57" height="5.57"/><rect class="cls-3" x="34.46" y="28.89" width="5.57" height="5.57"/><rect class="cls-3" x="34.46" y="34.46" width="5.57" height="5.57"/><rect class="cls-3" x="34.46" y="40.03" width="5.57" height="5.57"/><rect class="cls-3" x="40.03" y="28.89" width="5.57" height="5.57"/><rect class="cls-3" x="40.03" y="34.46" width="5.57" height="5.57"/><rect class="cls-3" x="40.03" y="40.03" width="5.57" height="5.57"/><rect class="cls-3" x="140.27" y="17.75" width="5.57" height="5.57"/><rect class="cls-3" x="140.27" y="23.32" width="5.57" height="5.57"/><rect class="cls-3" x="140.27" y="28.89" width="5.57" height="5.57"/><rect class="cls-3" x="140.27" y="34.46" width="5.57" height="5.57"/><rect class="cls-3" x="140.27" y="40.03" width="5.57" height="5.57"/><rect class="cls-3" x="140.27" y="45.59" width="5.57" height="5.57"/><rect class="cls-3" x="140.27" y="51.16" width="5.57" height="5.57"/><rect class="cls-3" x="145.84" y="17.75" width="5.57" height="5.57"/><rect class="cls-3" x="145.84" y="51.16" width="5.57" height="5.57"/><rect class="cls-3" x="151.41" y="17.75" width="5.57" height="5.57"/><rect class="cls-3" x="151.41" y="51.16" width="5.57" height="5.57"/><rect class="cls-3" x="156.97" y="17.75" width="5.57" height="5.57"/><rect class="cls-3" x="156.97" y="51.16" width="5.57" height="5.57"/><rect class="cls-3" x="162.54" y="17.75" width="5.57" height="5.57"/><rect class="cls-3" x="162.54" y="51.16" width="5.57" height="5.57"/><rect class="cls-3" x="168.11" y="17.75" width="5.57" height="5.57"/><rect class="cls-3" x="168.11" y="51.16" width="5.57" height="5.57"/><rect class="cls-3" x="173.68" y="17.75" width="5.57" height="5.57"/><rect class="cls-3" x="173.68" y="23.32" width="5.57" height="5.57"/><rect class="cls-3" x="173.68" y="28.89" width="5.57" height="5.57"/><rect class="cls-3" x="173.68" y="34.46" width="5.57" height="5.57"/><rect class="cls-3" x="173.68" y="40.03" width="5.57" height="5.57"/><rect class="cls-3" x="173.68" y="45.59" width="5.57" height="5.57"/><rect class="cls-3" x="173.68" y="51.16" width="5.57" height="5.57"/><rect class="cls-3" x="151.41" y="28.89" width="5.57" height="5.57"/><rect class="cls-3" x="151.41" y="34.46" width="5.57" height="5.57"/><rect class="cls-3" x="151.41" y="40.03" width="5.57" height="5.57"/><rect class="cls-3" x="156.97" y="28.89" width="5.57" height="5.57"/><rect class="cls-3" x="156.97" y="34.46" width="5.57" height="5.57"/><rect class="cls-3" x="156.97" y="40.03" width="5.57" height="5.57"/><rect class="cls-3" x="162.54" y="28.89" width="5.57" height="5.57"/><rect class="cls-3" x="162.54" y="34.46" width="5.57" height="5.57"/><rect class="cls-3" x="162.54" y="40.03" width="5.57" height="5.57"/><rect class="cls-3" x="17.75" y="140.27" width="5.57" height="5.57"/><rect class="cls-3" x="17.75" y="145.84" width="5.57" height="5.57"/><rect class="cls-3" x="17.75" y="151.41" width="5.57" height="5.57"/><rect class="cls-3" x="17.75" y="156.97" width="5.57" height="5.57"/><rect class="cls-3" x="17.75" y="162.54" width="5.57" height="5.57"/><rect class="cls-3" x="17.75" y="168.11" width="5.57" height="5.57"/><rect class="cls-3" x="17.75" y="173.68" width="5.57" height="5.57"/><rect class="cls-3" x="23.32" y="140.27" width="5.57" height="5.57"/><rect class="cls-3" x="23.32" y="173.68" width="5.57" height="5.57"/><rect class="cls-3" x="28.89" y="140.27" width="5.57" height="5.57"/><rect class="cls-3" x="28.89" y="173.68" width="5.57" height="5.57"/><rect class="cls-3" x="34.46" y="140.27" width="5.57" height="5.57"/><rect class="cls-3" x="34.46" y="173.68" width="5.57" height="5.57"/><rect class="cls-3" x="40.03" y="140.27" width="5.57" height="5.57"/><rect class="cls-3" x="40.03" y="173.68" width="5.57" height="5.57"/><rect class="cls-3" x="45.59" y="140.27" width="5.57" height="5.57"/><rect class="cls-3" x="45.59" y="173.68" width="5.57" height="5.57"/><rect class="cls-3" x="51.16" y="140.27" width="5.57" height="5.57"/><rect class="cls-3" x="51.16" y="145.84" width="5.57" height="5.57"/><rect class="cls-3" x="51.16" y="151.41" width="5.57" height="5.57"/><rect class="cls-3" x="51.16" y="156.97" width="5.57" height="5.57"/><rect class="cls-3" x="51.16" y="162.54" width="5.57" height="5.57"/><rect class="cls-3" x="51.16" y="168.11" width="5.57" height="5.57"/><rect class="cls-3" x="51.16" y="173.68" width="5.57" height="5.57"/><rect class="cls-3" x="28.89" y="151.41" width="5.57" height="5.57"/><rect class="cls-3" x="28.89" y="156.97" width="5.57" height="5.57"/><rect class="cls-3" x="28.89" y="162.54" width="5.57" height="5.57"/><rect class="cls-3" x="34.46" y="151.41" width="5.57" height="5.57"/><rect class="cls-3" x="34.46" y="156.97" width="5.57" height="5.57"/><rect class="cls-3" x="34.46" y="162.54" width="5.57" height="5.57"/><rect class="cls-3" x="40.03" y="151.41" width="5.57" height="5.57"/><rect class="cls-3" x="40.03" y="156.97" width="5.57" height="5.57"/><rect class="cls-3" x="40.03" y="162.54" width="5.57" height="5.57"/></g></g></svg>