<?xml version="1.0" encoding="UTF-8"?>
<svg id="_레이어_2" data-name="레이어 2" xmlns="http://www.w3.org/2000/svg" viewBox="0 0 197.02 197.02">
  <defs>
    <style>
      .cls-1 {
        fill: #f3f0f0;
      }

      .cls-2 {
        fill: #f7e3ca;
      }

      .cls-3 {
        fill: #f2f2f2;
      }

      .cls-4 {
        fill: #f2f1f1;
      }

      .cls-5 {
        fill: #eb9838;
      }

      .cls-6 {
        fill: #e9913d;
      }

      .cls-7 {
        fill: #e8c78b;
      }

      .cls-8 {
        fill: #e9b95d;
      }

      .cls-9 {
        fill: #e9ba5f;
      }

      .cls-10 {
        fill: #e9ba5e;
      }

      .cls-11 {
        fill: #eb933d;
      }

      .cls-12 {
        fill: #e6c37e;
      }

      .cls-13 {
        fill: #ce3539;
      }

      .cls-14 {
        fill: #cc3933;
      }

      .cls-15 {
        fill: #cc2039;
      }

      .cls-16 {
        fill: #cb424d;
      }

      .cls-17 {
        fill: #cb3e49;
      }

      .cls-18 {
        fill: #cb3746;
      }

      .cls-19 {
        fill: #cb2038;
      }

      .cls-20 {
        fill: #ca233c;
      }

      .cls-21 {
        fill: #ca4953;
      }

      .cls-22 {
        fill: #080d27;
      }

      .cls-23 {
        fill: #454540;
      }

      .cls-24 {
        fill: #5b4d40;
      }

      .cls-25 {
        fill: #4a473f;
      }
    </style>
  </defs>
  <g id="_레이어_1-2" data-name="레이어 1">
    <g>
      <path class="cls-5" d="m50.47,196.98c-16.69.03-33.35.03-50.02.04-.36,0-.46-.07-.46-.45C.01,131.2.01,65.84,0,.47,0,.05.11,0,.49,0,65.84.01,131.19.01,196.54,0c.39,0,.48.07.48.47-.01,65.35-.01,130.7,0,196.05,0,.44-.12.49-.51.49-12.18-.01-24.36,0-36.59,0-.39-.76-.72-1.52-.96-2.32-.46-1.55-.95-3.1-1.41-4.65-.39-1.3-.73-2.62-1.09-3.92-.45-1.61-.87-3.23-1.29-4.85-.61-2.3-1.22-4.59-1.81-6.89-.48-1.89-.96-3.78-1.5-5.66-.28-.98-.42-1.99-.7-2.97-.53-1.88-1.04-3.76-1.48-5.66-.4-1.74-.93-3.45-1.36-5.18-.43-1.7-.92-3.38-1.4-5.07-.27-.94-.56-1.88-.73-2.89-.11-.67-.26-1.3-.48-1.95-.02-.06-.03-.09-.04-.15-.21-1.61-.53-3.15-.83-4.71-.28-1.42-.55-2.84-.87-4.25-.17-.73-.3-1.47-.51-2.19-.18-.61-.26-1.24-.39-1.86-.15-.67-.36-1.32-.49-1.99-.17-.88-.42-1.74-.55-2.63-.04-.28-.15-.53-.25-.83-.01-.07-.02-.09-.01-.16.01-.06.02-.09.05-.15.43-.49,1.02-.72,1.48-1.17.04-.04.06-.05.1-.09.18-.08.28-.19.39-.35.04-.04.06-.05.11-.08.75-.44,1.35-1.02,2-1.53,1.2-.94,2.38-1.93,3.46-3.01.14-.14.27-.28.39-.48.06-.06.09-.09.16-.14.07-.04.12-.06.2-.07,1.52-.68,2.85-1.59,4-2.74.28-.28.49-.61.63-.99.11-.29.26-.57.49-.78.42-.37.46-.83.29-1.37-.07-.11-.1-.19-.15-.31-.25-.63-.53-1.22-1-1.72-.04-.04-.05-.06-.08-.11-.2-.51-.39-.98-.65-1.46-.02-.05-.03-.07-.05-.12-.04-.2-.07-.37-.19-.55-.05-.09-.08-.15-.12-.25-.53-1.57-1.21-3.04-1.85-4.52-.46-1.07-.88-2.15-1.49-3.18-.03-.05-.05-.07-.08-.12-.06-.16-.09-.29-.26-.39-.04-.04-.05-.06-.09-.11-.8-2.07-1.99-3.89-3.11-5.78-.53-.85-1.16-1.57-1.75-2.38-.06-.09-.09-.15-.14-.25-.28-.7-.63-1.33-.91-1.99-.45-1.05-.99-2.06-1.52-3.07-1.13-2.13-2.38-4.18-3.73-6.18-.75-1.12-1.5-2.23-2.35-3.27-.4-.48-.82-.89-1.48-.95-.07,0-.13-.02-.18-.06-.55-.44-1.17-.44-1.85-.32-.58-.31-.54-.91-.58-1.37-.09-.92-.35-1.79-.5-2.69-.36-2.23-.86-4.43-1.34-6.64-.51-2.38-1.07-4.75-1.68-7.11-.39-1.5-.75-3.01-1.08-4.52-.2-.92-.45-1.83-.66-2.75-.37-1.67-.91-3.3-1.3-4.97-.24-1.01-.51-2.02-.83-3.01-.27-.84-.5-1.69-.73-2.54-.42-1.49-.91-2.94-1.82-4.22-.39-.55-.42-.55-1.07-.36-.15.04-.3.05-.44,0-.46-.18-.73.05-.98.4-.5.68-.78,1.47-1.1,2.24-.51,1.2-1.06,2.39-1.6,3.58-.45.98-1.01,1.9-1.56,2.83-.45.76-.87,1.53-1.29,2.31-.77,1.42-1.48,2.88-2.16,4.34-.97,2.08-2.03,4.12-3.03,6.19-.68,1.4-1.41,2.77-2.06,4.18-.07.15-.13.3-.3.43-.3.1-.56.02-.81-.02-1.31-.21-2.63-.31-3.96-.26-.61.03-1.21.03-1.82.02-1.38-.04-2.76.05-4.12.2-1.69.18-3.4.16-5.08.45-.34.06-.69.03-1.03.03-1.36,0-2.72.18-4.08.12-1.13-.05-2.25.17-3.43.17-.28.04-.53.02-.81.02-.78-.26-1.51.05-2.28,0-.48-.08-.92,0-1.4-.06-.23-.08-.32-.23-.39-.4-.51-1.33-1.01-2.67-1.54-3.99-.46-1.14-.89-2.29-1.34-3.44-.44-1.13-.88-2.26-1.29-3.4-1.01-2.81-2.31-5.5-3.58-8.2-.84-1.78-1.72-3.54-2.77-5.21-.09-.14-.17-.28-.28-.41-.39-.43-.85-.44-1.22,0-.24.29-.46.52-.79.06-.59,1.18-1.14,2.31-1.54,3.52-.81,2.41-1.53,4.85-2.23,7.29-.46,1.59-1.01,3.16-1.42,4.76-.65,2.54-1.45,5.04-2.1,7.58-.4,1.56-.87,3.09-1.2,4.67-.15.74-.3,1.48-.41,2.22-.29,2.06-.78,4.09-1.15,6.14-.11.61-.33,1.2-.56,1.82-.17.46-.59.64-.9.92-.32.29-.59.57-.44,1.05.06.2-.05.38-.13.56-.42.9-.91,1.78-1.33,2.68-.08.16-.15.33-.19.55-.03.06-.04.08-.08.14-.48,1.19-.87,2.37-1.1,3.6-.03.15-.07.29-.06.44.05.69-.11,1.34-.37,1.96-.47,1.14-.63,2.33-.62,3.55,0,.68-.11,1.36-.21,2.04-.14.92-.16,1.85-.24,2.78-.17,1.94-.17,3.89-.28,5.83-.06,1.01-.11,2.02-.13,3.03-.02,1.01-.08,2.03-.14,3.04-.1,1.7-.17,3.4-.35,5.09-.06.55-.04,1.11-.07,1.66-.06,1.06-.18,2.12-.23,3.22,0,.16.04.28,0,.44-.18,2.26-.29,4.49-.29,6.71,0,.93.2,1.85.39,2.76.04.17.18.27.3.43.18.17.24.36.31.54.45,1.29,1.05,2.51,1.73,3.69.11.2.22.4.3.62.74,2.22,1.95,4.18,3.19,6.14.4.64.79,1.28,1.03,2.01.13.4.37.73.74,1,.07.05.1.08.16.14.11.11.17.2.25.32.09.18.21.31.25.51.02.05.03.06.06.11.04.08.09.12.17.18.09.06.14.11.2.21.04.09.05.14.05.24-.09,1-.17,1.95-.27,2.9-.12,1.08-.24,2.16-.38,3.25-.09.68-.07,1.37-.18,2.05-.22,1.32-.31,2.65-.51,3.97-.14.97-.15,1.95-.28,2.92-.26,1.89-.31,3.81-.58,5.7-.32,2.21-.39,4.46-.7,6.67-.23,1.58-.28,3.18-.5,4.77-.06.4-.14.8-.13,1.26.01.2.03.36,0,.56-.02.15-.09.26-.05.42.02.11.02.18.01.3,0,.06-.01.09-.02.16-.24.8-.11,1.57-.14,2.39.01.13.02.22,0,.35-.05.17-.09.29-.09.43.03,2.18-.42,4.31-.68,6.46-.07.6-.11,1.2-.13,1.8-.05,1.24-.28,2.46-.3,3.7,0,.63-.06,1.27-.08,1.91,0,.22-.06.42-.21.63Z"/>
      <path class="cls-3" d="m52.03,178.63c.01-.2.02-.37.04-.58.2-1,.29-1.97.37-2.93.12-1.38.31-2.75.45-4.13.07-.64.43-1.24.26-1.92-.03-.11.01-.23.08-.33.26-.4.24-.86.16-1.29-.18-.97-.05-1.87.41-2.74.17-.32.28-.71.06-1.08-.02-.04-.05-.1-.04-.14.16-.4.14-.81.07-1.23-.03-.2.14-.28.36-.28.18-.39-.09-.73-.08-1.1,0-.14-.06-.31.02-.43.51-.78.52-1.7.75-2.55.05-.17.02-.36,0-.54-.07-.81.27-1.53.45-2.29.08-.32.07-.61-.05-.95-.15-.44,0-.93-.12-1.4-.05-.21-.09-.41-.2-.63-.04-1.16-.01-2.28.31-3.37.12-.39-.03-.81.02-1.22.11-.89.32-1.76.29-2.67,0-.1.07-.18.19-.26,1.57-.25,3.02.13,4.47.53.11.03.22.05.37.06.06,0,.09,0,.15.02.21.06.37.15.59.18.08,0,.12,0,.2.01.05,0,.07.01.12.02.09.03.14.05.23.08.05.01.07.02.11.04.1.04.18.06.28.07.05,0,.07.01.12.02.13.05.23.05.36.06.1.02.16.04.24.08.14.1.27.11.43.12.17.04.3.09.48.11.06.02.08.03.14.06,1.27.49,2.55.79,3.84,1.1,1.49.37,3.02.54,4.5.97.91.27,1.82.52,2.72.84.46.17.93.08,1.39.13.5.05,1.01.11,1.51.13.17,0,.34.03.42.2.09.2-.06.34-.18.47-.05.05-.1.09-.15.12-1.48.84-2.55,2.11-3.63,3.39-.72.86-1.4,1.73-1.93,2.72-1.26,2.34-1.41,4.8-.81,7.34.09.37.14.74.19,1.11.15,1.11.79,1.95,1.56,2.7.17.17.24.43.53.54.12.03.18.07.27.15.56.51,1.48.61,2.19.26,1.35-.67,2.5-1.6,3.3-2.87.34-.55.71-1.05,1.14-1.52.12-.14.23-.33.43-.23.23.12.11.34.06.53-.17.71-.44,1.4-.6,2.12-.38,1.67-.64,3.37-1.03,5.04-.45,1.93-.88,3.87-1.32,5.8-.44,1.95-.97,3.88-1.19,5.87-.08.73-.13,1.45.52,2,.11.09.12.27.2.39.13.2.32.34.57.32.24-.02.38-.18.47-.38.11-.24.16-.5.25-.79.03-.11.05-.19.08-.29.04-.18.12-.32.13-.52.23-.88.46-1.72.59-2.62.4-1.85.72-3.68.99-5.51.1-.69.2-1.38.37-2.11,0-.1,0-.15.01-.25.09-.6.18-1.16.27-1.76,0-.09,0-.15.01-.24.25-1.4.42-2.76.69-4.15,0-.1.01-.15.02-.24.28-1.39.63-2.72.88-4.11,0-.07,0-.09.02-.16.27-.69.42-1.39.59-2.07.3-1.18.88-2.22,1.45-3.26.67-1.22,1.21-2.5,1.68-3.81.17-.48.37-.95.55-1.42.07-.18.14-.4.38-.41.23,0,.25.23.37.4.03.06.04.08.06.14.72,1.66,1.01,3.41,1.44,5.11.03.11.07.22.13.36.2,1.07.59,2.05.84,3.07.45,1.79,1.07,3.54,1.47,5.35.34,1.55.75,3.09,1.04,4.64.33,1.74.71,3.46,1.22,5.15.39,1.3.83,2.58,1.29,3.86.12.33.38.57.61.82.17.18.42.19.64.1.22-.08.19-.29.19-.46-.01-.67-.22-1.32-.25-1.99-.06-1.25-.42-2.45-.64-3.67-.11-.59-.27-1.18-.44-1.8-.08-.92-.35-1.77-.56-2.62-.29-1.22-.48-2.47-.85-3.67-.32-1.03-.62-2.06-.99-3.08-.03-.09-.08-.18-.09-.28-.02-.14-.09-.31.09-.39.16-.07.28.04.37.16.36.43.76.8,1.2,1.15,1.75,1.39,3.76,2.02,5.95,1.79,2.42-.24,4.22-1.47,5.18-3.78.11-.27.18-.56.19-.89,0-.09,0-.14,0-.22.14-1.2-.45-2.14-.98-3.1-.43-.77-.95-1.48-1.54-2.14-.92-1.03-1.99-1.88-3.18-2.58-.52-.31-.98-.71-1.57-.97-.06-.02-.08-.03-.13-.07-.82-.74-1.82-1.11-2.75-1.6-.36-.19-.72-.37-1.15-.49-.06-.02-.08-.02-.14-.05-.67-.33-1.34-.52-2.02-.72-.14-.04-.28-.08-.41-.16-.09-.06-.14-.14-.1-.25.03-.08.11-.11.2-.12,1.8-.29,3.57-.69,5.35-1.08,2.6-.57,5.14-1.35,7.68-2.17,1.74-.56,3.47-1.13,5.19-1.74.52-.19,1.02-.43,1.58-.63,2.02-.83,3.98-1.69,5.91-2.61,1.64-.78,3.27-1.57,4.87-2.42,2.17-1.14,4.3-2.36,6.2-3.93,1.56-1.28,3.33-2.23,5.07-3.24,1.94-1.12,3.86-2.27,5.66-3.61.43-.32.79-.74,1.41-.79.36.37.34.84.43,1.26.28,1.29.56,2.58.85,3.87.22.98.44,1.96.63,2.95.11.57.27,1.14.41,1.71.18.76.34,1.52.51,2.28.27,1.19.41,2.39.67,3.58.2.94.41,1.88.55,2.87.02.04.02.04.02.04.17.52.24,1.07.4,1.6.07.24-.1.47-.24.68-1.15,1.8-2.03,3.73-2.89,5.67-.41.92-.83,1.85-1.31,2.74-.17.32-.27.66-.42.99-1.05,2.29-1.93,4.65-2.71,7.05-.29.9-.67,1.78-.83,2.71-.15.88-.45,1.74-.48,2.65-.02.59-.23,1.15-.3,1.73-.15,1.31-.32,2.62-.31,3.95,0,1.08-.03,2.16-.03,3.23,0,1.09.17,2.2.54,3.27.42,1.19.91,2.35,1.55,3.43.52.86,1.26,1.54,1.95,2.26.77.8,1.71,1.33,2.64,1.91,1.13.7,2.36,1.1,3.58,1.57.95.36,1.94.61,2.96.75.69.1.86.34.82,1.03-.09,1.47.28,2.85.82,4.2.08.19.21.38.11.64-33.38.03-66.74.03-100.15.03-.29-.58-.51-1.1-.32-1.8.19-.72.23-1.5.22-2.27-.01-.73-.05-1.46-.08-2.19,0-.1-.03-.19-.13-.3-.13-.37-.08-.71-.03-1.05.11-.82.13-1.64.3-2.5,0-.18.06-.3.09-.47.01-.13,0-.23.02-.36.05-.17.19-.29.1-.49,0-.12,0-.21,0-.34.03-.15.05-.27.06-.42.13-.92.14-1.81.16-2.74,0-.11,0-.19.02-.3.11-.86,0-1.7.12-2.57.02-.04.02-.04.02-.04.07-.06.05-.14.05-.25-.03-.11-.05-.19-.03-.3Z"/>
      <path class="cls-9" d="m146.23,146.88c.3.55.37,1.15.54,1.72.4,1.36.73,2.73,1.15,4.08.23.75.37,1.52.58,2.27.18.64.39,1.27.53,1.93.21.98.55,1.93.73,2.92.19,1.04.57,2.04.82,3.08.44,1.83.92,3.65,1.37,5.48.39,1.59.74,3.21,1.27,4.77.28.82.43,1.69.65,2.54.39,1.54.77,3.09,1.25,4.61.22.67.33,1.38.52,2.06.32,1.11.54,2.25.9,3.35.27.81.44,1.66.67,2.49.2.71.42,1.42.63,2.13.25.83.47,1.66.75,2.48.34,1,.49,2.06.98,3.02.18.34.3.73.29,1.17-2.43.04-4.86.04-7.34.04-.12-.07-.2-.14-.29-.17-.55-.19-.8-.54-.68-1.13.03-.15.01-.33-.11-.41-.58-.38-.52-1.03-.67-1.58-.15-.51-.15-1.03-.08-1.56.1-.77-.09-1.01-.87-1.09-1.71-.17-3.27-.84-4.86-1.44-.77-.29-1.44-.75-2.15-1.12-.97-.51-1.88-1.18-2.52-2.06-.44-.6-1.01-1.06-1.42-1.67-.17-.25-.13-.45,0-.68-.26-.03-.46-.07-.6-.27-.18-.24-.25-.47,0-.69.24-.2.15-.36-.03-.52-.06-.06-.11-.13-.18-.17-.64-.32-.87-.91-1.01-1.55-.23-1.08-.5-2.17-.42-3.29.04-.53.19-1.01.06-1.59-.14-.6-.02-1.27-.04-1.91-.01-.66.14-1.3.15-1.95.01-.66.07-1.31.26-1.93.31-1.02.17-2.1.54-3.11.12-.33.13-.7.21-1.05.08-.36.17-.64.53-.81.23-.1.18-.36.19-.57.02-.3-.08-.66.42-.67.17,0,.13-.17.1-.27-.32-.95.04-1.77.51-2.56.08-.14.2-.27.2-.44.06-1.11.6-2.06,1.01-3.04.54-1.29,1.12-2.57,1.73-3.83.64-1.35,1.21-2.74,1.98-4.04.18-.31.44-.57.62-.88.31-.53.78-.97.79-1.64,0-.17.11-.34.32-.44Z"/>
      <path class="cls-7" d="m146.27,146.84c-.16.36-.38.66-.21,1.05.02.05,0,.14-.03.18-.78.83-1.36,1.79-1.89,2.78-.37.68-.73,1.36-1.03,2.08-.39.94-.91,1.83-1.3,2.78-.37.91-.87,1.78-1.04,2.76-.05.25-.33.25-.42.51-.13.42-.31.85-.3,1.27.01.66-.41,1.11-.65,1.65-.27.6-.43,1.17-.14,1.8.02.04.03.1.02.14-.02.17.09.38-.1.5-.19.12-.24-.19-.43-.18-.15.32.07.67-.04,1-.06.17-.08.31-.29.31-.3,0-.35.2-.41.44-.15.59-.13,1.23-.4,1.8-.04.09-.08.19-.07.28.1,1.18-.5,2.26-.55,3.39-.07,1.36-.3,2.73-.13,4.1.02.17,0,.32,0,.48.01.16-.24.48.23.49.06,0,.14.47-.09.64-.33.25-.28.57-.24.89.15,1,.28,2,.48,2.99.1.49.24,1,.82,1.2.26.09.37.39.6.56.12.08.14.38-.14.47-.2.06-.38.16-.24.37.1.14.14.51.48.29.13-.08.25-.06.34.07.11.16.05.28-.08.38-.24.17-.23.28.06.39.33.11.24.54.55.73.69.42.94,1.28,1.59,1.76.67.49,1.27,1.08,2.09,1.35.4.13.62.52,1.03.69,1.57.64,3.13,1.3,4.81,1.62.24.05.49.05.73.05.76.02,1.17.45,1.02,1.19-.14.69,0,1.32.15,1.97.1.45.13.87.59,1.14.17.1.19.32.12.53-.12.4-.1.76.42.85.19.04.27.17.32.38-.26.04-.53.04-.84.04-.12-.49-.4-.91-.56-1.37-.39-1.14-.58-2.31-.55-3.51.02-.72,0-.68-.71-.89-.48-.15-1.01-.02-1.44-.25-.69-.35-1.45-.46-2.16-.72-1.62-.6-3.15-1.36-4.56-2.34-.66-.46-1.2-1.09-1.79-1.66-.87-.84-1.47-1.87-1.99-2.95-.72-1.51-1.26-3.08-1.33-4.78-.07-1.7-.04-3.4.03-5.09.05-1.34.28-2.66.48-3.99.18-1.17.35-2.33.67-3.46.37-1.35.77-2.69,1.27-4,.54-1.4,1.05-2.82,1.61-4.21.33-.82.73-1.6,1.11-2.4.41-.89.86-1.76,1.24-2.66.42-1.03.91-2.02,1.42-3,.25-.48.42-.99.68-1.46.22-.4.49-.77.76-1.14.23-.31.35-.62.17-1-.17-.35-.18-.73-.21-1.15.31.54.43,1.18.5,1.87Z"/>
      <path class="cls-2" d="m51.75,185.15c-.02.14-.02.25-.02.39,0,.15.01.27-.07.4-.02.13-.03.24-.03.38-.09.14-.03.26-.07.4-.17,1.21-.34,2.39-.32,3.63.18.55.14,1.06.03,1.57-.06.29-.11.54.04.84.16.3.07.69-.09.98-.3.53-.32,1.09-.27,1.66.05.52.06,1.04-.19,1.56-.1.03-.17.03-.28.03.12-1.14.1-2.28.18-3.42.19-2.53.42-5.05.8-7.56.17-1.12.28-2.24.31-3.37,0-.18.03-.36.07-.57.24.9.02,1.82-.09,2.78.03.11.02.18,0,.29Z"/>
      <path class="cls-1" d="m50.78,197.01c.14-.94-.17-1.89.05-2.82.04-.18.05-.35.22-.47.01,0,.03-.02.04-.03.41-.24-.32-.4-.07-.55.3-.17.35-.23.02-.41-.17-.09-.1-.3-.05-.45.22-.58.29-1.17.25-1.83.14-.02.25.02.26.19.06,1.47.05,2.93-.06,4.4-.01.18-.1.3-.17.45-.1.23-.19.45.05.67.21.21.09.5.12.8-.2.04-.4.04-.65.04Z"/>
      <path class="cls-15" d="m74.29,168.08c-.07-.05-.11-.08-.18-.12-.28-.43-.63-.77-.97-1.11-.17-.17-.33-.38-.39-.62-.08-.29-.16-.56-.42-.75-.09-.07-.15-.18-.16-.3-.06-.54-.2-1.06-.35-1.57-.27-.9,0-1.79-.04-2.69-.05-1.02.35-1.94.59-2.89.08-.3.18-.55-.04-.82-.07-.09-.11-.23,0-.32.48-.41.46-1.09.83-1.54.38-.45.59-1,.95-1.43.25-.29.58-.5.72-.9.07-.2.42-.12.48-.3.24-.72.84-1.03,1.41-1.41.23-.16.42-.37.5-.69.07-.28.42-.34.67-.45.27-.12.52-.27.72-.49.15-.17.13-.29-.1-.35-.44-.12-.9-.15-1.35-.19-.21-.02-.42-.02-.64-.05-1.57-.21-3.05-.73-4.57-1.14-.9-.24-1.85-.35-2.77-.55-1.34-.3-2.7-.51-3.99-.99-.35-.13-.74-.14-1.13-.29-.04,0-.04-.01-.04,0-.26-.33-.7-.19-1.06-.37-.06,0-.08,0-.14,0-.36-.16-.73-.2-1.11-.29-.07,0-.12,0-.19-.01-.04-.02-.06-.03-.11-.04-.07,0-.11,0-.17-.02-.11-.03-.19-.02-.28-.07,0-.03-.03-.02-.04-.03-1.07-.23-2.09-.65-3.16-.81-.23-.04-.45-.04-.68-.01-.51.08-1.01.02-1.48-.3-.08-.04-.13-.07-.2-.11-.06-.07-.11-.12-.17-.2-.02-.03-.03-.03-.03-.03-.1-.11-.05-.24-.06-.37,0-.15-.03-.19-.19-.2-.1-.1-.17-.18-.26-.28-.02-.04-.03-.06-.07-.09-.45-.21-.73-.55-.87-.98-.42-1.29-1.27-2.35-1.94-3.5-.87-1.5-1.75-2.99-2.29-4.65-.26-.82-.8-1.5-1.15-2.27-.39-.83-.75-1.67-1.05-2.58-.5-.58-.3-1.28-.42-1.91-.06-.3-.04-.62-.23-.89-.11-.16-.08-.34-.09-.53-.01-.36.02-.72-.03-1.08-.07-.56.05-.75.61-1.03-.25-.09-.39-.24-.37-.49.01-.22.04-.44.17-.61.24-.3.2-.65.09-.93-.22-.55-.14-1.14-.31-1.68-.1-.32.26-.58.04-.92-.03-.13-.03-.24-.03-.38.12-.15.12-.3.14-.45.12-1.08.23-2.18.28-3.26.04-.84.13-1.63.39-2.42.09-.26,0-.55-.13-.81-.17-.37-.17-.72.09-1.07.2-.27.29-.57.2-.93-.07-.3-.04-.62,0-.93.13-.86-.05-1.73,0-2.57.05-.74-.33-1.48.03-2.21.09-.19.04-.46.01-.68-.06-.42,0-.81.25-1.16.15-.21.1-.47.12-.72.1-.99-.18-1.95-.17-2.94,0-.53-.02-1.08.39-1.52.11-.12.18-.32,0-.52-.05-.04-.07-.06-.11-.11-.18-.85,0-1.66.08-2.47.08-.81.16-1.61.22-2.42.05-.78.04-1.57.34-2.34.34-.9.63-1.82.64-2.81.01-.88.38-1.71.61-2.56.14-.52.33-1.02.51-1.57.02-.03.02-.03.02-.03.46-.92.92-1.83,1.36-2.76.08-.18.15-.35.29-.5.14-.15.28-.34.29-.56.04-.72.43-1.24.98-1.63.6-.43.87-1.15,1.46-1.58.34-.25.65-.55,1.02-.77.13-.08.23-.17.29-.31.15-.32.39-.52.74-.58.13-.02.25-.07.35-.16.52-.5,1.02-1.01,1.56-1.52.04-.1.08-.16.16-.23.67-.32,1.18-.81,1.76-1.2.82-.56,1.67-1.1,2.49-1.67.85-.59,1.62-1.27,2.4-1.94.3-.26.69-.4.95-.75.06-.05.1-.08.18-.11.25-.04.48-.06.65-.28.26-.32.6-.38.94-.43.28-.04.55-.09.76-.36.04-.04.06-.06.12-.09.84-.13,1.61-.42,2.43-.62.07-.04.12-.06.2-.07.16,0,.29,0,.43-.09.1-.03.17-.04.28-.03.49.06.92-.03,1.36-.17.51-.16,1.03-.28,1.61-.35.48-.01.92-.04,1.4-.01.09,0,.14,0,.23,0,.15.02.27.05.43,0,.11-.01.18-.01.29,0,.46.12.9.12,1.34.15.03,0,.07,0,.1,0,.51-.31,1.08-.28,1.68-.29.27-.02.5-.02.78-.02.25.06.45.13.65.22.55.25,1.07.27,1.65.03.74-.3,1.53-.06,2.28.03,1.11.13,2.2.3,3.32.13.15-.02.29.03.44.06.31.06.61.13.91-.03.09-.05.2-.06.29-.02.5.21,1.03.13,1.56.24-.14-.2-.13-.4.06-.52.43-.27.88-.53,1.43-.3.15.07.3.12.47.04.37-.18.5.07.61.35.12.32-.04.46-.34.51.53-.09,1.06-.13,1.47-.57.2-.22.5-.32.81-.3.63.05,1.24-.06,1.85-.18.28-.06.55-.08.83-.05.84.06,1.69.06,2.53.08.65.02,1.31.07,1.93.3.36.13.73.22,1.11.18.42-.05.74.18,1.13.33.11.01.18.03.27.09.15.14.17.36.44.35.22.04.4.1.58.25.05.07.07.11.09.19q-.01.71.65.76c.29.03.43.17.31.46-.09.19-.01.3.13.42,1.08.92,2.08,1.96,3.36,2.6.7.35,1.23.95,1.98,1.2.84.28,1.45.93,2.24,1.3.78.36,1.55.77,2.29,1.22.57.35,1.22.55,1.85.8.18.07.35.05.52-.02.63-.22.79-.13.94.61.11-.18.19-.38.42-.29.18.07.15.23.14.38-.02.3.13.48.4.61.28.14.36-.07.51-.22.21-.21.41-.14.49.16.16.57.6.8,1.11.96.09.03.2.03.27.1.72.67,1.66.85,2.53,1.2.67.27,1.3.66,1.99.91.23.08.25.32.14.56.17-.17.35-.26.59-.29.48-.07.87-.29,1.03-.79.07-.23.23-.35.43-.44.14-.07.33-.08.37-.33.15-.18.34-.26.5-.2.56.2,1.18.3,1.59.8.54.66,1,1.38,1.5,2.06.38.52.71,1.09,1.1,1.6.23.3.43.61.58.96.16.39.59.59.8.97.55.97,1.24,1.85,1.89,2.74.71.97,1.27,2.01,1.86,3.04.37.65.66,1.34.96,2.02.25.55.51,1.09.83,1.65.06.07.09.12.13.19.24.57.71.97.9,1.58.13.52.26,1.01.66,1.37.05.05.08.11.07.17-.11.72.39,1.21.67,1.79.05.1.15.19.16.3.09,1.06.78,1.89,1.06,2.87.04.14.13.26.27.33.17.09.28.06.31-.15,0-.06,0-.13,0-.2.01-.18,0-.38.24-.42.27-.05.32.17.4.38.02.18-.14.38.18.44.12.04.18.11.26.2.02.02.03.02.03.02.2.55.53,1.04.76,1.58.18.41.29.86.56,1.23.05.06.08.18.04.23-.34.35-.1.82-.25,1.2-.11.27,0,.44.25.46.83.09,1.07.73,1.35,1.36.26.58.43,1.19.74,1.78.05.07.08.12.11.2,0,.22.09.39.18.59.03.02.02.02.02.02.18.52.37,1.04.67,1.55.03.02.02.03.02.03.06.11.12.23.2.33.28.34.26.68-.04,1.05,0,0,.12.06.07.02-.02-.02-.01-.02.01-.04.45-.3.56.17.81.39.05.11.08.18.12.29.22.38.06.66-.19.9-.24.22-.36.49-.48.78-.22.51-.55.96-1.09,1.21-.23.11-.49.13-.29.57.15.33-.39.5-.59.76-.13.16-.33.21-.54.12-.19-.08-.16-.31-.26-.46-.17.13-.15.28-.05.42.2.26.09.45-.13.63-.06.05-.12.12-.19.15-.52.25-.99.56-1.47.93-.11.04-.21.04-.29.13-.03.06-.04.08-.09.11-1.03.99-2.09,1.92-3.17,2.82-.76.63-1.53,1.24-2.3,1.85-.16.12-.29.26-.45.43-.02.03-.06.04-.07.04-.18.07-.29.2-.42.35-.02.02-.02.03-.02.03-.52.36-1.11.63-1.55,1.16-.02.03-.03.02-.03.03-.01.02-.03.04-.06.08-.03.05-.05.06-.09.09-.14.02-.25.08-.39.07-.22.09-.54-.09-.59.31-.04.21-.12.36-.36.39-.31-.18-.35-.58-.7-.71.03.32.29.42.51.59.14.43-.28.31-.44.49-.07.08-.11.13-.16.22-.11.15-.24.21-.42.25-.36.02-.73-.18-.96.19.04.03.06.04.1.07.04.04.05.06.07.11.02.1,0,.17-.07.25-.08.06-.14.09-.23.12-.05.01-.07.02-.12.03-.11.02-.15.07-.18.18-.17.2-.31.4-.61.38-.16-.06-.13-.32-.31-.26-.16.06-.05.21-.04.36-.15.39-.52.45-.82.66-.1.06-.18.09-.27.17-.19.13-.38.18-.6.19-.07-.01-.09-.06-.13-.06-.03,0-.03.04,0,.1-.22.58-.81.66-1.23.93-.95.62-2.04,1-2.9,1.77-.28.25-.64.39-.97.64-.09.08-.17.11-.23.22-.05.06-.08.09-.14.14-.08.05-.15.07-.23.11-.15.05-.27.1-.41.18-.38.06-.67.22-.96.42-.75.53-1.64.78-2.44,1.21-.53.28-1.12.44-1.56.89-.09.09-.24.09-.36.1.21,0,.42,0,.27.35-.06.06-.09.08-.16.12-.13.04-.15.11-.15.24-.22.37-.59.44-.98.52-.07-.01-.1-.07-.14-.06-.03,0-.03.04.02.09-.03.26-.21.35-.39.43-1.21.52-2.35,1.19-3.56,1.71-.86.37-1.7.79-2.55,1.16-.97.42-1.93.87-2.95,1.27-.08.04-.12.06-.19.1-.1.05-.16.09-.27.12-1.18.39-2.28.88-3.42,1.27-.78.27-1.58.52-2.37.76-1.31.41-2.59.91-3.93,1.21-1.24.28-2.42.79-3.67,1.02-1.01.19-2.01.42-3.01.65-.89.2-1.79.32-2.67.57-.37.11-.75-.06-1.1.14-.16.09-.3.16-.09.38.43.43.88.79,1.04,1.38.04.14.15.27.02.41-.11.1-.24.08-.37.03-.84-.27-1.7-.46-2.51-.82-.13-.06-.26-.14-.41,0-.14.13-.08.25-.05.4.18.83.5,1.62.75,2.43.28.9.7,1.73,1.04,2.6.37.95.99,1.76,1.61,2.6.05.04.07.05.11.09.37,1.06,1.11,1.85,1.65,2.77.09.15.24.26.42.38.48.53.92,1.06,1.34,1.61.27.35.65.58,1.1.71.76.23,1.48.61,2.32.53.55-.06,1.1-.18,1.64-.27.37-.06.66-.41.97-.7.04-.07.07-.11.11-.17.05-.06.08-.09.13-.15.12-.13.23-.22.38-.31.08-.06.15-.11.21-.19.03-.03.04-.05.08-.07.04-.05.13-.04.06-.14-.02-.19.11-.29.16-.47.03-.05.04-.07.08-.11.25-.23.39-.49.47-.82,0-.11.02-.17.05-.28.04-.08.07-.11.13-.17.94-.44,1.27.11,1.32.96.01.17-.06.35.05.55.04.19-.05.33-.08.51,0,.05-.01.07-.02.13-.01.05-.02.07-.03.13-.03.09-.05.16-.08.26-.57.73-1.07,1.51-1.85,1.96-.4.23-.86.41-1.31.57-2.04.71-4.01.51-5.93-.44-.25-.12-.55-.13-.78-.37-.09-.12-.13-.24-.31-.26-.19-.09-.33-.21-.45-.38-.07-.17-.13-.31-.3-.4-.04-.04-.06-.05-.09-.09-.14-.23-.25-.43-.54-.5-.05-.03-.06-.04-.1-.09-.05-.39-.42-.5-.6-.8-.03-.04-.04-.06-.06-.11-.04-.12-.05-.23-.16-.32-.04-.04-.05-.05-.09-.09-.35-.05-.57-.22-.82-.44-.45-.4-.82-.76-.94-1.42-.09-.5-.78-.8-.69-1.44-.53-.61-.6-1.4-.89-2.11-.05-.13-.11-.23-.26-.3-.07-.08-.1-.14-.14-.25-.02-.13-.08-.21-.14-.32-.23-.67-.37-1.34-.6-2.01-.01-.14-.01-.25-.11-.36-.15-.15-.2-.31-.22-.51-.02-.07-.04-.1-.07-.16-.03-.04-.05-.05-.08-.08-.02-.02-.02-.02-.02-.02-.14-.2-.01-.54-.38-.63-.07.02-.1.04-.14.09-.03.06-.05.1-.08.16-.07.12-.09.22-.09.37-.58,1.57-1.14,3.12-1.91,4.58-.2.37-.41.74-.62,1.11-.5.87-.84,1.79-1.12,2.75-.02.07-.05.12-.13.19-.53.35-.6.88-.66,1.39-.11.95-.32,1.86-.61,2.76-.18.55-.26,1.12-.33,1.68-.14,1.04-.33,2.07-.56,3.08-.18.8.07,1.56-.03,2.38,0,.09-.01.14-.04.22-.38.16-.09.41-.13.63-.02.05-.04.08-.07.12-.24.17-.38.36-.42.61-.12.67-.33,1.32-.37,2.01-.03.58-.34,1.11-.36,1.71-.03.67-.16,1.33-.14,2,.02.7-.08,1.39-.19,2.1.04.05.05.07.08.12-.17.54-.15,1.1-.45,1.58-.22.36-.34.77-.51,1.2-.1.13-.15.26-.25.35-.27.24-.61.26-.92.17-.28-.09-.21-.39-.26-.63-.14-.69-.01-1.38.12-2.04.12-.61.29-1.23.48-1.84.16-.52.3-1.02.19-1.57-.02-.1-.01-.2.04-.29.31-.56.3-1.21.54-1.78.03-.08.08-.17.05-.24-.31-.74.23-1.37.27-2.06.04-.72.25-1.42.38-2.13.15-.82.3-1.64.44-2.46.19-1.19.44-2.37.71-3.55.18-.78.37-1.55.72-2.28.07-.14.03-.29,0-.44-.05-.22-.19-.3-.32-.08-.39.62-.99,1.08-1.36,1.73-.32.55-.7,1.07-1.32,1.36-.47.22-.67.75-1.12.99-.33.18-.6.43-.89.66-.36.29-.8.24-1.23.19-.13-.02-.23-.08-.17-.28.05-.16-.17-.12-.26-.19-.16-.13-.12.04-.15.11-.12.21-.29.17-.49.07Z"/>
      <path class="cls-8" d="m72.15,63.96c-.07,0-.12,0-.19.02-.88.16-1.7.41-2.57.62-.03.02-.04.02-.04.02-.26.23-.57.33-.89.38-.5.08-.92.31-1.34.64-.04.04-.06.06-.11.09-.08.03-.12.03-.2.04-.94.57-1.78,1.24-2.68,1.79-1.63,1-3.07,2.23-4.48,3.51-.12.11-.26.19-.41.33-.06.06-.1.09-.14.15-.7.61-1.44,1.15-2.15,1.71-.99.77-2.01,1.51-2.72,2.58-.13.2-.29.4-.59.44-.04-.48.21-.88.33-1.32.15-.55.26-1.11.37-1.66.15-.73.33-1.45.44-2.19.17-1.05.33-2.1.53-3.13.27-1.42.46-2.86.92-4.24.31-.92.45-1.9.73-2.83.3-1,.56-2.02.89-3.01.18-.53.29-1.1.45-1.64.41-1.35.71-2.72,1.17-4.06.39-1.14.67-2.31,1.01-3.46.31-1.07.68-2.13.96-3.21.45-1.75,1.13-3.42,1.64-5.15.18-.63.57-1.2.89-1.78.08-.15.15-.28.19-.45.02-.13.06-.28.21-.29.18-.01.16.18.22.28.04.07.06.15.09.21.18,0,.2-.13.24-.22.39-.8,1.32-.58,1.67-.03.59.94,1.19,1.88,1.63,2.9.17.39.4.74.6,1.11.61,1.08,1.04,2.24,1.6,3.34.53,1.04,1.06,2.1,1.47,3.18.5,1.3.99,2.61,1.51,3.9.46,1.16.87,2.34,1.36,3.49.4.93.77,1.89,1.1,2.86.32.94.66,1.87,1.04,2.79.19.44.35.88.52,1.36-.02.07-.05.1-.13.14-.1.02-.17.02-.28,0-.1-.02-.16-.04-.26-.04-.12,0-.21,0-.32.04-.13.02-.22.02-.35.03-.11,0-.19,0-.3,0-.87.07-1.63.46-2.45.59-.18.03-.36.04-.57.07-.11.02-.19.02-.3.04-.11.03-.19.04-.3.06Z"/>
      <path class="cls-19" d="m20.58,110.76c.75,1.06,1.48,2.12,1.76,3.35.25,1.1.37,2.24-.5,3.21-.25.27-.34.66-.58.96-.66.82-1.6,1.03-2.54,1.07-.81.03-1.63-.12-2.44-.23-1.43-.19-2.11-1.36-2.39-2.58-.29-1.29-.27-2.57-.07-3.84.3-1.88,1.79-3.12,3.7-2.81.27.04.55.09.86.13.43-.16.78.02,1.13.13.39.13.74.34,1.08.62Z"/>
      <path class="cls-19" d="m169.75,104.87c-.15,1.15-.24,2.28-.86,3.27-.43.71-1.09,1.12-1.82,1.43-.88.37-1.78.56-2.77.39-1.25-.22-2.21-.83-2.66-1.99-.55-1.43-.82-2.95-.46-4.48.26-1.09.78-2.05,1.73-2.74.71-.51,1.49-.55,2.3-.41.34.06.66.17,1.01.13.31-.03.6.11.83.27.77.54,1.64.97,2.19,1.84.49.7.59,1.45.51,2.28Z"/>
      <path class="cls-19" d="m178,108.24c1.01.04,1.96.2,2.88.51,1.8.6,3.11,2.69,2.84,4.56-.08.55-.43.98-.66,1.47-.4.86-.89,1.65-1.75,2.12-.7.39-1.45.57-2.22.31-.72-.24-1.47-.32-2.18-.57-1.6-.55-2.44-1.72-2.45-3.4,0-.66.04-1.31.2-1.95.25-.95.57-1.85,1.6-2.31.49-.47,1.08-.64,1.74-.75Z"/>
      <path class="cls-19" d="m29.34,107.61c.73-.46,1.35-1.03,2.13-1.37.89-.38,1.73-.25,2.57.08,1.78.69,2.54,2.07,2.6,3.89.03.93-.05,1.85-.35,2.76-.17.53-.52.9-.95,1.13-1.21.66-2.48,1.07-3.9.79-1.09-.22-1.87-.79-2.26-1.82-.4-1.06-.99-2.09-.82-3.34-.04-.1-.07-.17-.11-.27-.01-.11,0-.18.03-.28.07-.15.16-.25.17-.43.02-.05.03-.07.05-.12.42-.25.49-.72.83-1.03Z"/>
      <path class="cls-25" d="m178.02,108.2c-.55.27-1.12.51-1.71.75-.51-1.23-.73-2.51-.87-3.81-.1-.91-.12-1.83-.1-2.74,0-.11.05-.25-.09-.3-.13-.05-.2.08-.29.14-.78.56-1.57,1.12-2.45,1.57-.26-.61-.19-.75.39-1,.15-.06.42-.06.4-.29-.02-.22-.19-.36-.45-.35-.28,0-.36-.18-.35-.46-.33.24-.67.4-1.05.38-.14,0-.21-.15-.25-.31.61-.51,1.26-.92,1.99-1.28q.35.03.45.55c.15-.12.17-.4.42-.34.28.07.11.34.22.53.17-.04.4-.3.56.07-.13-.37.02-.77-.25-1.11-.04-.04-.06-.05-.1-.1-.09-.17-.22-.3-.15-.51.03-.06.05-.09.1-.11.34-.08.48.18.67.35.13.11.28.2.33-.02.14-.6.33-1.21.11-1.83-.06-.17-.15-.28-.38-.24-.88-.95-1.52-2.02-2.19-3.09-.39-.63-.69-1.26-.57-2.02.03-.19.03-.42.27-.48.21-.05.38.06.51.22.58.7,1.16,1.41,1.75,2.15.15.22.14.48.34.66.01.07-.02.11-.01.13.03.06-.02.01.06-.04.11-.04.19-.03.29.04.02.02.02.02.02.02.02.02.03.03.07.08.02.03.03.03.03.03.17.23.2.57.57.66.03.01.03.02.03.01.04.05.09.1.15.18.02.03.04.06.05.07.03.08.09.1.17.13.06.03.08.04.11.09.19.22.37.4.6.59.11.08.18.15.28.24.07.06.12.1.19.16.04.03.06.05.1.08.06.04.08.06.12.12.07.05.11.09.18.14.17.11.28.26.47.36.02.03.04.03.04.03.06.04.11.08.19.15.03.02.02.03.02.02.19.11.32.3.57.37.03.02.02.03.02.02.12.24.35.3.57.39.19.08.36.21.52.41.03.05.04.07.06.13-.11.4.07.58.34.84.33.3.82.28,1.07.66.06.08.2.14.28-.01.14-.26.29-.22.45-.02.17.22.16.46-.1.57-.54.23-1.05.62-1.73.34-.07-.01-.1-.02-.16-.03-.4-.08-.65-.42-1.05-.49-.02-.03-.04-.02-.05-.03-.07-.05-.13-.1-.21-.16-.1-.04-.17-.08-.27-.13-.08-.06-.13-.1-.22-.16-.08-.04-.13-.07-.19-.11-.07-.07-.13-.13-.22-.18-.42-.08-.63-.44-.96-.62-.25-.13-.3-.07-.35.16-.08.32-.05.65-.06.98-.06,2.28,0,4.54.71,6.78Z"/>
      <path class="cls-23" d="m28.61,108.66s0,.07-.01.08c-.15.1-.09.27-.18.41-.02.1-.02.16-.03.26-.28.31-.57.1-.81,0-.7-.3-1.4-.59-1.94-1.18-.15-.16-.44-.17-.66-.35-.02-.02-.03-.02-.03-.03-.39-.34-.74-.71-1.18-1.04-.03-.02-.03-.03-.02-.02-.04-.09-.16-.09-.24-.19-.02-.02-.04-.05-.05-.06-.37-.49-.81-.91-1.09-1.45-.12-.24-.31-.48-.68-.44-.17.02-.3-.18-.38-.35-.06-.13-.1-.28-.14-.42-.05-.14-.06-.3-.25-.33-.08-.01-.12.05-.13.12-.03.18.12.2.22.27.35.27.03.54-.04.78-.07.23-.3.14-.46.06-.3-.14-.5-.34-.48-.72.03-.59,0-1.17-.07-1.76-.06-.58-.28-.75-.84-.57-.52.16-1.08.05-1.59.27-.07.03-.2,0-.21-.08-.07-.42-.38-.17-.49-.21.07.02.3.01.27.26-.02.19-.22.15-.39.15-.07-.02-.1-.06-.14-.08,0,.03.03.04,0,.1-.39.07-.73-.13-1.11-.06-.15.03-.3-.12-.35-.3-.04-.18.05-.33.2-.41.18-.1.27-.26.37-.43.26-.47.75-.62,1.21-.74.69-.19,1.36-.42,2.02-.78.08-.05.12-.08.2-.11.7-.21,1.33-.51,1.89-.94.32-.25.6-.35,1.01-.08.34.23.76.38,1.18.47.2.04.39.16.35.4-.05.26-.26.12-.42.15-.31.05-.57-.16-.86-.11.26-.05.49.12.74.15.21.02.16.25,0,.31-.46.17-.68.66-1.17.79-.29.08-.32.55-.07.76.19.16.27.34.31.58.06.43.27.8.48,1.17.08.15.28.25.15.47-.02.04-.06.04.02.08.64.33.99.94,1.46,1.49.02.04.03.06.07.1.05.03.1.04.11.07.31.67,1.04.78,1.55,1.18.53.41,1.12.74,1.68,1.1.3.19.63.12.94.2.2.05.44-.02.54.24.09.25-.1.39-.24.55-.05.06-.11.12-.17.22Z"/>
      <path class="cls-2" d="m106.41,62.53c.3-.92.72-1.74,1.13-2.55.8-1.59,1.59-3.19,2.38-4.79,1.05-2.14,2.11-4.27,3.15-6.42,1.05-2.18,2.34-4.23,3.49-6.35.65-1.2,1.11-2.51,1.67-3.77.33-.73.62-1.48,1.04-2.17.38-.64.59-.75,1.29-.52.17.05.3.02.4-.09.36-.39.64-.17.87.14.67.86,1.19,1.81,1.52,2.84.77,2.5,1.53,5,2.18,7.54.6,2.33,1.23,4.65,1.76,7,.64,2.87,1.39,5.73,2.1,8.59.78,3.16,1.44,6.35,2.04,9.55.25,1.35.49,2.7.72,4.05.04.24.18.37.35.55.06.07.07.11.07.2-.08.19-.12.37-.35.43-.17-.13-.2-.31-.32-.48-.37-.5-.3-1.06-.35-1.58-.05-.46-.1-.91-.25-1.34-.21-.61-.12-1.27-.32-1.92,0-.14-.04-.24-.07-.37-.02-.11-.02-.19-.06-.29-.2-.38-.57-.66-.33-1.14.06-.13-.08-.18-.2-.22-.25-.07-.43-.26-.38-.5.16-.77-.29-1.43-.39-2.15-.07-.52-.18-1.03-.17-1.56.03-.92-.12-1.81-.32-2.71-.54-2.36-1.11-4.71-1.67-7.07-.44-1.85-.88-3.69-1.35-5.54-.44-1.73-.96-3.43-1.4-5.16-.42-1.65-.95-3.27-1.4-4.91-.15-.53-.32-1.11-.87-1.43-.19-.11-.19-.32-.2-.53-.02-.52-.08-.57-.6-.56-.35,0-.51-.25-.68-.49-.3-.4-.69-.47-1.03-.15-.03.05-.05.07-.09.12-.33.22-.54.49-.65.83-.38,1.17-.98,2.25-1.48,3.37-.79,1.75-1.69,3.44-2.63,5.11-1,1.79-1.96,3.6-2.76,5.49-.25.58-.6,1.13-.63,1.8,0,.1-.03.21-.12.26-.43.25-.5.71-.65,1.11-.18.48-.33.96-.7,1.33-.07.07-.14.16-.14.25-.04.79-.62,1.32-.98,1.94-.18.32-.45.61-.6.95-.38.87-.93,1.65-1.19,2.58-.08.3.1.62-.17.9-.25.1-.44.04-.64-.18Z"/>
      <path class="cls-13" d="m107.01,63.71c-.21.02-.42.09-.54-.15-.09-.16-.26-.13-.4-.11-.64.07-1.22-.18-1.82-.29-.62-.11-1.24-.2-1.9-.17-.56.02-1.16.07-1.71-.06-.81-.19-1.55.14-2.32.18-.21.01-.44.09-.63.02-.37-.14-.71.03-.88.25-.38.48-.89.46-1.39.56-.11.02-.23.02-.34.05-.15.04-.33.07-.35-.13-.02-.2.17-.2.32-.21.26-.01.63.09.34-.42-.12-.21-.13-.4-.36-.09-.13.18-.3.1-.47,0-.37-.24-1.19-.12-1.48.21-.04.04-.06.12-.05.18.03.11.12.08.2.06.14-.03.3-.02.29.15,0,.15-.18.11-.28.11-.5,0-1.12.16-1.48-.07-.5-.32-.86.25-1.29-.02-.4-.26-.84,0-1.26,0-1.4,0-2.78-.25-4.17-.39-.4-.04-.76.07-1.07.22-.71.34-1.24-.02-1.79-.35-.06-.03-.11-.07-.19-.13,1.8-.2,3.64-.21,5.47-.26,2.33-.06,4.65-.27,6.98-.45,2.3-.18,4.59-.35,6.9-.34,1.67,0,3.33.04,5,.42.04,0,.05.02.05.03.28.29.06.39-.16.49.32.16.8.15.78.73Z"/>
      <path class="cls-24" d="m18.89,99.41c-.18.32-.54.45-.87.57-.38.14-.8.17-1.16.34-.44.21-1.03.31-1.09.97-.01.14-.13.17-.25.18-.2.02-.37.1-.28.34.08.23.27.24.48.16.15-.05.23-.17.35-.27.18.12.03.6.47.38.17-.04.32.02.47-.11-.13-.18-.33-.07-.49-.12-.13-.04-.21-.13-.19-.25.02-.17.17-.13.27-.1.27.07.54.15.8-.06.05-.04.13-.03.17.03.06.09.02.16-.08.18-.15.03-.22.11-.11.23.14.15.14-.06.19-.08.2-.07.43-.13.62-.08.4.09.74-.05,1.1-.14.42-.1.66.06.72.48.08.55.13,1.1.09,1.66-.05.56.13.92.73,1.06.05-.22-.05-.51.25-.68-.33.03-.58.05-.49-.37.03-.15-.15-.38.18-.37.24,0,.47.02.51.33.03.19.06.39.13.57.06.15.17.3.34.33.53.08.77.32.96.87.08.23.29.42.45.62.1.13.25.21.27.43-.49-.28-.76-.81-1.17-1.21-.09-.09-.13-.28-.27-.25-.19.04-.13.24-.14.37-.1,1.51-.37,2.98-.84,4.42-.1.31-.25.61-.39.94-.73-.21-1.36-.65-2.17-.75.75-1.47,1.14-3.06,1.4-4.67.17-1.07.13-2.16-.07-3.23-.07-.34-.23-.45-.59-.34-1.1.31-2.22.52-3.38.45-.79-.05-.96-.56-1.01-1.24-.02-.29.23-.34.43-.38,1.25-.28,2.45-.72,3.67-1.2Z"/>
      <path class="cls-24" d="m28.63,108.68c-.08-.23.12-.33.24-.48.12-.16.13-.38-.07-.39-.26-.01-.53-.29-.8,0-.11.12-.24-.02-.35-.09-.72-.5-1.38-1.13-2.17-1.46-.55-.24-.99-.44-1.24-.99-.01-.03-.09-.04-.17-.07-.05-.1-.04-.23-.1-.28-.4-.36-.76-.75-1.08-1.19-.17-.24-.49-.07-.77-.06.06-.28.32-.18.49-.32-.44-.44-.6-1-.65-1.6-.02-.24-.22-.39-.41-.44-.34-.07-.31-.23-.16-.44.07-.1.11-.21.07-.32-.07-.21.03-.29.21-.26.31.04.53-.14.66-.34.17-.25.35-.4.66-.42-.22-.13-.43-.26-.69-.12-.14.07-.26.23-.44.1-.03-.02-.05-.11-.04-.13.14-.13.22-.33.43-.37.12-.02.25-.01.32.09.21.32.56-.13.77.15.03-.04.07-.07.07-.11,0-.09-.05-.18-.12-.19-.47-.03-.85-.31-1.29-.44-.09-.03-.21.03-.26-.09-.16-.41-.36-.2-.55-.04-.54.43-1.15.73-1.79.96-.07.03-.16.01-.26,0,.85-.49,1.75-.93,2.52-1.58.58-.49,1.11-1,1.37-1.74.15-.43.85-.56,1.23-.24.68.57.81,1.43.49,2.13-.4.87-1.05,1.53-1.84,2.07-.04.03-.09.05-.13.08-.34.23-.67.45-1.01.68.28.45.22,1.02.46,1.48,1.17,2.22,2.98,3.79,5.13,5,.59.33,1.23.45,1.94.38-.07.44-.29.81-.69,1.1Z"/>
      <path class="cls-14" d="m50.6,81.97c-.12.82-.41,1.61-.63,2.42-.17.64-.39,1.28-.41,1.95-.02.6-.21,1.18-.16,1.79.02.21-.3.22-.39.45.36.13.37.2.02.44-.25.17-.4.58-.29.96.04.12.14.27.1.37-.41.99-.11,2.06-.32,3.05-.19.89-.24,1.76-.25,2.7.39.11.53.55.19.83-.29.25-.36.51-.36.84,0,.55.04,1.09.09,1.64.09,1.01.41,2.08-.3,3.03-.02.03-.06.06-.06.08.38.87-.56,1.78.08,2.64.04.05.07.14.05.18-.23.38-.04.75-.02,1.14.04.9-.13,1.82-.07,2.71.04.65.01,1.19-.45,1.67-.09.09-.05.29.04.42.52.72.23,1.41-.11,2.08-.09.18-.22.37-.14.54.23.49.15.94,0,1.45-.23.83-.18,1.71-.22,2.56,0,.18.09.42-.24.49.03-1.19.11-2.38.18-3.57.05-.77.11-1.53.15-2.3.15-2.75.32-5.49.41-8.24.04-1.29.11-2.58.18-3.87.17-2.79.26-5.59.66-8.36.13-.87-.03-1.77.21-2.63.18-.63.32-1.27.61-1.87.13-.28.17-.6.18-.91.05-1.65.61-3.16,1.25-4.68Z"/>
      <path class="cls-2" d="m54.41,162.21c-.1.11-.16.1-.21,0-.03-.05-.04-.13-.14-.11-.13.16,0,.32.04.45.11.3.29.56-.13.77-.07.04-.06.15,0,.22.48.56.1,1.03-.16,1.5-.14.25-.26.54-.25.78.03.48-.24.92-.02,1.46.17.42.28,1.06-.17,1.52-.02.02-.05.06-.04.09.16.62-.08,1.21-.18,1.81-.06.39-.1.79-.17,1.18-.22,1.24-.27,2.49-.42,3.73-.08.7-.16,1.4-.25,2.1-.02.12-.05.22-.19.3-.12-.86.09-1.71.17-2.57.22-2.48.49-4.96.75-7.43.24-2.26.48-4.53.73-6.79.44-3.99.89-7.98,1.32-11.96.18-1.61.33-3.22.49-4.87.22-.19.34-.06.44.16-.21.14-.26.31-.26.52,0,.64.04,1.29-.19,1.92-.15.42-.21.89.03,1.33.05.09.01.27-.05.37-.46.75-.32,1.59-.38,2.4-.02.31,0,.62,0,.98.09.7.13,1.35-.22,1.99-.02.15-.03.26-.03.41-.19,1.01-.18,2.01-.37,3.02.05.3-.02.55-.03.85.07,1.03-.35,1.95-.34,2.96,0,.12.02.19.12.26.08.22.23.4.1.66Z"/>
      <path class="cls-14" d="m132.45,76.34c.02-.08.03-.11.05-.16.57-.35,1.11-.25,1.63.06.2.12.39.2.63.22.56.06.93.44,1.26.86,1.76,2.2,3.25,4.57,4.69,6.98,1.33,2.22,2.48,4.52,3.52,6.89.11.25.33.45.36.78-.14.02-.24-.06-.3-.19-.32-.69-.61-1.41-.97-2.08-.36-.67-.57-1.4-1.09-1.99-.3-.34-.41-.85-.67-1.26-.11-.18-.28-.31-.38-.48-.56-.89-1.19-1.73-1.79-2.58-.25-.36-.48-.73-.72-1.1,0-.01,0-.04-.02-.04-.79-.35-.89-1.25-1.37-1.85-.49-.61-.98-1.3-1.38-2.01-.24-.42-.55-.82-.86-1.19-.52-.61-1.17-.94-2.03-.85-.21.17-.38.23-.57,0Z"/>
      <path class="cls-23" d="m171.15,101.75c.48.43.82.05,1.2-.13.12-.06.21-.28.36-.18.16.11-.02.25-.06.38-.09.29.13.23.28.2.13-.02.36-.09.35,0-.03.3.31.35.34.59.01.1-.08.13-.15.16-.19.08-.38.23-.58.24-.36.03-.43.19-.33.5.02.06-.04.15-.07.27-.07.07-.13.1-.23.15-.78.49-1.63.71-2.49.99-.19-.74-.27-1.5-.51-2.26.62-.32,1.23-.6,1.89-.89Z"/>
      <path class="cls-13" d="m149.43,100.32c-.05-.14-.1-.24-.17-.33-.05-.07-.13-.1-.22-.06-.09.04-.09.12-.09.21,0,.02,0,.03,0,.05.02.24.18.58-.11.67-.39.11-.69-.18-.81-.55-.2-.67-.51-1.29-.82-1.91-.04-.07-.08-.15-.08-.23,0-.81-.57-1.37-.86-2.06-.1-.25-.31-.48-.08-.77.02-.02,0-.1-.03-.12-.55-.29-.53-.86-.68-1.39.17-.11.28,0,.35.13.14.24.36.39.59.6.72.86,1.17,1.84,1.7,2.77.37.67.71,1.36,1.11,2.01.19.32.22.67.39,1.02-.07.09-.13.08-.19-.03Z"/>
      <path class="cls-24" d="m181.03,102.22c.11-.11.22-.35.41-.09.09.13.18.06.29,0,.25-.12.51-.24.77-.31.48-.13.43-.33.11-.6-.12.12.13.4-.17.42-.25.02-.44-.14-.6-.32-.05-.05-.06-.14-.09-.22-.51.38-.57-.26-.86-.38-.47-.19-.53-.44-.25-.91-.31-.18-.48-.66-.97-.43-.09.04-.08-.27-.09-.46.45.2.9.43,1.34.67.49.27,1.02.43,1.55.6.63.19.96.76.85,1.5-.07.51-.43.74-1.14.74-.39,0-.79.04-1.16-.23Z"/>
      <path class="cls-7" d="m145.77,144.88c-.25-.11-.15-.38-.19-.59-.28-1.28-.6-2.54-.78-3.84-.18-1.33-.47-2.65-.79-3.95-.12-.49-.15-1-.3-1.48-.51-1.69-.74-3.45-1.2-5.15-.27-1.01-.44-2.05-.65-3.07-.03-.15-.09-.28-.18-.44-.02-.08,0-.11.06-.15.02-.02.02-.02.02-.02.02-.01.04-.02.08-.01.47,1.44.63,2.94,1.02,4.37.32,1.17.53,2.35.83,3.52.35,1.41.62,2.84.92,4.27.28,1.36.57,2.72.82,4.08.15.8.24,1.62.35,2.47Z"/>
      <path class="cls-14" d="m150.1,119.13c.5-.59,1.24-.78,1.79-1.25.15-.12.17-.18.02-.33-.22-.2-.12-.73.14-.85.23-.11.22.08.24.23.02.16-.09.41.15.46.22.05.4-.08.48-.31.08-.23.43-.15.49-.46-.08-.13-.42.09-.37-.18.04-.22.25-.41.45-.47.76-.24,1.13-.78,1.33-1.51.05-.17.15-.3.32-.42.25-.18.46-.42.41-.82.37.34.32.89.07,1.15-.49.51-.72,1.15-1.09,1.72-.5.76-1.22,1.32-1.97,1.81-.76.5-1.47,1.09-2.39,1.37-.07-.02-.09-.06-.06-.13Z"/>
      <path class="cls-14" d="m53.58,76.31c.65-.48.98-1.2,1.57-1.72,1.23-1.09,2.51-2.09,3.9-3.01.05.09.05.2-.04.26-.63.4-1.06,1.01-1.59,1.51-.07.07-.15.13-.26.09-.31-.13-.57.13-.6.28-.13.63-.76.68-1.12,1.04-.37.36-.81.65-1.08,1.11-.15.25-.37.43-.61.62-.54.42-1.04.9-1,1.68,0,.11,0,.18-.08.26-.82.9-1.08,2.12-1.74,3.11-.09.13.18.48-.27.41-.02-.43.23-.77.4-1.14.39-.79.8-1.58,1.2-2.36.05-.11.1-.21.02-.32-.27-.35-.07-.63.17-.85.36-.33.74-.63,1.13-.98Z"/>
      <path class="cls-14" d="m46.71,118.84c.31-.03.36.18.24.36-.19.26-.12.48-.06.74.14.65.24,1.3.37,1.95.04.18,0,.3-.12.44-.22.26-.27.58-.22.91.23.05.13-.22.27-.23.18.51.16.57-.28.72-.32.1-.24.39-.29.61-.02.1.05.22.07.33.06.56-.02,1.11.26,1.68.24.49.21,1.16.18,1.74-.01.28.16.45.16.73-.35-.17-.5-.5-.58-.88-.35-1.72-.35-3.44-.23-5.18.06-.88.01-1.77.11-2.65.05-.4.03-.82.12-1.26Z"/>
      <path class="cls-13" d="m153.39,108.71c-.44-.18-.44-.66-.56-1.03-.2-.58-.57-1.08-.78-1.64-.04-.1-.15-.12-.25-.14-.18-.03-.38-.03-.52-.12-.24-.15-.89-.12-.38-.7.06-.06.1-.21.06-.28-.21-.37-.15-.64.21-.89.13-.09-.01-.31-.16-.41-.23-.15-.28-.37-.3-.63-.03-.42-.33-.73-.51-1.09-.13-.26-.3-.51-.27-.86.3.17.4.52.54.82,1.01,2.21,1.99,4.43,2.85,6.7.03.08.04.16.07.27Z"/>
      <path class="cls-24" d="m174.53,100.11c.22,0,.27.12.33.3.09.29,0,.6.17.88.06.1.05.32-.15.35-.3.04-.16-.3-.29-.41-.21.07-.08.39-.33.38-.13,0-.2-.26-.23-.81-.2.02-.15.18-.17.3-.03.17-.12.27-.3.25-.22-.02-.2-.19-.15-.33.07-.21.05-.38-.17-.52.23-.42.67-.63,1.07-.92.1.14.17.29.24.47-.03.07-.07.11-.08.16.01-.03.03-.05.06-.1Z"/>
      <path class="cls-18" d="m143.96,124.52c.01-.43.39-.58.67-.8.08-.06.22-.07.25-.14.24-.5.82-.6,1.13-1.02.2-.26.56-.35.82-.59.96-.87,1.96-1.7,2.97-2.55-.27.54-.76.91-1.2,1.32-1.41,1.31-2.97,2.46-4.45,3.69-.05.04-.11.06-.2.1Z"/>
      <path class="cls-21" d="m56.05,144.58c-.09-.2-.23-.25-.44-.25-.04-.05-.05-.09-.06-.17.37.03.75.2,1.1.14,1.26-.22,2.35.29,3.48.67.24.08.52.07.75.27-1.11-.11-2.19-.44-3.3-.65-.3-.06-.59-.14-.87.1-.21.18-.43.03-.67-.1Z"/>
      <path class="cls-24" d="m175.13,97.77c.23-.04.06-.28.19-.38.6.55.51,1.25.38,1.92-.05.25,0,.52-.17.75-.14.19-.26.31-.43.04-.15-.24-.38-.4-.62-.59.21-.25.43-.53.7-.71.38-.25.43-.48.1-.79-.06-.05-.08-.14-.14-.24Z"/>
      <path class="cls-13" d="m81.13,63.05c-.16.19-.34.35-.63.13-.11-.08-.33-.08-.4.05-.24.4-.61.32-.95.3-.35-.02-.7-.11-1.09-.18-.04-.2.1-.19.23-.2.19-.02.38.03.59-.07.76,0,1.49-.19,2.26-.02Z"/>
      <path class="cls-24" d="m24.96,107.89q.49.1.65-.03c.64.99,1.61,1.4,2.73,1.59.03.05.03.12.03.21-1.32-.21-2.4-.9-3.41-1.78Z"/>
      <path class="cls-14" d="m146.46,94.54c-.51.03-.63-.43-.93-.74-.34-.43-.45-.97-.86-1.32-.06-.06-.05-.15.02-.25.65.71,1.26,1.46,1.77,2.31Z"/>
      <path class="cls-13" d="m155.46,112.87c-.16.01-.25-.07-.33-.19-.17-.28-.41-.19-.76-.04.34-.55.2-1-.01-1.49.56.42.82,1.07,1.1,1.72Z"/>
      <path class="cls-2" d="m51.98,179.2c.02.82.13,1.67-.07,2.53-.06-.82-.09-1.66.07-2.53Z"/>
      <path class="cls-18" d="m141.89,126.09c-.06-.27,0-.45.32-.51.25-.05.46-.24.63-.43.14-.15.29-.26.54-.24-.37.51-.99.74-1.5,1.18Z"/>
      <path class="cls-16" d="m78.86,63.06c-.16.33-.52.1-.81.26-.1.02-.17.02-.28.02-.12-.06-.2.01-.31,0-.07,0-.11,0-.19,0-.09-.05-.11-.12-.06-.23.07-.03.11-.04.19-.05.49,0,.96,0,1.46,0Z"/>
      <path class="cls-24" d="m23.74,106.84c.56.09.84.56,1.19.98-.47-.2-.81-.59-1.19-.98Z"/>
      <path class="cls-24" d="m175.28,95.36c-.42-.12-.37-.42-.34-.75.33.11.47.42.68.71-.1.03-.2.03-.35.03Z"/>
      <path class="cls-13" d="m154.37,111.07c-.51-.33-.56-.92-.69-1.5.33.41.47.96.69,1.5Z"/>
      <path class="cls-24" d="m176.32,96.11c-.05.14-.11.26-.21.45-.05-.42-.39-.64-.38-1.05.25.11.42.34.59.6Z"/>
      <path class="cls-24" d="m179.83,101.68c.42-.09.66.27,1.01.45-.38.01-.67-.24-1.01-.45Z"/>
      <path class="cls-20" d="m149.4,100.29c.08.02.13.05.2.09.03,0,.04.04.04.06.05.1.07.18.02.3-.44-.04-.48-.12-.26-.45Z"/>
      <path class="cls-24" d="m179.57,98.86c-.36.24-.41-.11-.57-.33.24-.02.38.16.57.33Z"/>
      <path class="cls-24" d="m177.43,97.18c-.32,0-.47-.23-.6-.52.25.07.42.28.6.52Z"/>
      <path class="cls-13" d="m153.68,109.5c-.28-.05-.29-.26-.23-.52.18.11.22.29.23.52Z"/>
      <path class="cls-21" d="m54.91,143.25c.6-.13.14.33.27.52-.09-.14-.18-.31-.27-.52Z"/>
      <path class="cls-24" d="m178.75,98.29c-.2.02-.36-.07-.45-.3.21-.04.31.15.45.3Z"/>
      <path class="cls-18" d="m143.46,124.9c-.05-.24.1-.34.35-.37-.03.18-.14.3-.35.37Z"/>
      <path class="cls-13" d="m149.66,100.79c-.03-.09-.03-.17-.02-.29.18,0,.28.12.28.34-.08.01-.15-.01-.26-.05Z"/>
      <path class="cls-2" d="m52.02,178.62c.04.06.07.13.1.24-.02.05-.03.07-.07.06-.08-.11-.08-.19-.03-.3Z"/>
      <path class="cls-24" d="m23.48,106.62c.11-.02.19.03.25.16-.1.02-.19-.02-.25-.16Z"/>
      <path class="cls-24" d="m177.89,97.6c-.07.02-.14,0-.18-.11.08-.03.13.01.18.11Z"/>
      <path class="cls-21" d="m55.19,143.85c.08-.02.15.02.17.14-.08.02-.15-.02-.17-.14Z"/>
      <path class="cls-24" d="m178.99,98.47c-.08.03-.15,0-.2-.1.08-.03.14,0,.2.1Z"/>
      <path class="cls-24" d="m178.67,100.92c.08-.04.16-.02.21.11-.06,0-.13-.04-.21-.11Z"/>
      <path class="cls-24" d="m179.07,101.21c.08-.03.15-.02.2.1-.08.03-.14,0-.2-.1Z"/>
      <path class="cls-24" d="m179.56,101.51c.08-.03.16-.02.21.11-.06,0-.13-.04-.21-.11Z"/>
      <path class="cls-24" d="m176.5,96.32c-.08.01-.14-.03-.16-.15.08-.01.14.04.16.15Z"/>
      <path class="cls-18" d="m150.09,119.11s.03.07.04.13c-.04.04-.08.05-.15.07-.03-.08-.02-.16.11-.2Z"/>
      <path class="cls-1" d="m52.01,178.92s.06-.03.08-.03c0,.08-.01.17-.06.27-.03-.05-.03-.13-.03-.24Z"/>
      <path class="cls-24" d="m178.12,97.79s-.07-.02-.11-.07c.03,0,.07.02.11.07Z"/>
      <path class="cls-24" d="m176.71,96.51s-.09-.02-.16-.07c.04,0,.09.02.16.07Z"/>
      <path class="cls-25" d="m172.23,103.95s0-.01,0-.01c0,0,0,.02,0,.01Z"/>
      <path class="cls-24" d="m175.72,95.44s-.05-.01-.07-.06c.03-.02.05,0,.07.06Z"/>
      <path class="cls-21" d="m54.58,142.88s.04,0,.06.04c-.02.01-.04,0-.06-.04Z"/>
      <path class="cls-18" d="m141.85,126.17s-.03.02-.08.02c-.01-.03,0-.06.06-.08.02,0,.02.02.02.07Z"/>
      <path class="cls-17" d="m93.42,158.16c-.5-.02-.56-.51-.78-.79-.75-.93-1.16-2.06-1.62-3.17-.53-1.27-.92-2.58-1.32-3.89-.09-.29.15-.33.25-.47.14-.2.3-.08.47.01.87.47,1.86.59,2.81.97-.19-.7-.56-1.19-1.03-1.66.02-.33.19-.32.41-.25.82.25,1.64.5,2.49.8.05.03.07.03.12.03.13.09.19.22.33.26.99.24,1.76.95,2.71,1.27.34.11.54.47.93.59.03.02.02.02.02.02.75.56,1.59,1,2.35,1.55.59.43,1.24.78,1.6,1.47.05.09.12.15.21.2.99.59,1.62,1.46,2,2.52.08.23.31.32.43.52.47.8.82,1.62.84,2.6.02.07.02.12,0,.19-.14.39-.03.85-.51,1.04-.27-.2-.41-.35-.21-.7.17-.3-.14-.63-.29-.88-.12-.2-.49-.09-.79-.02-.23-.1-.14-.34-.27-.51-.04-.07-.05-.12-.06-.19-.03-.35-.11-.64-.33-.92-.04-.03-.06-.05-.1-.09-.05-.06-.07-.1-.11-.16-.03-.05-.04-.07-.06-.12-.09-.26-.22-.45-.43-.63-.04-.03-.06-.05-.1-.09-.1-.18-.17-.35-.36-.46-.04-.04-.05-.06-.08-.1-.09-.24-.22-.41-.45-.54-.05-.03-.06-.04-.11-.08-.1-.17-.24-.23-.4-.33-.05-.03-.06-.05-.1-.09-.31-.46-.76-.66-1.24-.89-.05-.03-.07-.04-.12-.07-.18-.26-.39-.41-.69-.5-.06,0-.08-.01-.14-.02-.08-.02-.12-.03-.2-.05-.38-.14-.66-.36-.96-.56-1.86-1.26-3.85-2.23-6.01-2.87-.75-.22-1.49-.5-2.27-.69.5,2.04,1.09,4.01,2.21,5.77.32.5.55,1.05.87,1.54.08.12.14.26.08.45Z"/>
      <path class="cls-21" d="m74.27,168.09c.13-.04.27-.05.41-.06.02-.15-.09-.2-.13-.28-.04-.08-.07-.15,0-.22.07-.07.18-.06.22,0,.21.36.6.31.95.38-.1.21-.31.15-.41.28.84.18.98.13,1.58-.61.04-.06.09-.11.16-.08.5.19.33-.15.25-.36.23-.1.21.14.35.18.02-.03.06-.06.06-.1.06-.37.38-.56.63-.69.71-.38,1.13-.98,1.58-1.62.4-.57.94-1.04,1.29-1.66.1-.17.3-.16.43-.04.16.14.1.37.16.55.07.2-.04.28-.14.44-.28.45-.5.99-.54,1.5-.05.64-.32,1.22-.4,1.85-.09.79-.29,1.56-.42,2.35-.19,1.15-.37,2.31-.62,3.45-.12.56-.05,1.25-.27,1.7-.28.58,0,1.11-.2,1.62-.24.62-.2,1.33-.6,1.89-.02.03-.05.08-.04.08.47.38-.13.78.04,1.17.13.33-.25.5-.29.8-.06.46-.24.92-.32,1.34-.1.57-.38,1.19-.14,1.8.05.14,0,.25,0,.38,0,.22-.12.57.16.59.25.02.65.12.82-.27.02-.05.08-.09.16-.15.19-.06.34-.07.5.06-.06.35-.1.68-.22.98-.25.6-.95.69-1.27.13-.17-.3-.37-.57-.57-.84-.34-.47-.33-1.02-.25-1.56.23-1.69.62-3.34,1-5,.63-2.69,1.22-5.39,1.81-8.09.45-2.06.78-4.15,1.47-6.15.03-.08.06-.15-.05-.31-.44.51-.92.96-1.25,1.54-.81,1.47-2.03,2.52-3.51,3.25-.79.39-1.61.42-2.37-.22Z"/>
      <path class="cls-17" d="m64.03,146.14c.63-.09,1.21.2,1.82.36,1.35.36,2.72.65,4.11.88,1.1.19,2.19.47,3.26.83.44.15.89.19,1.35.19.14,0,.3.07.4.15.67.54,1.49.36,2.24.48.53.09,1.07.14,1.6.23.2.03.29.07.09.34-.37.49-.88.67-1.38.89-.22.1-.32.2-.24.44.08.24.04.4-.27.32-.03,0-.09,0-.09,0-.09.6-.73.4-1.02.72-.15.16-.18.33-.26.51-.12.28-.17.59-.62.55-.22-.02-.26.29-.21.46.1.33-.06.36-.32.37-.22,0-.7.55-.61.71.2.34-.05.43-.25.48-.3.08-.35.31-.41.55-.04.18-.01.4-.29.45-.11.02-.16.14-.12.23.21.46-.08.61-.51.69.35.37.55.67.19,1.14-.1.13-.18.55-.19.86,0,.03.01.08,0,.1-.53.5-.27,1.17-.33,1.75-.1.95-.27,1.92-.03,2.87.07.28.09.61.32.84.1.1.11.18.03.3-.1.14-.01.38.04.41.65.32.45,1.14.93,1.55.18.16.33.35.55.48.21.12.22.39.27.65-.96-.88-1.98-1.77-2.18-3.21-.15-1.08-.51-2.13-.58-3.23-.21-3.11.96-5.69,2.94-7.98.85-.99,1.68-2,2.69-2.85.42-.35.92-.56,1.34-.9.1-.08.27-.13.25-.28-.03-.17-.21-.12-.33-.12-.84-.05-1.67-.23-2.53-.15-.26.02-.54-.11-.8-.21-2.39-.9-4.91-1.26-7.38-1.83-1.16-.27-2.31-.59-3.47-1.02Z"/>
      <path class="cls-16" d="m141.71,126.19s0,.07-.04.12c-2.91,2.16-5.97,4.06-9.14,5.78-1.53.83-2.79,2-4.2,2.98-1.77,1.23-3.62,2.3-5.53,3.27-2.6,1.32-5.22,2.57-7.89,3.75-.72.32-1.44.62-2.2.94-.1.07-.16.06-.21-.05.06-.06.11-.09.18-.13.04-.03.05-.04.09-.07,1.17-.47,2.28-1,3.39-1.54.3-.15.68-.16.96-.36.31-.23.52-.62,1-.42.68-.53,1.55-.69,2.26-1.19.43-.3.98-.44,1.48-.64.23-.09.4-.21.49-.48.42-.04.72-.31,1.09-.5-.06-.13,0-.2.08-.29.07-.02.11-.02.19-.02,1.46-.64,2.83-1.39,4.08-2.34.32-.25.7-.42,1.05-.69.05-.22.2-.22.38-.23.08-.04.14-.04.22-.07.05-.03.08-.05.11-.1.06-.07.11-.13.18-.2.46-.48,1.08-.68,1.57-1.09.92-.78,2.1-1.13,3.09-1.8.22-.15.41-.3.57-.55.23-.08.44-.13.69-.2.06-.07.1-.1.19-.12.31-.18.6-.36.9-.57.11-.12.19-.24.37-.24.31.05.39-.24.61-.36.06-.08.1-.14.18-.2.05-.02.06-.02.11-.02.06-.05.12-.05.19-.08.06-.06.09-.11.13-.19.01-.05.02-.07.06-.11.07-.06.13-.09.2-.14.16-.12.32-.17.51-.25.14-.07.26-.12.4-.2.06-.07.1-.11.12-.19.02-.45.47-.11.59-.39.02-.04.04-.06.08-.05.22,0,.31-.11.33-.34.14-.29.46-.2.66-.4.16-.03.3-.03.48-.03Z"/>
      <path class="cls-21" d="m96.1,172.64c.46,1.47.81,3.02,1.05,4.58.12.81.14,1.63.33,2.43.09.38.18.8-.23,1.06-.3.19-.8-.06-1.12-.51-.46-.64-.6-1.4-.86-2.12-.89-2.45-1.52-4.96-2.02-7.52-.65-3.31-1.5-6.57-2.46-9.8-.3-1.02-.57-2.05-.81-3.12.27.01.3.22.35.41.16.55.33,1.09.56,1.66.04.07.06.12.08.2.06.86.49,1.58.66,2.38.05.22.15.42.35.57.22.17.33.46.18.7-.17.26-.07.42.11.62.16.13.32.17.48.3.07.12.08.21.04.35-.33.2-.33.23.09.67.12.24.18.47.11.74-.23.22-.28.44-.2.72.09.27.13.56.22.87.03.83.44,1.5.68,2.23.13.38.23.74.12,1.14-.09.35-.04.68.22.96.08.09.14.18.16.3.35,1.81.87,3.58,1.33,5.37.07.25.18.5.22.76.11.72.72,1.06,1.1,1.58.12.16.23.05.28-.1.04-.13,0-.26-.02-.39-.16-.84-.21-1.69-.32-2.54-.16-1.22-.45-2.41-.71-3.62-.06-.27-.13-.55.03-.88Z"/>
      <path class="cls-21" d="m106.08,161.96c.37-.25.33-.67.53-.99.07,1.09-.54,1.93-1.19,2.69-1.84,2.17-4.24,2.54-6.88,1.97-1.93-.42-3.49-1.44-4.74-2.96-.04-.05-.1-.07-.21-.08,1.19,3.22,1.86,6.57,2.57,9.95,0,.04-.02.05-.02.06-.33-.08-.44-.35-.46-.63-.09-1.27-.58-2.45-.8-3.69-.26-1.45-.73-2.85-1.21-4.25-.18-.52-.3-1.07-.58-1.6-.05-.42-.19-.83.37-1,.04.02.05.07.05.09.07.1.08.21.16.31.02.02.02.07.02.1.13.33.42.55.57.88.02.03.03.02.02.03.23.16.41.38.66.57.02.02.03.02.03.02.11.12.2.26.37.37.14.14.25.26.39.4.1.08.22.08.3.19.2.4.63.29.91.46.96.58,2.08.65,3.13.91.38.09.85-.02,1.25-.16.43-.15.87-.25,1.31-.35.18-.04.62.06.51-.42-.02-.07.1-.06.16-.04.61.22.95-.29,1.29-.58.46-.4.73-1,1.22-1.43.04-.08.04-.14.07-.21.02-.02.02-.02.02-.02.01-.02.02-.03.02-.07-.02-.19-.06-.37.15-.5Z"/>
      <path class="cls-21" d="m112.47,142.94c.07.02.11.05.18.08-1.58.67-3.22,1.22-4.86,1.77-2.63.89-5.27,1.77-7.97,2.43-2.17.53-4.37.96-6.56,1.43-.08.02-.16.01-.24.03-.15.03-.39-.2-.43,0-.04.24.27.2.44.25.7.22,1.4.44,2.09.77-.67-.17-1.41-.22-2.06-.57-.23-.13-.53-.26-.83-.04-.27.05-.38-.11-.39-.33-.02-.24.2-.24.35-.26.89-.09,1.78-.19,2.66-.36.37-.07.75-.05,1.03-.36.04-.05.11-.09.17-.09,1.21.08,2.33-.38,3.48-.64.57-.13,1.16-.23,1.7-.44,1.73-.65,3.57-.94,5.29-1.61.34-.13.73-.16,1.03-.41.36-.3.83-.12,1.22-.29.73-.31,1.49-.56,2.22-.87.48-.2.94-.42,1.49-.51Z"/>
      <path class="cls-16" d="m79.52,184.38c-.17,0-.31-.01-.49-.05.11-.55.18-1.09.6-1.5.04-.04.07-.13.05-.17-.14-.42.11-.72.3-1.08-.21-.09-.42-.09-.23-.44.19-.34.25-.75.23-1.14-.07-1.17.14-2.32.2-3.48.02-.31.37-.49.31-.8-.12-.66.21-1.25.3-1.87.05-.37.09-.84.64-.96.13.05.13.15.19.25.01.07,0,.12-.02.2-.03.09-.05.15-.09.22-.03.06-.04.1-.05.18-.14,1.29-.41,2.53-.61,3.78-.12.74-.22,1.48-.37,2.25-.29.15-.16.36-.12.58-.06.23-.02.44-.07.67-.11.92-.38,1.77-.61,2.67-.14.15-.21.28-.14.49,0,.09,0,.14-.04.22Z"/>
      <path class="cls-1" d="m54.42,162.23c-.02-.22-.08-.43-.21-.66-.06.01-.11.03-.19,0,.04-1.06.33-2.07.34-3.14.13-.31.37-.57.06-.89.11-1.01.14-2.02.36-3.04.12-.14.18-.25.03-.41.23-.64.28-1.28.34-1.96.27.52.48,1.07.3,1.69-.03.1-.08.21.02.27.43.23.19.57.15.86-.13.8-.57,1.54-.47,2.39.07.53-.1,1.06-.22,1.56-.12.51-.08,1.13-.57,1.53-.13.11-.08.27-.04.41.08.35.15.7.22,1.05.03.13.07.26-.13.35Z"/>
      <path class="cls-16" d="m81.62,172.09c-.09-.52.06-1.05-.21-1.55-.12-.23.15-.37.17-.59.15-1.52.5-3.01.75-4.52.15-.9.56-1.72.66-2.63.06-.51.07-1.04.26-1.53.11-.29.24-.54.58-.61.24.41-.03.75-.1,1.12-.04.23-.13.46-.15.74-.01.04-.02.03-.01.03-.41,1.36-.68,2.75-.92,4.18,0,.08,0,.13,0,.21-.33,1.09-.38,2.19-.61,3.3-.05.12-.08.2-.06.33.03.22-.06.39-.03.61,0,.08,0,.12-.02.2-.23.22-.04.54-.3.72Z"/>
      <path class="cls-21" d="m106.67,160.72c-.31-.21-.21-.59-.26-.9-.1-.69-.57-1.19-.83-1.79-.04-.09-.13-.07-.21-.05-.2.04-.29-.01-.2-.23.12-.29,0-.53-.16-.76-.35-.51-.81-.93-1.14-1.46-.06-.1-.22-.2-.32-.19-.34.02-.46-.17-.59-.44-.29-.62-.89-.91-1.4-1.3-.75-.58-1.64-.97-2.34-1.67,2.64,1.43,5.06,3.18,6.54,5.91.48.88.98,1.79.9,2.9Z"/>
      <path class="cls-21" d="m83.58,162.52c-.13-.32,0-.63.12-.95.09-.26.17-.53.13-.86.39-1.17.71-2.34,1.36-3.35.59-.91,1.03-1.89,1.46-2.87.35-.79.61-1.62.91-2.46,0-.12.03-.2.08-.3.02-.07.03-.11.03-.19.04-.09.09-.14.17-.2.52-.02.48.36.51.72-.18-.08-.11-.33-.32-.51-.33.43-.47.95-.64,1.43-.68,1.97-1.58,3.83-2.59,5.65-.5.89-.66,1.91-.96,2.87-.1.33-.17.66-.28,1.02Z"/>
      <path class="cls-21" d="m80.27,179.81c.14-.06.2-.12.21-.23.17-1.99.71-3.93.9-5.96.06-.11.11-.17.19-.24,0,.96-.25,1.89-.4,2.84-.25,1.59-.56,3.17-.86,4.79-.02-.2-.01-.42-.01-.69-.07-.18-.1-.32-.02-.51Z"/>
      <path class="cls-21" d="m99.21,151.85c-.13.05-.29.08-.41-.03-.78-.7-1.89-.82-2.68-1.52-.17-.15-.43-.13-.61-.12-.37.03-.3-.15-.25-.39,1.4.49,2.7,1.19,3.95,2.06Z"/>
      <path class="cls-21" d="m88.36,152.14s.03-.04.08-.04c.07.05.12.05.19.08.04.21-.02.43.19.6.1.08.13.15.14.26.08.57.19,1.12.46,1.61.09.17.14.33.14.55.05.1.1.15.17.22.02.09.02.17.02.28.11.64.47,1.2.24,1.87-.03.02-.04.03-.04.04-.38-.96-.53-1.98-.76-2.98-.19-.85-.52-1.65-.82-2.5Z"/>
      <path class="cls-21" d="m82.66,166.73c-.14-.12-.09-.27-.06-.44.19-.96.37-1.91.55-2.87.06-.31.35-.51.38-.86-.18.97-.4,1.96-.61,2.95-.08.4-.16.8-.27,1.22Z"/>
      <path class="cls-21" d="m81.95,171.16c-.14-.15-.07-.36-.09-.59-.04-.08-.05-.13-.02-.22.25-.69.3-1.38.4-2.06.07-.44.15-.88.34-1.31-.19,1.37-.41,2.76-.64,4.18Z"/>
      <path class="cls-21" d="m81.58,172.12c.22-.21-.07-.58.28-.72-.04.56-.12,1.13-.2,1.73-.14.02-.18-.06-.18-.21,0-.03,0-.04,0-.04.12-.17-.06-.35.07-.55.03-.08.03-.12.03-.21Z"/>
      <path class="cls-17" d="m62.83,145.72c.43.03.9-.11,1.18.37-.14,0-.27-.03-.44-.08-.15-.09-.28-.04-.42-.09-.09-.05-.16-.07-.26-.11-.05-.03-.07-.04-.06-.08Z"/>
      <path class="cls-17" d="m61.7,145.47c.36-.19.69.01,1.05.18-.03.1-.11.09-.21.05-.03-.03-.07-.03-.07-.03,0,0-.04,0-.08-.01-.11-.03-.19-.02-.29-.06-.02-.02-.03-.02-.03-.02-.08-.05-.16-.03-.26-.07-.04-.02-.06-.02-.11-.04Z"/>
      <path class="cls-21" d="m79.58,184.17c-.1-.14-.57-.35.07-.45,0,.14-.03.28-.07.45Z"/>
      <path class="cls-1" d="m51.67,185.97c-.02-.11,0-.22.03-.36.14.11.17.24-.03.36Z"/>
      <path class="cls-21" d="m60.96,145.29c.07-.02.16-.01.28,0,.09,0,.14.02.21.08.02.02.04.03.04.04-.18.03-.34-.01-.52-.11Z"/>
      <path class="cls-21" d="m63.16,145.89c.1,0,.22.02.36.06-.1,0-.22-.02-.36-.06Z"/>
      <path class="cls-1" d="m51.56,186.74c0-.09,0-.2.04-.34,0,.09,0,.2-.04.34Z"/>
      <path class="cls-21" d="m62.53,145.69s.1-.01.2-.01c.03,0,.08,0,.1,0,.02,0,.02.05.02.07-.1,0-.2-.03-.32-.06Z"/>
      <path class="cls-21" d="m61.81,145.51c.05,0,.13.01.23.05-.05,0-.13-.02-.23-.05Z"/>
      <path class="cls-1" d="m51.75,185.17c-.02-.05-.02-.12-.02-.23.08.04.1.12.02.23Z"/>
      <path class="cls-21" d="m62.11,145.6c.05,0,.12,0,.22.04-.05,0-.12-.01-.22-.04Z"/>
      <path class="cls-12" d="m139.57,162.9c-.15-.03-.18-.12-.18-.22,0-.11-.02-.23.1-.3.07-.04.16-.04.22.02.09.09.08.21.04.32-.02.07-.1.12-.19.18Z"/>
      <path class="cls-3" d="m121,103.4c0,.11,0,.19.01.3.23,2.07.34,4.11.38,6.2-.01.09-.01.13,0,.21.15.79.15,1.56.16,2.33.02,1.7,0,3.41.01,5.11.03,2.14-.04,4.29,0,6.43.01.72-.16,1.43-.1,2.2,0,.08-.02.11-.05.18-.03.11-.04.19-.04.3.17.75-.35,1.19-.66,1.75-.03.05-.04.07-.07.12-.64.77-1.18,1.56-1.76,2.33-.92,1.23-1.89,2.41-2.82,3.63-.28.36-.57.72-.81,1.14-.03.05-.05.07-.09.12-.43.25-.65.65-.93.99-.48.58-1.08,1.04-1.58,1.59-.16.17-.37.27-.58.37-1.18.55-2.39,1.02-3.56,1.59-1.28.62-2.6,1.13-3.91,1.66-1.53.61-3.03,1.29-4.63,1.69-1.67.42-3.34.87-5.08,1.21-.08,0-.12,0-.2.01-.11.06-.22.06-.33.13-.03.01-.01.04-.02.02-.74.64-1.69.73-2.58.99-1.23.35-2.42.79-3.57,1.35-.37.18-.75.33-1.11.52-.27.14-.56.1-.81,0-.81-.33-1.69-.32-2.53-.49-1.46-.31-2.95-.47-4.39-.94-.71-.23-1.44-.41-2.2-.6-.04-.02-.07-.03-.09-.04-1.12-.31-2.24-.57-3.33-.92-1.45-.47-2.9-.92-4.33-1.44-.95-.35-1.95-.55-2.88-.96-1.32-.58-2.64-1.15-3.92-1.79-1.33-.66-2.61-1.42-3.93-2.11-.69-.36-1.31-.85-2.02-1.27-.07-.05-.11-.08-.18-.13-.07-.05-.11-.09-.16-.15-.62-.38-.96-.92-1.15-1.57-.41-1.38-.94-2.72-1.33-4.1-.08-.3-.13-.6-.35-.88-.34-1.31-.79-2.54-1.19-3.79-.63-1.97-1.19-3.95-1.73-5.95-.15-.55-.35-1.09-.47-1.69.03-.42.31-.4.58-.41,1.28-.01,2.56.1,3.83.01,1.43-.1,2.86.11,4.28-.17.34-.07.68-.11,1-.21,1.34-.38,2.75-.44,4.1-.78,1.02-.26,2.04-.5,2.99-.96.33-.16.7-.19,1.05-.27.8-.17,1.52-.52,2.21-.93.31-.18.63-.34.97-.46,1.32-.48,2.48-1.24,3.67-2.03.08-.09.14-.13.23-.19.05-.03.07-.04.13-.06.05-.02.08-.02.13-.03.1-.02.15-.06.23-.13.05-.03.07-.05.12-.08,1.14-.74,2.27-1.43,3.28-2.3,1.09-.93,2.19-1.85,3.3-2.76.97-.8,1.66-1.78,2.17-2.93,1.04-2.34,2.11-4.67,3.01-7.08.64-1.71,1.33-3.41,1.92-5.14.38-1.09.89-2.14,1.02-3.31.19-1.68.56-3.34.76-5.02.13-1.1.26-2.21.36-3.31.13-1.37.21-2.74.32-4.11.09-1.16.08-2.32.09-3.48,0-.31.08-.56.5-.52,1.43.06,2.82.22,4.24.42,1.76.11,3.45.45,5.14.77,1.22.23,2.44.5,3.68.61.96.09,1.78.38,2.53,1.03,1.53,1.31,3.14,2.53,4.62,3.9.68.63,1.39,1.24,2.09,1.85.13.11.24.22.36.38.03.03.03.03.03.03.74.57,1.38,1.24,1.95,1.98.53.7,1.12,1.36,1.69,2.03.35.42.65.86.99,1.28.16.2.24.43.27.68.15,1.53.42,3.05.46,4.58.01.46-.07.91-.06,1.37.04,1.77.15,3.52.31,5.28.1,1.07.2,2.14.22,3.21.01.52.09,1.04.12,1.6Z"/>
      <path class="cls-10" d="m75.19,112.68c-.06.05-.1.08-.17.12-.52.22-.93.6-1.42.82-.13.06-.26.19-.41.11-.36-.2-.44,0-.5.3-.04.19-.19.32-.38.35-.48.08-.97.23-1.44-.02-.24-.13-.32-.03-.37.19-.08.33-.29.46-.62.37-.08-.02-.19-.07-.24-.03-.45.45-1.09.28-1.61.51-.23.1-.47.18-.65.35-.54.52-1.17.71-1.91.76-.66.04-1.19.47-1.75.79-.15.09-.28.25-.46.26-.9.09-1.75.43-2.66.44-.47,0-.86.28-1.31.38-1.01.24-2.03.27-3.05.24-.71-.03-1.41.04-2.11.04-1.17,0-2.32-.19-3.48-.3-.32-.03-.55-.2-.64-.57-.26-.84-.2-1.66-.2-2.47,0-2.75-.04-5.5.02-8.25.02-1.27-.13-2.54.07-3.81.02-.1,0-.2-.08-.32-.06-.16-.06-.28.02-.44.03-.04.06-.04.07-.04-.01-1.46.2-2.92.23-4.38.02-1.02.08-2.05.12-3.08,0-.22.06-.43.18-.6.25-.35.39-.76.55-1.19.01-.07.02-.09.03-.16.38-.62.71-1.22.89-1.93.02-.06.03-.08.06-.13.22-.18.34-.41.41-.63.15-.48.43-.9.61-1.4.02-.05.03-.07.06-.12.16-.15.23-.3.26-.51.02-.05.03-.07.07-.12.37-.47.57-1,.89-1.49.02-.03.03-.02.02-.02.19-.19.36-.39.47-.67.02-.05.03-.07.05-.12.05-.08.1-.12.15-.2.03-.04.04-.06.07-.1.12-.1.19-.19.23-.34,1.37-2.03,2.99-3.8,4.8-5.4,2.17-1.93,4.54-3.6,6.99-5.16.73-.46,1.47-.92,2.19-1.39.77-.5,1.67-.52,2.54-.68,1.86-.35,3.72-.72,5.59-1.04,1.31-.22,2.63-.22,3.96-.22.98,0,1.96-.08,2.94.05,1.34.17,2.69.37,4.03.53.84.1,1.69.17,2.54.24.24.02.49,0,.76.12.31.17.34.43.33.7-.03,1.24-.02,2.49-.17,3.73-.02.15-.03.29-.01.44.02.23.05.5-.08.67-.36.48-.51,1.04-.74,1.57-.15.35-.35.68-.34,1.06,0,.7-.51,1.12-.86,1.61-.25.34-.31.78-.62,1.09.31-.29.63-.57,1.01-.76.19-.1.39-.16.61-.18.41-.04.63.15.55.54-.22,1.03-.24,2.09-.44,3.13-.24,1.25-.43,2.5-.62,3.76-.06.43-.19.83-.49,1.15-.07.07-.15.14-.14.25.09.83-.43,1.49-.64,2.23-.3,1.08-.76,2.12-1.17,3.17-.66,1.7-1.3,3.42-2.08,5.08-.27.57-.58,1.14-.83,1.71-.31.72-.64,1.42-.96,2.13-.08.17-.16.33-.3.45-.78.63-1.42,1.41-2.14,2.1-.66.63-1.38,1.2-2.12,1.73-.3.21-.51.5-.79.73-.7.58-1.48,1.01-2.29,1.4-.27.13-.35.5-.66.68-.03.03-.02.03-.02.03-.05.04-.1.08-.19.13-.03.01-.07.03-.09.03-.04,0-.06,0-.1.01Z"/>
      <path class="cls-4" d="m119.65,36.75c.09-.57.19-.62.69-.48.34.1.62.17.75.57.06.19.26.51.63.18.19-.18.62.24.61.63,0,.34-.11.68.39.75.06,0,.12.15.17.23.46.84.71,1.75.94,2.67.14.53.26,1.07.49,1.58.14.31.21.65.28.98.31,1.48.69,2.94,1.14,4.38.59,1.92.92,3.9,1.48,5.82.42,1.45.68,2.95,1.08,4.41.23.81.3,1.67.56,2.47.2.62.27,1.26.45,1.88.17.59.29,1.22.22,1.85-.11,1,.11,1.97.36,2.9.12.46.27.85.15,1.32-.04.16.05.27.19.36.2.13.28-.05.39-.19.04.09.09.13.08.17-.07.51-.18,1.03.31,1.45-.07.11-.06.2-.03.31.1.08.12.16.12.29-.39.49-.43,1.01-.47,1.6-.06.84.32,1.56.37,2.35,0,.13.09.21.2.26.33.14.52.43.77.72.28.08.2.28.22.48-.05.93-.47,1.19-1.23.8-2.95-1.5-5.9-3-8.85-4.49-2.19-1.11-4.33-2.32-6.47-3.53-1.87-1.06-3.67-2.22-5.45-3.43-.69-.46-1.37-.94-2.01-1.52-.01-.07-.01-.11-.03-.18-.2-.7-.7-1.14-1.2-1.62.02-.07.08-.14.07-.15-.27-.33,0-.6.08-.89.27-1.17.96-2.16,1.52-3.19.16-.3.37-.7.67-1,.2-.2.67-.59.47-1.1-.03-.08.02-.26.09-.32.72-.62.79-1.56,1.17-2.35.01-.03.02-.09.03-.09.5-.09.33-.54.45-.84.15-.36.31-.71.47-1.06.47-1.03.91-2.08,1.42-3.1.55-1.08,1.18-2.13,1.75-3.2.7-1.3,1.44-2.59,2.04-3.93.58-1.3,1.31-2.53,1.72-3.91.1-.34.21-.78.73-.86Z"/>
      <path class="cls-1" d="m103.42,157.56s.04.06.06.06c.23.21.36.48.53.75.02.03.02.03.02.03.04.04.05.1.08.17.02.02.02.02.02.02.27.25.33.61.49.95.02.08.03.13.06.2.04.24.04.44.01.69-.02.09-.03.15-.04.23-.07.38-.29.65-.52.96-.03.02-.02.02-.02.02-.14.21-.31.4-.38.68-.02.05-.02.08-.05.13-.34.15-.55.42-.82.67-.04.04-.06.06-.11.09-.12.06-.21.09-.34.14-.06.01-.09.02-.16.02-.53,0-1.03,0-1.56,0-.09,0-.15,0-.24,0-.12,0-.2,0-.32,0-.09,0-.14,0-.23-.02-.92-.13-1.76-.4-2.61-.78-.67-.35-1.32-.67-1.82-1.26-.85-.93-1.47-1.98-2.05-3.09-.02-.03-.02-.03-.02-.03-.48-.87-.96-1.75-1.46-2.61-.7-1.22-1.19-2.51-1.51-3.87-.12-.51-.34-.98-.4-1.54,3.4.88,6.61,2.11,9.47,4.2.07,0,.11.02.17.06.02.02.04.04.05.04.3.14.58.29.83.54.03.02.03.03.03.03.46.28.96.52,1.35.96.02.02.02.03.03.03.15.11.31.21.47.37.02.02.02.03.02.02.19.19.39.37.56.61,0,.03.01.06.03.07.13.15.27.26.37.45Z"/>
      <path class="cls-1" d="m82.88,158.17s-.04.07-.04.09c-.38.62-.89,1.13-1.27,1.73-.32.5-.67.98-1.06,1.47-.02.05-.03.07-.05.12-.09.11-.19.16-.28.25-.03.04-.04.04-.07.07-.1.14-.11.31-.29.4-.03.02,0,.03-.02.02-.31.53-.77.94-1.16,1.46-.03.05-.05.07-.09.12-.61.45-1.15.93-1.76,1.31-1.18.74-2.29.43-2.96-.81-.5-.92-.55-1.92-.47-2.91.1-1.42.34-2.83.98-4.14.62-1.29,1.45-2.39,2.56-3.29.61-.49,1.14-1.07,1.84-1.46.2-.11.4-.21.66-.3.06-.02.09-.03.12-.06.02-.11.11-.11.21-.13.04,0,.07,0,.07-.02.16-.16.34-.24.58-.28.03-.01.02-.03.02-.02.12-.2.31-.22.55-.21.09-.02.14-.04.21-.08.12-.11.27-.1.41-.17.03-.01.02-.02.02-.02.07-.14.21-.04.33-.11.02-.03.03-.02.04-.03,1.01-.53,2.08-.87,3.2-1.04.31-.05.44.15.34.52-.12.44-.27.88-.43,1.31-.64,1.83-1.25,3.66-1.81,5.51-.07.24-.19.45-.38.67Z"/>
      <path class="cls-6" d="m96.28,69.63c-.96-.16-1.88-.32-2.8-.46-.3-.05-.48-.1-.42-.48.08-.43.11-.88.11-1.32,0-.33.15-.4.42-.37.78.11,1.55.23,2.33.34.92.13,1.83.33,2.74.53.65.14,1.33-.08,1.99.15,1.12.4,2.27.73,3.39,1.12,1.18.41,2.4.66,3.6.99.48.13.92.35,1.37.53.18.07.21.18.12.35-.06.11-.13.23-.19.34-.17.36-.07.83-.86.47-1.08-.49-2.32-.64-3.51-.87-1.46-.29-2.93-.52-4.4-.75-1.29-.2-2.59-.38-3.92-.57Z"/>
      <path class="cls-6" d="m117.99,80.51c-1.61-1.57-3.29-3-4.99-4.42-.43-.36-.85-.72-1.28-1.07-.22-.18-.25-.35-.06-.58.23-.28.43-.58.62-.88.19-.31.37-.31.63-.09.85.75,1.69,1.49,2.54,2.23,1.22,1.06,2.48,2.08,3.7,3.14,1.44,1.25,2.96,2.43,4.17,3.94.28.35.31.57-.07.86-.84.64-.82.65-1.59-.07-.79-.74-1.56-1.48-2.47-2.08-.42-.28-.78-.64-1.19-.99Z"/>
      <path class="cls-17" d="m108.18,64.54c1.01.51,1.85,1.31,2.82,1.91,1.57.98,3.12,1.98,4.72,2.91,1.6.93,3.21,1.82,4.84,2.68,1.59.84,3.2,1.65,4.81,2.46,1.85.94,3.71,1.87,5.56,2.82.81.41.8.43,1.21-.38.02-.04.03-.09.05-.17.08-.16.15-.3.24-.45.16.14.32-.02.51.02.09.12.33.07.27.26-.04.13-.18.12-.29.14-.34.05-.61.17-.69.58-.05.25-.27.39-.48.53-.41.29-.96.21-1.35.54-.07.06-.22.06-.31-.05-.02-.11.08-.13.14-.17.1-.06.28-.05.25-.25-.03-.15-.16-.23-.28-.24-.33-.02-.6-.27-.93-.26-.12,0-.23-.03-.29-.15-.19-.34-.5-.48-.86-.43-.36.05-.52-.24-.77-.36-.41-.2-.89-.2-1.26-.51-.11-.09-.28-.09-.28-.29,0-.04-.06-.11-.07-.11-.52.28-.68-.3-1.03-.44-.23-.1-.46-.28-.38-.61.02-.1.07-.21-.08-.23-.11-.02-.18.06-.22.16-.07.15.03.5-.3.34-.3-.14-.74-.15-.8-.61-.01-.08.01-.16,0-.25-.01-.11.16-.28-.06-.32-.16-.03-.13.15-.16.25-.08.29-.29.18-.51.17.01-.19.3-.26.14-.53-.18-.3-.35-.39-.61-.19-.3.23-.55.14-.86,0-.86-.37-1.73-.71-2.54-1.23-.36-.23-.84-.42-1.25-.62-.45-.23-1-.36-1.32-.66-.37-.35-.75-.56-1.19-.78-.31-.16-.62-.33-.93-.49-.12-.06-.26-.12-.3-.23-.1-.27-.22-.43-.53-.29-.03.01-.1-.01-.14-.04-.61-.52-1.4-.84-1.94-1.4-.52-.54-1.12-.95-1.67-1.43-.17-.15-.17-.3-.05-.47.06-.08.24-.12.09-.26-.09-.08-.21-.13-.3-.01-.21.27-.31.21-.41-.09-.07-.24-.51.15-.47-.2.02-.15.25-.31.22-.58Z"/>
      <path class="cls-11" d="m125.99,105.75c0-.16,0-.27,0-.46.1.14.17.23.23.32.09-.06.08-.15.06-.22-.1-.32.03-.4.33-.38.26.02.53.03.79,0,.44-.05.56.16.57.57.04,2.26.21,4.51.21,6.77,0,2.23.11,4.45.19,6.67.02.44-.11.63-.58.68-1.08.11-1.08.14-1.09-.94-.04-2.41-.03-4.82-.12-7.22-.05-1.22-.27-2.43-.41-3.65-.08-.7-.18-1.39-.16-2.14Z"/>
      <path class="cls-6" d="m126.89,92.78c.12.48.1.92.09,1.36-.03,1.28.17,2.54.34,3.8.14,1.03.22,2.08.33,3.11.02.17-.04.28-.2.35-.49.2-.99.34-1.51.41-.3.04-.31-.19-.33-.38-.07-.9-.16-1.79-.2-2.69-.06-1.46-.05-2.92-.14-4.37-.12-1.92-.25-3.85-.87-5.7-.09-.28-.01-.42.2-.56.25-.18.54-.3.76-.54.16-.17.27-.09.35.11.69,1.61,1.03,3.3,1.16,5.08Z"/>
      <path class="cls-6" d="m80.08,67.88c-2.28.47-4.56.79-6.76,1.42-.22.06-.29-.01-.34-.21-.1-.4-.23-.79-.47-1.13-.18-.26-.05-.31.19-.37,2.41-.64,4.87-.99,7.35-1.21,1.12-.1,2.23-.28,3.37-.27,1.15,0,2.31.02,3.43.24.7.13.25.91.4,1.37.12.36-.27.29-.47.27-1.78-.21-3.57-.16-5.35-.28-.45-.03-.88.03-1.35.18Z"/>
      <path class="cls-11" d="m64.72,72.99c-2.23,1.33-4.35,2.74-6.26,4.46-.18.16-.27.16-.41-.05-.6-.91-.62-.91.17-1.67,1.3-1.25,2.79-2.27,4.28-3.26,1.35-.9,2.74-1.73,4.17-2.5.32-.17.68-.25.97-.47.18-.14.32-.1.42.13.16.37.23.75.29,1.14.05.33-.24.4-.45.5-1.08.52-2.13,1.09-3.18,1.73Z"/>
      <path class="cls-12" d="m75.6,112.5c-.04-.29.45-.41.24-.78,0,0,.07-.07.11-.08.99-.21,1.79-.77,2.55-1.4.36-.3.67-.66,1.07-.93.83-.57,1.6-1.23,2.27-1.99.4-.45.79-.93,1.27-1.28.73-.54.89-1.42,1.37-2.1.06-.08.04-.22.05-.33.04-.28.11-.53.33-.74.34-.33.42-.82.62-1.23.59-1.2,1.14-2.44,1.55-3.7.26-.8.57-1.6.88-2.37.45-1.13.78-2.3,1.27-3.41.16-.38.29-.69.18-1.1-.05-.17-.02-.29.25-.4.26-.1.39-.51.44-.86.11-.81.25-1.61.41-2.41.12-.63.05-1.27.27-1.89.3-.87.13-1.8.38-2.68.09-.31,0-.5-.42-.39-.54.14-1,.37-1.33.82-.04.05-.07.12-.12.15-.15.09-.33.25-.48.09-.12-.13.07-.27.15-.37.22-.29.49-.53.47-.94,0-.14.11-.19.23-.2.1-.01.23-.04.22-.15-.01-.36.16-.51.47-.69.14-.08.11-.56.13-.85.02-.35.24-.6.33-.89.19-.63.62-1.16.8-1.75.15-.5.14-1.11.16-1.67.02-.88.06-1.77.12-2.65.02-.32-.03-.62-.19-.94.24-.05.48-.13.75,0-.29.04-.38.21-.37.51.06,2.41-.16,4.81-.34,7.21-.16,2.1-.43,4.2-.79,6.28-.17,1-.34,2-.51,3-.21,1.23-.75,2.36-1.16,3.53-.67,1.91-1.39,3.81-2.15,5.69-.97,2.38-1.97,4.74-3.14,7.04-.38.75-1.01,1.29-1.63,1.82-.66.55-1.29,1.15-1.97,1.68-1.51,1.19-2.94,2.51-4.71,3.39Z"/>
      <path class="cls-11" d="m127.08,124.41c0-.36,0-.67,0-.98,0-.1,0-.25.04-.28.35-.18.68.06,1.03.08.19,0,.31.08.3.3,0,.93.04,1.87-.03,2.8-.06.8-.62,1.43-.95,2.12-.73,1.5-1.55,2.95-2.31,4.44-.2.39-.44.48-.82.35-.36-.12-.72-.22-1.08-.34-.28-.1-.36-.19-.17-.53.96-1.69,2.2-3.21,3.08-4.95.47-.93.96-1.87.9-3.02Z"/>
      <path class="cls-16" d="m49.82,102.46c.05.1.06.2.08.35.11.54.01,1.05,0,1.55-.06,3.78-.04,7.57-.05,11.35,0,.77.08,1.54.24,2.34.21.3.12.59.13.92,1,3.41,1.89,6.8,3.05,10.12.14.4.32.79.35,1.26.03.16.06.27.01.44-.27.08-.33-.11-.38-.28-.15-.51-.21-1.06-.45-1.52-.34-.67-.48-1.41-.82-2.07-.17-.33-.25-.72-.31-1.09-.06-.34-.06-.66-.33-.93-.19-.19.06-.47,0-.71-.06-.22.17-.65-.4-.54-.1.02-.26-.31-.28-.52-.03-.48,0-.97-.34-1.37-.05-.07-.05-.15-.02-.23.12-.35.05-.71-.17-1.01-.06-.08-.05-.22-.06-.33-.02-.33-.03-.65-.07-.98-.06-.44-.17-.7-.74-.5.79-.79.43-1.63.29-2.42-.13-.75-.11-1.51-.07-2.25.04-.72-.08-1.4-.17-2.1-.02-.18.02-.32.08-.47.07-.17.15-.38-.02-.5-.28-.2-.19-.47-.09-.66.34-.65.22-1.35.21-2.01-.01-.95,0-1.88.13-2.83.11-.83.04-1.69.05-2.54,0-.16-.08-.33.15-.45Z"/>
      <path class="cls-17" d="m121.32,127.74c.06.31-.26.6.03.89-.44.33-.12.65-.08,1.02.04.37-.34.86-.7,1.11-.24.16-.33.35-.41.55-.29.78-.95,1.25-1.41,1.89-.25.35-.55.69-.85.95-.53.46-.92,1.11-1.59,1.4-.23.1-.28.31-.41.47-.42.51-.99.84-1.51,1.29-.31-.23-.29-.45-.05-.73.26-.29.48-.61.76-.92.02-.03.02-.03.02-.02.73-.63,1.1-1.55,1.78-2.23.39-.39.75-.79,1.04-1.3.34-.59.87-1.09,1.28-1.64.46-.62.94-1.24,1.32-1.96.02-.03.02-.03.02-.03.32-.16.31-.66.74-.71Z"/>
      <path class="cls-21" d="m115.06,81.33c-1.13-.8-2.12-1.8-3.2-2.7-1.58-1.32-3.16-2.63-4.74-3.94-.19-.16-.43-.22-.68-.25-2.72-.27-5.37-.94-8.06-1.4-.55-.09-1.1-.15-1.69-.24.77-.2,1.57-.02,2.33.15.71.16,1.43.1,2.13.24.2.04.42-.04.56.21.08.14.26.1.41.06.26-.07.51-.1.8,0,.68-.02,1.3.28,1.94.27.72-.01,1.3.28,1.92.57.27.13.61.17.91.14.87-.09,1.32.54,1.84,1.03.49.47.92,1,1.4,1.48.22.22.32.54.55.74.93.77,1.6,1.81,2.55,2.55.27.21.52.46.81.65.16.1.21.24.23.44Z"/>
      <path class="cls-16" d="m56.65,137.1c1.39.98,2.86,1.78,4.34,2.57,3.01,1.6,6.07,3.05,9.38,3.96,1.76.48,3.49,1.08,5.24,1.64.48.15,1,.16,1.45.48-.22.04-.44.04-.67-.02-.22-.06-.51-.13-.67.02-.37.35-.65.18-1.04.03-.4-.16-.8-.2-.98-.68-.06-.15-.3-.1-.46-.1-.55.02-1.04-.05-1.35-.58-.08-.14-.18-.09-.27.02-.22.29-.53.22-.74.07-.41-.29-.88-.46-1.28-.8-.47-.4-1.12-.51-1.72-.67-.91-.24-1.77-.58-2.61-.99-.39-.19-.76-.38-1.22-.35-.35.02-.63-.24-.95-.37-.47-.19-.94-.38-1.5-.37.15-.27.13-.41-.26-.4-.2,0-.4-.08-.77-.16.65-.19.53-.32.2-.53-.17-.11-.33-.26-.55-.37-.37-.08-.75-.08-.98-.47-.22-.32-.57-.27-.84-.4-.42-.19-.82-.42-1.13-.81-.08,0-.12,0-.2,0-.05,0-.08-.02-.13-.04-.32-.17-.53-.4-.72-.7-.01-.06-.02-.08,0-.13.06-.06.1-.07.18-.04.06.04.09.06.14.1.04.05.06.07.11.1Z"/>
      <path class="cls-21" d="m121.01,103.4c-.17-1.66-.31-3.36-.46-5.05-.15-1.69-.36-3.38-.35-5.09,0-.47.05-.95.08-1.42.08-1.19-.35-2.33-.35-3.51,0-1.17-.62-1.98-1.28-2.8-1.14-1.41-2.2-2.89-3.58-4.13.22-.06.35.1.49.23.94.84,1.66,1.86,2.49,2.79.43.48.98.91,1.52,1.32.36.27.61.64.57,1.13,0,.05-.01.13,0,.14.42.18.33.51.28.85,0,.04.07.1.11.15.25.32.5.63.79.95.22.24.3.48.12.8-.09.07-.17.1-.29.1-.7-.22-.76-.17-.76.55.06.78.23,1.54.12,2.31-.03.17.05.32.1.47.06.21.1.42-.03.62-.09.15-.18.23.08.35.19.09.13.38.02.57-.07.12-.17.26-.11.36.47.74-.15,1.49.06,2.27.24.92.23,1.9.28,2.84.05,1.06.22,2.11.1,3.21Z"/>
      <path class="cls-18" d="m89.99,157.62c-.03-.43-.06-.83-.26-1.19-.12-.22.05-.44,0-.68.22-.02.37.03.41.26.04.25.21.46.25.68.11.56.31,1.06.68,1.49.02.02.05.06.04.09-.14.65.53.89.71,1.38.02.05.07.09.06.13-.1.47.09.67.52.93.35.21.55.68,1.08.71-.44.22-.24.61-.28.97,0,.04,0,.09,0,.12,0,.04,0,.06,0,.11.13.32.11.63.16.93.03.15,0,.31-.18.34-.18.03-.26-.09-.32-.24-.04-.1-.06-.22-.14-.31-.03-.03-.08-.07-.1,0-.02.04,0,.09.02.18.01.15-.08.24-.14.36-.03.04-.05.06-.08.09-.09.06-.13.12-.14.22-.01.05-.02.07-.05.1-.18-.23-.7-.4-.17-.8.1-.07,0-.39-.15-.52-.32-.28-.53-.67-.52-1.09,0-.06,0-.14-.03-.18-.44-.46-.38-1.09-.53-1.68.05-.12.16-.13.2-.22-.05,0-.1.01-.17,0-.23-.05-.21-.22-.25-.35-.19-.6-.39-1.2-.61-1.82Z"/>
      <path class="cls-18" d="m127.96,79.93c.9.12,1.62.64,2.32,1.18.11.08.19.16.33.17.42.01.51.35.63.65.13.31-.2.33-.32.46-.13.14-.17.31-.23.47-.15.37-.36.41-.65.13-.58-.55-1.17-1.08-1.82-1.54-.29-.21-.36-.75-.9-.59-.37-.53-1.14-.68-1.31-1.44.03-.27.16-.44.36-.61.57.03.77.26.68.81-.03.18-.08.37.17.34.36-.04.51.18.63.47.19-.15.1-.33.12-.51Z"/>
      <path class="cls-16" d="m82.89,158.19c.36-.92.56-1.91.88-2.86.52-1.56,1.07-3.12,1.6-4.68.15-.43.08-.51-.36-.41-.86.19-1.71.42-2.51.79-.15.07-.31.11-.5.16.15-.43.62-.41.95-.53.78-.29,1.58-.54,2.41-.64.31-.04.6.06.83.19.4.23.19.61,0,.85-.35.41-.47.94-.65,1.38-.19.47-.28,1.03-.51,1.52-.22.48-.4.98-.6,1.47-.31.75-.96,1.34-1.09,2.19-.03.21-.12.49-.45.57Z"/>
      <path class="cls-16" d="m99.85,163.23c.08,0,.13,0,.2.02.11.06.19.08.3.03.07-.02.12-.02.19-.02.6.13,1.17.09,1.77,0,.03-.02.07-.04.09-.04.1-.06.2-.03.31-.09.01-.03.01-.02,0-.02.08-.04.16-.06.28,0-.28.58-.7,1.01-1.38,1.01-.56,0-1.06.25-1.64.22-1.22-.08-2.32-.46-3.21-1.26-.51-.46-.87-1.08-1.31-1.67-.02-.06-.03-.08-.01-.13.53.45,1.15.77,1.76,1.15.82.5,1.68.77,2.64.82Z"/>
      <path class="cls-16" d="m78.48,163.78s0-.06.01-.06c.24-.08.36-.37.68-.32.36.34,0,.49-.11.72-.4.88-1.23,1.32-1.93,1.89-.33.27-.72.48-1.08.71-.62.39-1.44.07-1.92-.67-.24-.38-.8-.67-.46-1.31.23-.19.34,0,.45.12.8.93,1.68.78,2.47.38.6-.3,1.09-.76,1.67-1.09.11-.06.12-.23.2-.37Z"/>
      <path class="cls-21" d="m78.46,163.76c.16.43-.09.54-.46.74-.46.25-.89.58-1.37.81-.97.48-1.87.46-2.63-.44-.06-.07-.16-.11-.27-.16-.03-.05-.04-.09-.04-.17-.13-.19-.19-.38-.26-.6-.17-1.09-.31-2.16-.46-3.22-.02-.13-.04-.25,0-.38.3-.93.67-1.82,1.09-2.7.35-.73.82-1.39,1.13-2.14.06-.15.31-.23.43-.37.66-.76,1.51-1.33,2.17-2.08.21-.24.57-.36.9-.54.12-.08.25-.08.37-.17.11-.02.19-.03.31-.04-1.27.76-2.41,1.73-3.45,2.82-.85.89-1.48,1.92-1.82,3.1-.42,1.47-.65,2.96-.62,4.5.02.83.35,1.53.83,2.15.49.63,1.1.77,1.84.49.89-.33,1.57-.99,2.3-1.61Z"/>
      <path class="cls-21" d="m115.1,135.63c0,.45-.41.68-.64,1-.16.23-.19.39-.09.65,0,.04-.04.04-.06.04-.21.08-.4.13-.59.27-1.14,1.08-2.54,1.64-3.94,2.22-.13.06-.26.14-.41.23-.06.06-.1.08-.17.05-.14,0-.27,0-.35.06-.9.77-2.07.92-3.09,1.41-.88.43-1.81.73-2.71,1.12-.6.26-1.23.52-1.89.63-.37.06-.59.37-.97.42-.71.1-1.43.26-2.12.47-.87.27-1.8.32-2.66.65-.16.06-.32.06-.51-.01.91-.27,1.85-.55,2.81-.75,2.8-.59,5.44-1.64,8.07-2.73,2.07-.86,4.1-1.8,6.16-2.69.61-.27,1.01-.77,1.45-1.22.58-.59,1.13-1.21,1.72-1.83Z"/>
      <path class="cls-18" d="m121.34,89.77c.21-.26,0-.49.02-.77.17-.03.29.05.29.23,0,.53.24.93.59,1.29.23.24.33.6.64.79.14-.1-.04-.33.2-.43.07.5.1,1,.23,1.48.06.24.03.45.24.68.29.31-.17,1-.58.86-.47-.17-.48.15-.63.37-.04.06-.08.13-.18.29,0-.66-.06-1.22-.08-1.77-.02-.64-.04-1.31-.21-1.96-.09-.35-.56-.36-.59-.77-.09-.12-.04-.2.05-.3Z"/>
      <path class="cls-17" d="m59.26,71.42c.24-.54.76-.85,1.18-1.24,1.83-1.67,3.93-2.96,5.98-4.32.09-.06.2-.1.34-.16.05,0,.07.03.06.07-.04.14-.03.27-.15.33-.52.24-.89.68-1.35,1.01-.42.31-.8.68-1.23,1.01-.51.39-1.06.72-1.58,1.1-.63.45-1.26.9-1.91,1.3-.46.28-.74.82-1.36.91Z"/>
      <path class="cls-18" d="m128.81,134.27c.04.16-.06.3-.18.36-1.01.54-1.81,1.41-2.88,1.84-.59.24-1.03.77-1.69.88-.09.02-.18.08-.3,0-.02-.11.15-.25-.09-.24-.17,0-.35.04-.56.07.03-.08.04-.19.07-.19.47-.04.77-.41,1.15-.62.82-.45,1.67-.87,2.53-1.2.68-.25,1.12-.97,1.96-.91Z"/>
      <path class="cls-21" d="m77.16,145.83c.77-.05,1.47.31,2.2.52,1.86.53,3.76.83,5.67,1.09.53.07,1,.28,1.51.38.21.04.39.07.6-.04,1.84-1,3.78-1.72,5.82-2.17.5-.11.87-.43,1.36-.62-.29.54-.85.67-1.39.79-1.17.25-2.28.65-3.39,1.07-.75.29-1.44.68-2.16,1.01-.33.15-.67.25-1.04.1-.83-.32-1.72-.33-2.57-.52-1.54-.33-3.11-.48-4.61-.98-.49-.16-1.03-.25-1.54-.38-.16-.04-.31-.09-.45-.25Z"/>
      <path class="cls-17" d="m126.36,78.8c0,.25-.11.44-.33.59-.36-.35-.28.05-.34.19-1.24-.62-2.27-1.55-3.52-2.12-.21-.1-.39-.22-.51-.47-.04-.07-.05-.12-.02-.2.76.13,1.46.41,2.08.83.6.4,1.31.48,1.93.8.23.12.45.25.7.4Z"/>
      <path class="cls-21" d="m121.43,126.28c.08-3.91.16-7.83.07-11.74-.04-1.44-.08-2.88-.11-4.36.28.28.25.69.25,1.06.02,4.54.01,9.07,0,13.61,0,.39-.13.77-.1,1.21,0,.12-.02.18-.11.23Z"/>
      <path class="cls-6" d="m123.21,135.71c-.44.45-.99.76-1.27,1.32-.1.21-.32.24-.51.15-.24-.12-.55-.2-.56-.54-.02-.47.16-.89.38-1.3.06-.12.18-.19.33-.15.52.13,1.05.24,1.59.29.14.01.13.12.04.24Z"/>
      <path class="cls-21" d="m56.41,136.9s-.06.03-.13.03c-.04.01-.05.03-.09.05-.05,0-.07,0-.11-.03-.16.05-.28.09-.39-.09-.44-.69-1-1.38-1.08-2.17-.07-.7-.55-1.23-.53-1.95-.31-.38-.34-.84-.49-1.28.1-.17.13-.32.11-.51-.05-.04-.08-.06-.11-.11,0-.14,0-.25,0-.41.45.87.65,1.87,1,2.82.34.92.66,1.85.94,2.79.14.46.57.56.87.87Z"/>
      <path class="cls-9" d="m51.07,92.98c.08.49-.16.9-.4,1.27-.24.38-.35.75-.33,1.2.05,1.71-.08,3.42-.22,5.13-.05.61.04,1.24-.18,1.85-.04-.02-.05-.07-.07-.15-.01-.47-.06-.91.05-1.38.03-.27.04-.5.04-.78.03-1.33.05-2.62.16-3.94.03-.14.04-.25.04-.4-.06-1.07.15-2.02.91-2.81Z"/>
      <path class="cls-21" d="m106.92,62.7c.58.41,1.18.77,1.24,1.59-.18-.02-.35-.08-.55-.16-.18-.05-.28-.15-.41-.28-.07-.05-.11-.08-.19-.12-.06-.35-.38-.45-.61-.52-.19-.06-.34-.16-.5-.21.05-.28.61.03.48-.48.16.04.33.1.54.17Z"/>
      <path class="cls-21" d="m121.41,109.9c-.15-2.01-.27-4.05-.39-6.14.38.53.26,1.19.26,1.8,0,.49.05.98.1,1.46.12.95.07,1.89.02,2.87Z"/>
      <path class="cls-18" d="m121.64,76.71c.02.07.02.12.02.19-.79-.35-1.57-.73-2.35-1.12-.07-.03-.13-.11-.18-.17-.08-.09-.16-.18-.06-.3.08-.09.19-.05.27.01.25.19.58.25.8.44.45.39,1.01.57,1.51.93Z"/>
      <path class="cls-21" d="m80.39,161.55c.45-.69.92-1.34,1.4-1.99.32-.43.66-.84,1.02-1.27.05.18,0,.34-.14.48-.61.61-1.07,1.34-1.5,2.08-.13.22-.35.33-.49.57-.02.05-.03.07-.06.11-.03.02-.03.02-.03.02-.05.04-.1.05-.19,0Z"/>
      <path class="cls-16" d="m115.59,72.88c.31.12.54.24.7.53.12.21.38.34.62.45.12.05.25.22.14.36-.11.14-.23-.02-.33-.09-.07-.05-.14-.09-.2-.14-.67-.62-1.42-1.15-2.17-1.69.5-.02.82.35,1.23.6Z"/>
      <path class="cls-6" d="m54.33,79.67c.43.58.24,1.16-.42,1.36-.07.02-.18.02-.23-.02-.12-.1-.09-.24-.03-.36.17-.35.38-.69.69-.98Z"/>
      <path class="cls-17" d="m95.46,161.2c0,.05,0,.07,0,.12-.13.02-.23-.03-.3-.13-.64-.95-1.43-1.8-1.76-2.97.51.72,1.01,1.48,1.52,2.24.16.24.35.47.54.73Z"/>
      <path class="cls-17" d="m56.19,137.05c.32.19.56.4.84.64.08.04.13.06.2.09,0,.48-.38.34-.62.37-.23.04-.38-.11-.45-.35-.06-.24-.37-.46.04-.75Z"/>
      <path class="cls-16" d="m51.12,92.98c-.57.81-.9,1.7-.95,2.73-.22-.15-.02-.36-.03-.56,0-.19-.02-.39-.04-.58,0-.11-.08-.27-.03-.33.59-.65.71-1.57,1.34-2.21.14.36-.19.59-.26.93-.02.03-.03.02-.03.02Z"/>
      <path class="cls-16" d="m72.74,63.88c.96-.28,1.94-.55,2.97-.81.09.09.05.16-.03.25-.99.16-1.9.63-2.94.56Z"/>
      <path class="cls-21" d="m140.04,115.57c.14-.12.26-.24.41-.15.17.11.05.27.02.4-.11.45-.08.94-.45,1.45,0-.63,0-1.15.02-1.7Z"/>
      <path class="cls-16" d="m51.7,91.55c-.11-.35-.09-.66.22-.92.13-.11.23-.29.27-.45.14-.61.51-1.09.91-1.57.09.07.09.14.02.23-.03.02-.02.02-.02.03-.35.7-.63,1.44-1.06,2.14-.03.02-.03.03-.03.03-.09.18-.07.41-.32.52Z"/>
      <path class="cls-16" d="m66.98,65.71c.11-.42.49-.46.78-.59.49-.21,1.01-.33,1.55-.5-.04.43-.41.42-.72.49-.31.07-.66.04-.91.37-.23.15-.47.17-.71.23Z"/>
      <path class="cls-16" d="m50.11,96.16c.08,1.28-.08,2.57-.12,3.89-.1.01-.2,0-.18-.12.25-1.16.11-2.34.15-3.51,0-.1.01-.2.15-.26Z"/>
      <path class="cls-16" d="m69.4,64.62c.27-.31.7-.27,1.07-.39.44-.14.9-.24,1.41-.26-.33.36-.84.25-1.27.41-.36.13-.75.32-1.21.24Z"/>
      <path class="cls-18" d="m140.27,126.94s-.05.04-.07.04c-.47.01-.63-.32-.78-.65-.05-.1-.02-.2.07-.26.1-.07.18-.03.26.05.23.23.5.43.52.83Z"/>
      <path class="cls-17" d="m59.22,139.04c.31.1.62.25.95.42-.18.03-.18.3-.39.33-.44.06-.56-.07-.56-.75Z"/>
      <path class="cls-18" d="m120.4,90.41c-.03-.06-.04-.14-.05-.22-.04-.18-.16-.38.06-.52.2-.13.42-.16.65.05.11.14-.14.16-.07.3-.05.11-.08.2-.11.29-.02.07-.02.17-.12.17-.09,0-.12-.08-.16-.15-.03-.05.04-.18-.09-.14-.04.01-.05.14-.1.23Z"/>
      <path class="cls-18" d="m139.06,127.77c0,.24-.24.25-.42.38-.09.01-.15.03-.23.09-.02.02-.06.02-.08.02s-.03,0-.03,0c-.02-.02-.03-.03-.07-.06-.12-.1-.24.2-.32-.03-.04-.14,0-.31.16-.36.3-.09.61-.21.97-.03Z"/>
      <path class="cls-13" d="m75.7,63.34c-.02-.07,0-.14.04-.24.09-.03.16-.04.28-.05.14.09.26.04.4.02.1-.04.17-.07.28-.09.08.02.14.03.22.05.1.02.17.03.29.05.04.08.04.14.04.24-.5.03-.99.04-1.54.04Z"/>
      <path class="cls-21" d="m121.37,127.73c-.35.16-.32.66-.75.73.2-.57.8-.98.76-1.73.13.3.11.63,0,1.01Z"/>
      <path class="cls-9" d="m51.66,91.57c.11-.18.21-.34.33-.53-.04.71-.39,1.33-.84,1.93-.06-.33.2-.57.29-.91,0-.03,0-.04,0-.04.05-.08.02-.17.08-.26.03,0,.04-.02.04-.02,0-.03,0-.05.04-.09.03-.02.05-.05.05-.07Z"/>
      <path class="cls-21" d="m79.21,163.42c-.25,0-.36.32-.67.29.37-.46.77-.92,1.21-1.39.07.2-.11.34-.15.57-.12.19-.16.39-.37.51-.02.02-.02.02-.02.02Z"/>
      <path class="cls-18" d="m122.78,89.67c.31.07.49.69.3.88-.05.05-.15.07-.16.01-.06-.29-.44-.53-.13-.9Z"/>
      <path class="cls-9" d="m54.25,86.68c-.07.62-.4,1.11-.83,1.57-.15-.18-.09-.34.07-.5.04-.02.06-.03.06-.04.15-.36.31-.71.61-1,.03-.02.07-.03.09-.03Z"/>
      <path class="cls-18" d="m137.12,129.11c-.1.12-.16.25-.35.24-.04-.21-.28-.16-.41-.34.36.05.36-.46.68-.38.15.04.06.29.08.48Z"/>
      <path class="cls-16" d="m49.91,100.89c.05.43.08.87-.02,1.34-.19-.42-.21-.87.02-1.34Z"/>
      <path class="cls-18" d="m94.96,163.39c-.39.08-.52-.22-.68-.52.41-.11.58.14.68.52Z"/>
      <path class="cls-21" d="m103.06,163.11c-.1,0-.18,0-.3,0,.23-.24.5-.48.81-.73.09.03.12.08.09.19-.14.14-.25.23-.39.34-.04.04-.06.05-.1.09-.04.05-.06.08-.11.11Z"/>
      <path class="cls-7" d="m133.32,115.57c-.06.13-.13.3-.2.07-.08-.28-.06-.57.12-.86.03.25.06.51.08.79Z"/>
      <path class="cls-18" d="m94.28,162.8c-.32-.16-.53-.41-.59-.82.25.08.35.37.62.48.22.08-.02.2-.03.34Z"/>
      <path class="cls-21" d="m104.15,161.64c.13-.3.29-.6.49-.93.06.39-.1.71-.49.93Z"/>
      <path class="cls-16" d="m54.15,86.7c-.12.35-.33.67-.57.99.01-.41.15-.77.57-.99Z"/>
      <path class="cls-16" d="m53.49,87.72c0,.16-.05.32-.1.5,0,.03,0,.04,0,.04-.07.11-.03.27-.22.32-.03,0-.05-.01-.06-.02.03-.22.08-.44.1-.65.02-.16.09-.23.28-.19Z"/>
      <path class="cls-21" d="m127.93,132.11c-.25.28-.57.5-1.02.58.23-.31.6-.45,1.02-.58Z"/>
      <path class="cls-9" d="m54.84,85.88c.03.39-.15.65-.53.8-.03-.04-.02-.08,0-.15.03-.26.23-.39.37-.58.03-.01.04-.02.04-.02.02-.05.05-.07.13-.05Z"/>
      <path class="cls-21" d="m103.65,162.36c.05-.29.19-.51.45-.7.08.19-.11.33-.16.55,0,.05.02.06.01.09-.02.02-.07.03-.09.03-.07.04-.12.06-.21.02Z"/>
      <path class="cls-21" d="m127.96,132.09c.24-.26.56-.37.9-.45-.19.29-.49.39-.83.48-.04,0-.05-.02-.06-.03Z"/>
      <path class="cls-18" d="m141.23,126.2c-.05.32-.37.26-.62.38-.07-.51.32-.34.62-.38Z"/>
      <path class="cls-18" d="m127.96,79.89s-.03,0-.05,0c-.2,0-.35-.08-.4-.28-.02-.09.06-.17.14-.16.22.02.29.18.31.41,0,.04,0,.04,0,.03Z"/>
      <path class="cls-16" d="m81.54,172.3c.02.18,0,.35-.03.55-.05-.06,0-.19-.15-.2-.2-.01-.2-.15-.17-.27.04-.21.21-.05.35-.08Z"/>
      <path class="cls-16" d="m73.4,163.95c.26.05.24.29.29.52-.24-.06-.43-.19-.29-.52Z"/>
      <path class="cls-16" d="m79.24,163.42c0-.21.11-.36.32-.48.05.23.05.47-.32.48Z"/>
      <path class="cls-16" d="m54.67,85.93c-.02.21-.15.38-.33.55-.17-.32.13-.39.33-.55Z"/>
      <path class="cls-21" d="m104.71,160.46c-.15-.2.02-.4-.02-.65.2.1.1.3.13.52-.02.07-.05.09-.1.13Z"/>
      <path class="cls-16" d="m54.87,85.89s-.07.02-.13.03c-.08-.26.03-.42.32-.5.09.07.09.14.03.25-.03.03-.02.02-.02.02-.04.07-.1.12-.17.19-.02.02-.02.02-.02.02Z"/>
      <path class="cls-16" d="m80.95,151.58c-.11.17-.33.12-.52.24,0-.36.24-.33.52-.24Z"/>
      <path class="cls-17" d="m113.72,137.62c.02-.29.26-.28.52-.29-.02.32-.33.17-.52.29Z"/>
      <path class="cls-17" d="m66.96,65.68c.21-.06.4-.22.67-.17-.09.25-.34.24-.61.29-.06-.02-.08-.03-.08-.08.01-.03.01-.04.02-.04Z"/>
      <path class="cls-12" d="m126.88,132.69c-.19.2-.42.32-.69.36.19-.15.38-.3.65-.36.03,0,.04,0,.04,0Z"/>
      <path class="cls-16" d="m121.01,90.04c-.21-.14-.11-.2.05-.28.09-.02.16-.02.27-.02.01.08-.01.16-.05.27-.09.03-.16.03-.27.03Z"/>
      <path class="cls-18" d="m95.35,163.79c-.22.03-.37-.04-.38-.32.21-.02.33.1.38.32Z"/>
      <path class="cls-13" d="m107.19,63.87c.15,0,.3.04.39.22-.27.23-.29-.04-.39-.22Z"/>
      <path class="cls-21" d="m79.82,162.33c0-.16.09-.28.23-.39.04.01.04.03.04.08.01.04.03.06.02.09-.02.04-.02.06-.02.11.01.04.03.06.02.09-.1.02-.18.02-.29.02Z"/>
      <path class="cls-16" d="m80.36,151.81c-.14.1-.32.19-.53.28.04-.28.26-.29.53-.28Z"/>
      <path class="cls-16" d="m80.36,161.52s.1.02.18.03c.03.17.07.37-.23.32-.07-.12-.01-.2.03-.32.01-.03.02-.03.01-.04Z"/>
      <path class="cls-18" d="m137.89,128.55c.01.1-.02.16-.13.2-.07-.08-.17-.2-.14-.24.07-.1.17-.01.28.04Z"/>
      <path class="cls-16" d="m53.69,130.95c.13.13.17.29-.05.45,0-.13.02-.27.05-.45Z"/>
      <path class="cls-18" d="m123.5,137.33c0,.07-.02.15-.05.25-.08.02-.16.01-.17-.06-.01-.13.09-.16.22-.19Z"/>
      <path class="cls-18" d="m96.05,164.39c-.12.01-.21-.03-.28-.15.1,0,.34-.24.28.15Z"/>
      <path class="cls-17" d="m121.39,126.31c.04-.08.08-.13.14-.2.19.14.13.23-.1.28-.04-.02-.04-.03-.04-.08Z"/>
      <path class="cls-9" d="m55.09,85.68c-.02-.06-.02-.12,0-.23.05-.09.09-.14.16-.2.02.15.04.31-.16.43Z"/>
      <path class="cls-16" d="m81.56,151.33c-.04.15-.17.18-.35.18.04-.14.16-.2.35-.18Z"/>
      <path class="cls-16" d="m72.14,63.98c.04-.1.12-.12.25-.09-.03.12-.11.15-.25.09Z"/>
      <path class="cls-21" d="m94.39,144.99c.02-.12.13-.12.26-.14-.01.13-.11.16-.26.14Z"/>
      <path class="cls-18" d="m93.68,161.82c-.14.01-.19-.07-.18-.24.13,0,.18.08.18.24Z"/>
      <path class="cls-21" d="m80.33,161.53c.01.08,0,.17-.03.29-.04.03-.07.04-.13.04-.01-.13.04-.23.15-.33Z"/>
      <path class="cls-18" d="m87.65,151.72c0,.07,0,.15-.05.26-.16-.09-.07-.17.05-.26Z"/>
      <path class="cls-16" d="m103.6,162.34c.06,0,.11,0,.19,0,.03.11,0,.2-.13.26-.03-.05-.04-.1-.06-.2,0-.04-.01-.06,0-.06Z"/>
      <path class="cls-13" d="m77.45,63.36c.06-.11.14-.12.26-.04-.06.06-.14.14-.26.04Z"/>
      <path class="cls-16" d="m79.07,152.32c-.04.12-.14.17-.31.17.04-.12.16-.15.31-.17Z"/>
      <path class="cls-18" d="m89.74,155.42c-.08.02-.16-.01-.18-.14.08-.02.15.02.18.14Z"/>
      <path class="cls-18" d="m129.7,133.68c.02.08,0,.16-.13.19-.02-.08,0-.15.13-.19Z"/>
      <path class="cls-18" d="m135.83,129.92c-.03.05-.07.08-.14.11-.01-.08-.02-.19.14-.11Z"/>
      <path class="cls-18" d="m139.57,127.39c.11.07.09.13-.05.18,0-.05,0-.1.05-.18Z"/>
      <path class="cls-18" d="m88.97,153.05c-.05-.06-.08-.13-.12-.23.1.02.21.06.12.23Z"/>
      <path class="cls-18" d="m87.85,151.32c.02.08-.02.15-.13.18-.03-.08,0-.16.13-.18Z"/>
      <path class="cls-16" d="m81.9,151.2c-.03.11-.14.12-.28.14.02-.13.14-.12.28-.14Z"/>
      <path class="cls-17" d="m91.57,148.83s-.07-.03-.1-.04c.01-.02.04-.06.04-.06.04.02.15,0,.06.1Z"/>
      <path class="cls-17" d="m61.47,145.35s-.1,0-.17-.04c.06-.1.13-.09.17.04Z"/>
      <path class="cls-16" d="m51.53,91.76c0,.07-.01.14-.06.24-.03-.07-.04-.16.06-.24Z"/>
      <path class="cls-17" d="m105.88,162.56s0,.09-.05.16c0-.03,0-.09.05-.16Z"/>
      <path class="cls-18" d="m88.64,152.18s-.09-.02-.15-.06c.04,0,.09.01.15.06Z"/>
      <path class="cls-16" d="m79.72,152.12s-.07.08-.16.12c0-.07.04-.12.16-.12Z"/>
      <path class="cls-16" d="m80.61,161.54s0-.05.05-.08c.1.06.03.07-.05.08Z"/>
      <path class="cls-18" d="m138.18,128.46s-.06.06-.13.09c.02-.03.06-.06.13-.09Z"/>
      <path class="cls-16" d="m66.93,65.68s.04.04.05.09c-.04.03-.08.03-.15.04-.03-.02-.03-.04-.03-.08.03-.04.07-.04.13-.05Z"/>
      <path class="cls-17" d="m109.18,140.1s.07-.02.13-.02c0,.07-.05.1-.13.02Z"/>
      <path class="cls-18" d="m129.41,133.97s-.07.06-.14.09c.02-.03.07-.06.14-.09Z"/>
      <path class="cls-16" d="m51.61,91.63s0,.05-.03.09c-.03-.02-.02-.05.03-.09Z"/>
      <path class="cls-21" d="m112.77,142.76s0,.04-.05.06c0-.02,0-.04.05-.06Z"/>
      <path class="cls-16" d="m61.57,140.96s-.02.03-.02.03c0,0,0-.02.01-.03,0,0,0,0,0,0Z"/>
      <path class="cls-16" d="m122.34,138.1s-.03-.01-.03-.01c0,0,.03,0,.03.01Z"/>
      <path class="cls-16" d="m80.1,162.12s-.01-.04-.01-.06c.04,0,.04.02.01.06Z"/>
      <path class="cls-16" d="m80.1,162.32s-.01-.03-.01-.05c0-.02.04,0,.04,0,0,0,0,.04-.02.05Z"/>
      <path class="cls-16" d="m103.94,162.32s-.01-.03-.01-.05.03,0,.03,0c0,0,0,.04-.02.04Z"/>
      <path class="cls-17" d="m56.07,136.94s.04-.02.06-.02c.04.02.05.03.04.07-.05.01-.07,0-.1-.06Z"/>
      <path class="cls-17" d="m105.91,162.46s.04.03,0,.07c-.01,0-.01-.02,0-.07Z"/>
      <path class="cls-16" d="m134.96,130.23s-.04-.02-.04-.02c0,0,.03,0,.03.01,0,.01,0,.01,0,.01Z"/>
      <path class="cls-16" d="m103.16,163.02s.01-.04.06-.07c.01.02,0,.04-.06.07Z"/>
      <path class="cls-16" d="m138.23,128.18s.04.01.06.05c-.02,0-.04,0-.06-.05Z"/>
      <path class="cls-16" d="m76.4,63.04c-.06.13-.18.13-.32.03.08-.03.18-.03.32-.03Z"/>
      <path class="cls-6" d="m76.92,63.01s-.09,0-.17-.02c.04-.01.09,0,.17.02Z"/>
      <path class="cls-24" d="m28.43,109.17c-.04-.13-.11-.3.12-.4.03.13.05.29-.12.4Z"/>
      <path class="cls-24" d="m180.27,100.24c-.01.13-.04.31-.11.26-.3-.22-.53-.27-.72.11,0,0-.11-.01-.12-.04-.02-.06-.04-.14-.02-.18.16-.33.49-.59.76-.7.27-.11.15.32.2.55Z"/>
      <path class="cls-24" d="m181.59,101.73c.01.08-.03.11-.07.07-.04-.04,0-.08.07-.07Z"/>
      <path class="cls-24" d="m175.24,95.36s-.02.04-.02.04c0,0,0-.03.01-.04.01,0,.01,0,.01,0Z"/>
      <path class="cls-24" d="m22.73,104.53c-.03.19-.13.19-.24.12-.04-.03-.07-.13-.06-.15.09-.1.19-.09.29.03Z"/>
      <path class="cls-24" d="m21.29,99.15c.06.04.06.1,0,.09-.06,0-.06-.05,0-.09Z"/>
      <path class="cls-24" d="m24.05,105.21s-.06.09-.08.14l-.06-.05s.06-.06.11-.09c.03,0,.03,0,.03,0Z"/>
      <path class="cls-24" d="m16.56,102.06s-.07-.03-.1-.05c.03,0,.05.01.09.04.01.02.01.02.01.02Z"/>
      <path class="cls-1" d="m132,76.21c-.39-.13-.61-.6-1.1-.61-.08,0-.09-.16-.08-.26.03-.35-.03-.68-.19-.99-.36-.72-.02-1.5-.18-2.24-.07-.33.33-.55.63-.77.27.91.33,1.85.56,2.77.13.51.21,1.06.15,1.61-.02.2.21.28.22.5Z"/>
      <path class="cls-1" d="m131.02,70.99c-.24-.02-.09-.13-.02-.24.02.06.02.13.02.24Z"/>
      <path class="cls-15" d="m95.55,62.86c-.05-.15-.06-.33.08-.28.24.09.55-.15.71.17.07.13.12.26.18.39-.16.12-.22-.01-.3-.08-.13-.1-.22-.3-.41-.02-.11.16-.2-.04-.26-.19Z"/>
      <path class="cls-15" d="m48.28,96.15s-.06.09-.09.14c-.02-.02-.04-.03-.06-.05.03-.03.06-.06.12-.09.03,0,.03,0,.03,0Z"/>
      <path class="cls-3" d="m54.39,157.56c.51.1.52.2.03.83-.03-.26-.03-.52-.03-.83Z"/>
      <path class="cls-3" d="m54.78,154.1c.13-.03.27-.03.28.15,0,.14-.08.19-.24.21-.04-.1-.04-.21-.03-.35Z"/>
      <path class="cls-3" d="m53.99,161.58s.08-.03.16-.03c.02.06.02.14-.06.14-.03,0-.06-.05-.1-.11Z"/>
      <path class="cls-25" d="m172.25,102.83c-.1.12-.2.13-.3.04-.05-.05-.05-.12.02-.16.12-.08.24-.08.28.12Z"/>
      <path class="cls-25" d="m171.26,102.32c0-.14.07-.14.14-.09.05.04.09.1.02.15-.06.05-.11,0-.17-.07Z"/>
      <path class="cls-25" d="m180.66,99.79s.02-.04.02-.04c0,0,0,.03-.01.03s-.01,0-.01,0Z"/>
      <path class="cls-15" d="m46.98,121.8q-.19-.05-.09-.37c.14.09.09.22.09.37Z"/>
      <path class="cls-25" d="m174.55,100.09c0,.17.17.33,0,.58-.14-.2-.32-.34-.03-.57.03,0,.03,0,.04,0Z"/>
      <path class="cls-21" d="m101.96,156c-.44-.28-.89-.59-1.35-.93.54.13,1.03.39,1.35.93Z"/>
      <path class="cls-21" d="m100.58,155c-.26-.13-.53-.3-.82-.5.37-.06.62.16.82.5Z"/>
      <path class="cls-21" d="m104.65,159.55c-.18-.28-.34-.58-.51-.92.46.11.39.56.51.92Z"/>
      <path class="cls-21" d="m103.03,157.03c-.19-.16-.37-.35-.56-.57.32.02.48.24.56.57Z"/>
      <path class="cls-21" d="m104.03,158.36c-.24-.15-.36-.42-.53-.7.32.09.43.37.53.7Z"/>
      <path class="cls-21" d="m103.44,157.55c-.17-.06-.25-.23-.38-.4.22.01.35.14.38.4Z"/>
      <path class="cls-21" d="m102.45,156.39c-.15-.08-.3-.19-.47-.33.19.01.38.07.47.33Z"/>
      <path class="cls-21" d="m104.13,158.56s-.06-.06-.1-.13c.03.02.06.06.1.13Z"/>
      <path class="cls-21" d="m99.67,154.44s-.06,0-.12-.03c.02-.01.06,0,.12.03Z"/>
      <path class="cls-15" d="m78.24,185.06c.1-.23.26-.2.4-.11.08.05.05.15-.02.21-.15.11-.29.16-.39-.1Z"/>
      <path class="cls-15" d="m78,181.07c-.02.15-.09.2-.2.12-.03-.02-.05-.09-.03-.13.05-.12.14-.11.23,0Z"/>
      <path class="cls-3" d="m81.49,163.49s.02-.03.03-.04c0,.02-.01.04-.03.04Z"/>
      <path class="cls-15" d="m138.42,128.26c0-.08,0-.2.17-.12-.03.05-.08.08-.17.12Z"/>
      <path class="cls-20" d="m93.09,162.47s.04-.04.08-.05c.4.6.56,1.28.8,1.93.27.76.51,1.54.71,2.32.21.8.37,1.61.55,2.42.17.73.34,1.45.53,2.17.11.43-.03.91.34,1.31.07.7.26,1.34.38,2,.22,1.15.53,2.28.56,3.47.02.55.15,1.1.23,1.64.02.14.04.29.04.44,0,.22-.16.33-.33.37-.19.04-.36-.04-.36-.28,0-.16-.12-.22-.23-.29-.72-.47-.82-1.26-1.03-1.98-.3-.99-.55-2-.81-3.01-.06-.24-.08-.49-.13-.73-.05-.24-.12-.38-.26-.57-.21-.27-.03-.64-.13-.97-.03-.11.07-.25-.07-.35-.49-.34-.45-.82-.29-1.3.06-.16,0-.29,0-.42-.05-.44-.23-.9-.4-1.23-.25-.48-.32-.93-.39-1.46.07-.34,0-.63-.08-.92-.06-.22-.11-.44.06-.67,0-.26-.04-.5-.07-.77-.13-.19-.23-.36-.12-.6.02-.14.03-.24.02-.38-.1-.11-.17-.2-.15-.36,0-.19-.09-.35.03-.54-.07-.14-.21-.23-.24-.36-.04-.17.16-.24.28-.29.2-.09.15.16.24.21.22.13,0,.6.32.53.16-.03-.08-.4-.04-.61.03-.22-.06-.41-.04-.66Z"/>
      <path class="cls-13" d="m92.85,166.28c.02.32.08.64.18.94.08.23.05.41-.13.61-.19-.34-.28-.73-.3-1.13-.01-.17-.06-.38.25-.42Z"/>
      <path class="cls-18" d="m92.67,164.89c.06.18.1.35.13.57-.38-.03-.39-.4-.57-.63-.02-.02.03-.14.07-.15.18-.05.19.19.37.22Z"/>
      <path class="cls-20" d="m90.82,159.81c.03-.06.07-.09.1-.13.11-.13.25-.13.39-.07.04.02.08.11.07.16-.04.18-.19.19-.33.2-.05,0-.1,0-.18,0-.04-.04-.04-.09-.05-.16Z"/>
      <path class="cls-13" d="m92.66,164.17c0,.11-.03.2.03.31-.16.02-.31-.02-.46-.15-.02-.04-.02-.06-.02-.1.12-.16.26-.16.45-.06Z"/>
      <path class="cls-3" d="m93.53,162.51c-.02-.07,0-.11,0-.14,0,0,.06,0,.07.02.04.07,0,.11-.08.12Z"/>
      <path class="cls-20" d="m80.28,179.75c.02.16.02.3.02.48-.25-.3-.25-.34-.02-.48Z"/>
      <path class="cls-15" d="m81.38,173.58s-.1-.06-.15-.09c.02-.02.03-.04.05-.06.03.03.06.06.1.12,0,.03,0,.03,0,.03Z"/>
      <path class="cls-15" d="m79.99,181.54c.01-.07-.04-.18.06-.18.06,0,.02.1-.03.17-.02.02-.02.02-.03.01Z"/>
      <path class="cls-3" d="m54.97,155.72c-.03.11-.07.21-.15.1-.06-.09-.08-.25.04-.3.11-.04.1.09.11.2Z"/>
      <path class="cls-15" d="m81.84,170.32s.03.09.03.17c-.12,0-.24-.04-.03-.17Z"/>
      <path class="cls-22" d="m97.49,107.38c.08-1.22.85-2.15,1.92-2.36,1.15-.23,2.24.29,2.75,1.32.47.93.23,2.18-.55,2.89-.81.75-2.08.86-3.01.25-.74-.48-1.11-1.18-1.12-2.11Z"/>
      <path class="cls-22" d="m89.42,118.08c-1.77,1.81-5.48,1.5-7.15-.26-.18-.19-.35-.4-.4-.67-.07-.37.03-.7.38-.88.34-.19.68-.13.94.17.99,1.11,2.23,1.4,3.65,1.19.78-.12,1.39-.46,1.79-1.14.21-.36.51-.56.94-.45.44.11.66.57.52,1.06-.11.39-.38.68-.68.99Z"/>
      <path class="cls-7" d="m50.23,118.97c-.12-.19-.17-.42-.19-.71-.06-.17-.08-.31.06-.44.12.24.28.37.54.39,2,.22,4,.36,6.01.29.96-.03,1.96.07,2.83-.34,1.01-.47,2.12-.36,3.14-.7.42-.14.9-.05,1.16-.53.06-.12.23-.11.36-.11.21,0,.33-.07.48-.24.34-.4.89-.34,1.32-.31.45.03.71-.2.97-.42.56-.46,1.14-.8,1.88-.8.25,0,.47,0,.56-.33.08-.29.3-.1.43-.02.38.21.55.12.53-.32,0-.17,0-.34.22-.39.17-.04.29.03.37.17.08.14.2.22.37.16.26-.09.52-.04.78-.06.34-.02.6-.11.47-.53-.05-.18.03-.28.17-.36.16-.09.28-.08.37.09.12.22.23.14.43.06.5-.19.83-.68,1.44-.72-.11.26-.38.38-.62.51-.89.49-1.68,1.16-2.64,1.49-.98.34-1.82.93-2.76,1.33-.31.13-.65.22-.99.28-1.07.18-2,.74-3.04,1-1.38.35-2.8.51-4.18.81-1.17.25-2.35.44-3.53.55-.27.03-.55-.03-.83-.03-1.93.01-3.86.03-5.79.05-.13,0-.31-.11-.33.18Z"/>
      <path class="cls-21" d="m120.55,128.48c-.15.53-.4,1.05-.82,1.46-.12.12-.24.23-.24.41,0,.12-.03.23-.15.29-.27.12-.44.31-.49.62-.03.14-.17.26-.31.36-.36.26-.77.51-.64,1.07.03.11-.07.09-.11.12-.65.49-1.15,1.12-1.67,1.75-.22.26-.14.7-.54.86-.12.05-.25.14-.42.2.44-.8,1.08-1.48,1.64-2.22,1.24-1.64,2.48-3.27,3.75-4.92Z"/>
      <path class="cls-22" d="m84.89,113.77c.58-.45,1.22-.28,1.3.32.05.34-.07.61-.38.78-.29.15-.57.12-.82-.1-.31-.28-.34-.61-.1-1Z"/>
      <path class="cls-7" d="m75.38,112.65c0-.09.04-.14.16-.15,0,.09-.04.15-.16.15Z"/>
      <path class="cls-17" d="m56.66,137.09s-.04,0-.09-.05c.01,0,.04,0,.09.05Z"/>
      <path class="cls-12" d="m75.19,112.7s.02-.03.06-.04c0,.02-.02.03-.06.04Z"/>
      <path class="cls-22" d="m74.78,106.29c.43,1.5-.33,2.89-1.72,3.22-1.36.32-2.71-.52-2.99-1.86-.27-1.26.43-2.46,1.66-2.87,1.23-.41,2.47.19,3.06,1.51Z"/>
      <path class="cls-9" d="m50.15,117.78c-.11.13-.09.25-.1.4-.3-.63-.25-1.35-.26-2.03-.04-3.21-.06-6.42,0-9.63.02-1.19.01-2.39.09-3.63.33.33.09.76.09,1.15,0,.54-.09,1.08.04,1.61.09.35-.08.67-.08,1.02.01,3.29.01,6.58,0,9.87,0,.42.19.79.2,1.24Z"/>
      <path class="cls-9" d="m52.05,91.01c.22-.75.6-1.43,1.02-2.14-.22.74-.44,1.52-1.02,2.14Z"/>
      <path class="cls-9" d="m53.13,88.62c.08-.13.15-.23.24-.34.03.21.05.44-.24.57-.03-.06-.02-.13,0-.23Z"/>
      <path class="cls-9" d="m54.9,85.89c-.02-.08.02-.15.13-.19.03.09,0,.16-.13.19Z"/>
      <path class="cls-2" d="m119.69,36.75s.04.02.04.02c0,0-.03,0-.03-.01,0-.01,0,0,0,0Z"/>
      <path class="cls-21" d="m99.86,163.21c-.25.25-.54.08-.8.01-.63-.17-1.31-.22-1.82-.75.84.28,1.66.67,2.62.74Z"/>
      <path class="cls-21" d="m102.31,163.23c.02.09-.02.17-.11.17-.53-.01-1.07.12-1.6-.11.54-.1,1.11.04,1.71-.06Z"/>
      <path class="cls-21" d="m100.35,163.25c-.03.19-.12.23-.25.04.07-.03.14-.04.25-.04Z"/>
      <path class="cls-21" d="m102.7,163.09c0,.11-.09.13-.23.12,0-.11.11-.1.23-.12Z"/>
      <path class="cls-15" d="m123.26,73.85s-.03,0-.05,0c.02,0,.04,0,.05,0Z"/>
      <path class="cls-15" d="m102.93,73.5s-.01.04-.01.04c0,0,0-.03.01-.04Z"/>
      <path class="cls-15" d="m74.93,145.45c.07-.02.1,0,.09.06,0,.01-.02.03-.03.03-.06,0-.08-.02-.06-.09Z"/>
      <path class="cls-15" d="m56.18,137.02s-.02-.03-.02-.07c.02-.02.03-.02.07-.02.02.02.02.03.02.07-.02.02-.03.02-.07.02Z"/>
      <path class="cls-21" d="m92.69,164.17c-.13.04-.27.04-.44.04-.06-.12-.23-.21-.13-.34.02-.03.15.03.25.04.03-.11.02-.23.19-.28.06.16.1.33.13.54Z"/>
      <path class="cls-20" d="m93.09,162.44s-.04-.03-.04-.03c0,0,.03,0,.04.01,0,.01,0,.01,0,.02Z"/>
      <path class="cls-15" d="m54.09,132.69s.02,0,.01,0c-.01,0-.01,0-.01,0Z"/>
      <path class="cls-16" d="m57.04,137.71s-.02.04-.02.04c0,0,0-.03.01-.03.01,0,.01,0,.01,0Z"/>
      <path class="cls-18" d="m92.41,163.93s.03.01.03.01c0,0-.03,0-.03-.01Z"/>
    </g>
  </g>
</svg>