<?xml version="1.0" encoding="UTF-8" standalone="no"?><!DOCTYPE svg PUBLIC "-//W3C//DTD SVG 1.1//EN" "http://www.w3.org/Graphics/SVG/1.1/DTD/svg11.dtd"><svg width="100%" height="100%" viewBox="0 0 411 411" version="1.1" xmlns="http://www.w3.org/2000/svg" xmlns:xlink="http://www.w3.org/1999/xlink" xml:space="preserve" xmlns:serif="http://www.serif.com/" style="fill-rule:evenodd;clip-rule:evenodd;stroke-linejoin:round;stroke-miterlimit:2;"><rect x="0" y="0" width="410.417" height="410.417" style="fill:#fff;"/><g><path d="M54.815,363.646l-0,-62.73l18.146,-0c9.397,-0 16.674,2.691 21.832,8.073c5.157,5.383 7.736,13.16 7.736,23.332c0,4.468 -0.567,8.545 -1.701,12.232c-1.134,3.687 -2.849,6.983 -5.144,9.89c-2.295,2.906 -5.387,5.167 -9.276,6.781c-3.888,1.615 -8.425,2.422 -13.609,2.422l-17.984,0Zm9.235,-7.831l7.696,0c14.095,0 21.143,-7.831 21.143,-23.494c-0,-15.716 -6.994,-23.574 -20.981,-23.574l-7.858,0l-0,47.068Z" style="fill-rule:nonzero;"/><path d="M109.091,340.637c-0,-7.212 1.985,-13.012 5.954,-17.398c3.969,-4.387 9.006,-6.58 15.108,-6.58c6.103,0 11.058,2.18 14.865,6.54c3.808,4.359 5.712,9.984 5.712,16.873c-0,0.108 -0.081,1.372 -0.243,3.794l-32.404,0c-0,3.822 1.107,7.105 3.321,9.85c2.214,2.745 5.293,4.117 9.235,4.117c2.647,0 4.996,-0.645 7.048,-1.937c2.052,-1.292 3.619,-2.96 4.699,-5.006l7.452,2.503c-1.458,3.391 -3.82,6.19 -7.088,8.396c-3.267,2.207 -7.331,3.31 -12.192,3.31c-6.372,0 -11.544,-2.22 -15.513,-6.66c-3.969,-4.44 -5.954,-10.374 -5.954,-17.802Zm9.154,-3.149l23.412,0c-0,-3.821 -1.027,-7.05 -3.079,-9.688c-2.052,-2.637 -4.86,-3.956 -8.425,-3.956c-3.618,0 -6.48,1.346 -8.587,4.037c-2.106,2.691 -3.213,5.894 -3.321,9.607Z" style="fill-rule:nonzero;"/><path d="M155.995,354.281l6.481,-3.714c3.294,4.844 7.534,7.266 12.718,7.266c2.755,0 4.969,-0.551 6.643,-1.655c1.674,-1.103 2.511,-2.57 2.511,-4.4c0,-2.368 -1.782,-4.305 -5.346,-5.812c-1.134,-0.539 -3.7,-1.427 -7.696,-2.665c-1.89,-0.592 -3.524,-1.197 -4.901,-1.816c-1.377,-0.619 -2.781,-1.453 -4.213,-2.503c-1.431,-1.05 -2.524,-2.355 -3.28,-3.916c-0.757,-1.56 -1.135,-3.337 -1.135,-5.328c0,-3.929 1.648,-7.091 4.942,-9.486c3.294,-2.395 7.48,-3.593 12.556,-3.593c3.727,0 7.21,0.996 10.451,2.987c3.24,1.992 5.643,4.441 7.209,7.347l-5.913,3.633c-3.079,-4.467 -6.994,-6.701 -11.747,-6.701c-2.754,0 -4.86,0.552 -6.318,1.655c-1.458,1.104 -2.188,2.543 -2.188,4.319c0,0.969 0.27,1.857 0.811,2.665c0.54,0.807 1.093,1.453 1.66,1.937c0.567,0.485 1.539,1.009 2.917,1.575c1.377,0.565 2.403,0.955 3.078,1.17c0.675,0.216 1.85,0.592 3.524,1.131c9.829,3.014 14.743,7.508 14.743,13.482c0,3.714 -1.593,6.849 -4.779,9.406c-3.186,2.556 -7.642,3.834 -13.367,3.834c-4.266,0 -8.101,-0.968 -11.503,-2.906c-3.402,-1.938 -6.022,-4.575 -7.858,-7.912Z" style="fill-rule:nonzero;"/><path d="M202.495,310.2l-0,-10.172l9.964,-0l-0,10.172l-9.964,0Zm0.648,53.446l-0,-45.534l8.83,0l-0,45.534l-8.83,0Z" style="fill-rule:nonzero;"/><path d="M231.334,339.991c-0,4.898 0.985,8.746 2.957,11.545c1.971,2.799 4.604,4.198 7.898,4.198c3.294,0 5.914,-1.359 7.858,-4.077c1.944,-2.718 2.916,-6.606 2.916,-11.666c0,-4.951 -0.985,-8.813 -2.957,-11.585c-1.971,-2.772 -4.523,-4.158 -7.655,-4.158c-3.348,0 -6.022,1.44 -8.02,4.319c-1.998,2.88 -2.997,6.688 -2.997,11.424Zm-9.073,0.081c-0,-7.105 1.768,-12.783 5.306,-17.035c3.537,-4.252 8.06,-6.378 13.569,-6.378c3.024,0 5.549,0.767 7.574,2.301c2.026,1.534 3.47,3.243 4.334,5.127l0,-5.975l8.83,0l0,39.56c0,8.612 -1.633,14.976 -4.901,19.094c-3.267,4.117 -8.357,6.176 -15.27,6.176c-7.615,-0 -13.475,-2.853 -17.579,-8.558l5.995,-4.118c3.294,3.714 7.237,5.571 11.827,5.571c3.24,0 5.86,-1.265 7.858,-3.794c1.998,-2.53 3.051,-5.84 3.159,-9.931c0,-0.646 0.014,-1.614 0.041,-2.906c0.027,-1.292 0.04,-2.18 0.04,-2.664c-1.08,1.991 -2.646,3.619 -4.698,4.884c-2.052,1.265 -4.348,1.897 -6.886,1.897c-5.779,0 -10.423,-2.139 -13.934,-6.418c-3.51,-4.279 -5.265,-9.89 -5.265,-16.833Z" style="fill-rule:nonzero;"/><path d="M273.621,363.646l-0,-45.534l8.668,0l-0,6.378l0.081,0c0.702,-1.83 2.227,-3.592 4.577,-5.288c2.349,-1.695 5.252,-2.543 8.708,-2.543c4.429,0 7.993,1.373 10.693,4.118c2.701,2.744 4.051,7.266 4.051,13.563l-0,29.306l-8.911,0l-0,-28.095c-0,-7.535 -2.619,-11.303 -7.858,-11.303c-3.078,0 -5.684,1.251 -7.817,3.754c-2.134,2.503 -3.2,5.53 -3.2,9.083l-0,26.561l-8.992,0Z" style="fill-rule:nonzero;"/><path d="M318.095,354.281l6.48,-3.714c3.295,4.844 7.534,7.266 12.719,7.266c2.754,0 4.969,-0.551 6.643,-1.655c1.674,-1.103 2.511,-2.57 2.511,-4.4c-0,-2.368 -1.782,-4.305 -5.347,-5.812c-1.134,-0.539 -3.699,-1.427 -7.695,-2.665c-1.891,-0.592 -3.524,-1.197 -4.902,-1.816c-1.377,-0.619 -2.781,-1.453 -4.212,-2.503c-1.431,-1.05 -2.525,-2.355 -3.281,-3.916c-0.756,-1.56 -1.134,-3.337 -1.134,-5.328c-0,-3.929 1.647,-7.091 4.942,-9.486c3.294,-2.395 7.479,-3.593 12.556,-3.593c3.726,0 7.21,0.996 10.45,2.987c3.241,1.992 5.644,4.441 7.21,7.347l-5.914,3.633c-3.078,-4.467 -6.993,-6.701 -11.746,-6.701c-2.754,0 -4.861,0.552 -6.319,1.655c-1.458,1.104 -2.187,2.543 -2.187,4.319c-0,0.969 0.27,1.857 0.81,2.665c0.54,0.807 1.094,1.453 1.661,1.937c0.567,0.485 1.539,1.009 2.916,1.575c1.377,0.565 2.403,0.955 3.078,1.17c0.676,0.216 1.85,0.592 3.524,1.131c9.829,3.014 14.744,7.508 14.744,13.482c0,3.714 -1.593,6.849 -4.78,9.406c-3.186,2.556 -7.641,3.834 -13.366,3.834c-4.267,0 -8.101,-0.968 -11.503,-2.906c-3.403,-1.938 -6.022,-4.575 -7.858,-7.912Z" style="fill-rule:nonzero;"/></g><path d="M87.484,27.475l112.254,0l-0,48.697l-0.027,-0c0.209,36.165 -8.596,153.178 -127.772,192.769l-17.124,-51.197c88.302,-29.335 91.609,-118.22 90.903,-141.572l-58.227,-0l-0.007,-48.697Zm268.118,0l0,48.697l-87.951,-0l-0,99.712c-0,1.212 -0.083,2.406 -0.239,3.576c0,-0 6.255,36.899 88.19,36.899l0,53.967c-76.751,-0 -110.59,-23.797 -126.357,-44.297c-17.05,-22.167 -16.509,-44.522 -15.745,-51.892l-0,-106.187l0.037,0l-0,-0.027c-0,-22.339 18.17,-40.448 40.586,-40.448l101.479,0Z"/></svg>