<?xml version="1.0" encoding="UTF-8"?><svg id="_레이어_2" xmlns="http://www.w3.org/2000/svg" viewBox="0 0 197 197"><defs><style>.cls-1,.cls-2,.cls-3{stroke:#231815;stroke-width:.41px;}.cls-1,.cls-3{stroke-miterlimit:10;}.cls-1,.cls-4{fill:#fff;}.cls-2,.cls-3{fill:none;}.cls-5,.cls-4{stroke-width:0px;}</style></defs><g id="_레이어_1-2"><rect class="cls-4" width="197" height="197"/><circle class="cls-5" cx="117.44" cy="93.5" r="42.83"/><path class="cls-1" d="m129.81,59.4c0-1.46-1.18-2.64-2.64-2.64s-2.64,1.18-2.64,2.64c0,.17.02.33.05.49-.27-.09-.56-.14-.86-.14-1.46,0-2.64,1.18-2.64,2.64s1.18,2.64,2.64,2.64,2.64-1.18,2.64-2.64c0-.17-.02-.33-.05-.49.27.09.56.14.86.14,1.46,0,2.64-1.18,2.64-2.64Z"/><path class="cls-1" d="m144.43,40.62c.05-.2.08-.42.08-.64,0-1.46-1.18-2.64-2.64-2.64s-2.64,1.18-2.64,2.64,1.13,2.59,2.55,2.64c-.05.2-.08.42-.08.64,0,1.46,1.18,2.64,2.64,2.64s2.64-1.18,2.64-2.64-1.13-2.59-2.55-2.64Z"/><circle class="cls-1" cx="141.86" cy="72.49" r="2.64"/><circle class="cls-1" cx="136.58" cy="64.68" r="2.64"/><circle class="cls-1" cx="130.15" cy="69.85" r="2.64" transform="translate(-10.86 25.87) rotate(-10.9)"/><circle class="cls-1" cx="159.67" cy="39.98" r="2.64" transform="translate(-3.15 64.15) rotate(-22.5)"/><circle class="cls-1" cx="154.73" cy="47.45" r="2.64" transform="translate(-6.18 30.12) rotate(-10.9)"/><circle class="cls-1" cx="148.91" cy="55.03" r="2.64" transform="translate(-9.73 61.17) rotate(-22.5)"/><path class="cls-3" d="m95,150.48c0-9.6-7.79-17.39-17.39-17.39-8.01,0-14.76,5.42-16.77,12.8-8.5,1.14-15.06,8.42-15.06,17.23,0,9.6,7.79,17.39,17.39,17.39,8.01,0,14.76-5.42,16.77-12.8,8.5-1.14,15.06-8.42,15.06-17.23Z"/><circle class="cls-1" cx="131.64" cy="47.45" r="2.64" transform="translate(-6.6 25.75) rotate(-10.9)"/><circle class="cls-1" cx="129" cy="39.98" r="2.64" transform="translate(-5.48 52.41) rotate(-22.5)"/><circle class="cls-1" cx="136.58" cy="32.63" r="2.64"/><path class="cls-1" d="m138.32,180.93c-1.43,0-2.93-.7-3.73-1.92-.52-.79-.33-1.86.43-2.43,1.22-.93,1.26-2.26,1.31-3.81.06-2,.13-4.49,3.5-5.56,2.09-.56,2.34-1.78,2.59-3.89.23-1.91.52-4.3,3.55-5.25.01,0,.03,0,.04-.01,2.63-1.33,2.2-2.81,1.14-5.52-.32-.82-.65-1.66-.84-2.53-.02-.08-.06-.14-.11-.17-1.81-1.07-2.67-.37-4.17,1.05-1.37,1.31-3.08,2.93-6.01,1.78-.64-.24-1.5-.15-2.29.24-.79.39-1.38,1.03-1.58,1.71-.88,3.02-3.2,3.38-5.06,3.68-1.95.31-3.24.51-3.53,2.97,0,.02,0,.04,0,.05.17,2.99-1.84,4.18-3.45,5.13-1.68.99-2.89,1.71-2.49,4.01.22,1.12-.12,2.39-.93,3.47-.82,1.09-1.96,1.78-3.13,1.89h-.05c-1.51.04-3.11,1.47-3.34,2.99l-.03.13c-.26.79-.89,1.27-1.72,1.33-1.1.07-2.32-.63-2.79-1.6-.36-.74-.25-1.52.3-2.15l.11-.11c.49-.38.85-1.09.93-1.85,0-.05.02-.16-.13-.21-.06-.02-.22-.06-.33.12-1.09,1.62-2.8,1.83-4.31,2.01-1.67.2-3,.36-3.8,2.04l-.04.07c-1.71,2.87-4.3,2.43-6.38,2.07-1.37-.23-2.67-.46-3.79.06-.82.38-1.81.09-2.3-.67-.58-.91-.72-2.17-.37-3.35.33-1.11,1.03-1.99,1.93-2.4l.09-.04c1.52-.48,2.73-2.2,2.6-3.67v-.06s0-.06,0-.06c.17-3.59,2.57-4.24,4.5-4.77,2-.55,3.14-.96,3.41-3.03.46-3.39,2.84-3.95,4.75-4.39,1.86-.43,3.2-.74,3.54-2.98.49-3.33,2.85-3.88,4.75-4.32,1.86-.43,3.21-.75,3.49-3.05.35-3.31,2.68-3.96,4.56-4.49,1.85-.52,3.18-.89,3.35-3.21.12-3.23,2.34-4.09,4.13-4.78,1.78-.69,3.06-1.18,2.94-3.57-.55-2.92,1.27-4.34,2.73-5.48,1.57-1.23,2.62-2.04,1.58-4.35-1.4-1.83-1.31-4.76.2-6.47.48-.62.51-1.67.23-2.23-.15-.31-.3-.31-.37-.31-.07,0-.16.11-.18.24-.48,2.16-2.83,3.91-4.96,3.68-2.29-.04-2.8,1.23-3.49,3-.72,1.82-1.62,4.09-5.02,4.03-2.18-.1-2.78.97-3.65,2.87-.82,1.78-1.85,4-5.24,3.78h-.04c-.7-.09-1.53.19-2.21.74-.68.55-1.12,1.3-1.18,2.01-.09,2.31-2.3,4.53-4.64,4.65-2.28.38-2.53,1.73-2.87,3.59-.35,1.91-.79,4.28-4.07,4.96-2.13.46-2.41,1.84-2.76,3.59-.39,1.94-.87,4.36-4.55,4.64-.16.01-.33,0-.51-.04-1.18-.24-2.67.23-3.62,1.14-.46.44-1.1.63-1.72.51-.58-.12-1.05-.49-1.28-1.03-.38-.88-.28-2.01.26-3.02.51-.94,1.3-1.58,2.19-1.75.63-.16,1.21-.64,1.6-1.32.41-.71.54-1.53.34-2.19-.02-.06-.06-.11-.1-.13-.39-.22-.74-.39-1.12-.57-.73-.35-1.49-.72-2.4-1.4-.04-.03-.05-.03-.05-.03-1.4-.59-3.19,0-4.11.92-.32.32-.76.51-1.22.52-1.1.02-2.2-.6-2.92-1.67-.77-1.14-.95-2.51-.49-3.59.09-.21.21-.36.3-.46.99-1.14,1.3-2.95.75-4.3-.06-.15-.1-.3-.12-.45-.5-3.53,1.73-4.57,3.51-5.41,1.64-.77,2.93-1.37,2.85-3.58,0-3.4,2.24-4.28,4.04-4.99,1.77-.7,3.05-1.2,2.93-3.6-.27-3.38,1.89-4.41,3.63-5.25,1.73-.83,2.87-1.38,2.49-3.74,0,0,0-.02-.02-.06-.88-1.86-.59-4.38.69-6.01.01-.02.03-.04.04-.06.2-.58-.13-1.49-.77-2.05-.21-.19-.76-.59-1.28-.33-.01,0-.05.04-.11.13-1.11,1.95-3.9,2.95-5.98,2.16-.66-.21-1.5-.08-2.26.34-.78.43-1.34,1.1-1.52,1.78-.88,3.16-3.27,3.47-5.18,3.71-1.9.24-3.28.42-3.77,2.7-.25,2.33-2.65,4.41-4.96,4.33-2.35.18-2.7,1.52-3.18,3.38-.48,1.85-1.08,4.16-4.23,4.7-1.51.22-2.85,2.04-2.63,3.53v.11c.05,3.77-2.36,4.5-4.3,5.09-1.89.57-3.06,1.02-3.39,2.95l-.02.09c-1.02,3.44-3.52,3.49-5.53,3.54-2.02.05-3.29.17-4.08,2.06-.44,1.08-1.42,1.95-2.55,2.26-.97.27-1.94.09-2.71-.49-.78-.59-.96-1.72-.4-2.51.73-1.03,1.14-2.58.99-3.68-.06-.44.25-.85.69-.91.44-.06.85.25.91.69.21,1.52-.3,3.46-1.27,4.83-.06.09-.04.22.05.28.47.35.97.32,1.31.22.64-.18,1.23-.69,1.48-1.32,1.23-2.96,3.62-3.02,5.54-3.06,1.92-.04,3.31-.07,4-2.34.53-2.98,2.74-3.64,4.51-4.18,1.91-.58,3.17-.96,3.16-3.47-.31-2.35,1.66-4.97,3.99-5.31,2-.34,2.41-1.56,2.92-3.51.5-1.94,1.13-4.35,4.68-4.59h.05s.05,0,.05,0c1.51.07,3.18-1.39,3.33-2.91v-.09c.73-3.45,3.19-3.77,5.17-4.02,2-.26,3.26-.51,3.82-2.52.28-1.11,1.12-2.13,2.3-2.78,1.17-.65,2.47-.81,3.57-.46h.04c1.32.53,3.3-.19,4.01-1.43.2-.36.47-.62.8-.78.98-.48,2.13-.27,3.08.57,1.15,1.02,1.65,2.58,1.22,3.82-.08.22-.2.39-.29.51-.9,1.15-1.12,3-.5,4.31.08.17.13.33.16.49.58,3.56-1.62,4.62-3.39,5.46-1.68.81-2.9,1.39-2.72,3.68.18,3.58-2.11,4.48-3.95,5.21-1.75.69-3.02,1.19-3.02,3.46.12,3.25-2.05,4.26-3.78,5.08-1.76.83-2.93,1.37-2.6,3.72,0,0,0,.02.02.05.78,1.91.36,4.37-1.03,5.98-.02.02-.03.03-.04.05-.24.56-.11,1.36.35,2.04.4.6.97.95,1.51.95h.03s.08-.02.11-.04c1.28-1.28,3.78-2.15,5.89-1.26.13.05.26.13.39.23.79.59,1.44.9,2.14,1.24.38.18.78.38,1.21.62.41.23.73.62.86,1.08.33,1.09.15,2.35-.48,3.46-.62,1.08-1.58,1.84-2.65,2.09h-.04c-.4.08-.81.43-1.08.94-.3.56-.38,1.19-.2,1.61,0,.02.03.06.11.08.07.01.18,0,.27-.08,1.33-1.28,3.36-1.9,5.07-1.56.04,0,.06,0,.06,0,2.46-.19,2.71-1.44,3.08-3.34.37-1.86.83-4.17,4.01-4.85,2.22-.46,2.47-1.8,2.81-3.66.36-1.94.8-4.35,4.26-4.9h.1c1.52-.06,3.08-1.62,3.14-3.14.1-1.19.75-2.33,1.78-3.17,1.02-.83,2.26-1.23,3.4-1.1,2.27.14,2.85-1.11,3.64-2.84.82-1.77,1.81-3.98,5.17-3.81.02,0,.05,0,.07,0,2.2,0,2.7-1.27,3.39-3.01.73-1.83,1.65-4.11,5.07-4.02h.08c1.3.16,2.92-1.06,3.22-2.41.19-.87.91-1.49,1.73-1.51.78-.01,1.46.43,1.85,1.21.6,1.21.41,2.92-.43,3.98l-.03.04c-1.02,1.14-1.07,3.28-.1,4.48l.06.08.04.09c1.64,3.54-.38,5.12-2.01,6.39-1.56,1.22-2.5,2.06-2.12,3.95v.11c.23,3.62-2.09,4.51-3.95,5.23-1.69.65-3.02,1.17-3.1,3.35-.26,3.48-2.63,4.15-4.53,4.68-2.02.57-3.17.99-3.39,3.12-.43,3.43-2.82,3.99-4.74,4.44-1.85.43-3.19.74-3.52,2.98-.5,3.32-2.87,3.88-4.77,4.32-1.86.43-3.21.75-3.51,3.02-.41,3.25-2.73,3.88-4.59,4.39-1.84.5-3.18.87-3.31,3.23.17,2.2-1.47,4.55-3.67,5.28-.45.22-.82.73-1.01,1.37-.22.73-.15,1.51.18,2.03.05.08.16.11.25.07,1.57-.73,3.26-.44,4.74-.19,2.27.39,3.61.52,4.7-1.27,1.19-2.45,3.33-2.71,5.05-2.92,1.54-.19,2.52-.35,3.16-1.31.5-.74,1.4-1.04,2.23-.74.8.29,1.28,1.06,1.19,1.9-.12,1.17-.67,2.25-1.48,2.91-.08.11-.08.19-.02.31.19.38.79.73,1.23.7.15,0,.22-.05.27-.18.39-2.25,2.59-4.2,4.85-4.27.7-.07,1.43-.54,1.96-1.25.53-.7.76-1.53.63-2.2-.6-3.42,1.54-4.69,3.26-5.7,1.72-1.02,2.77-1.74,2.66-3.65,0-.12,0-.23,0-.33.43-3.67,2.9-4.06,4.88-4.37,1.96-.31,3.19-.6,3.76-2.53.33-1.12,1.21-2.11,2.41-2.71,1.2-.6,2.51-.71,3.6-.3,1.88.74,2.86-.06,4.31-1.44,1.41-1.34,3.16-3.01,6.11-1.27.44.26.76.7.87,1.22.17.75.47,1.53.77,2.29.96,2.45,2.15,5.49-1.92,7.55-.09.04-.19.08-.28.11-1.93.61-2.18,1.88-2.43,3.9-.24,1.95-.53,4.39-3.74,5.25-2.24.72-2.28,2.12-2.34,4.06-.05,1.71-.11,3.65-1.94,5.05-.08.06-.1.18-.05.26.7,1.07,2.41,1.53,3.43.93,1.51-1.39,3.93-1.89,5.94-1.23.02,0,.04.01.05.01.92.07,1.84-.52,2.13-1.11.14-.29.11-.51-.1-.74-.3-.33-.28-.84.06-1.14.33-.3.84-.28,1.14.06.66.72.79,1.65.36,2.53-.61,1.26-2.2,2.13-3.7,2.02-.14,0-.29-.04-.45-.09-1.47-.48-3.31-.09-4.37.92l-.12.1c-.58.37-1.28.55-2,.55Z"/><path class="cls-2" d="m93.07,66.79c14.01,0,25.36-11.35,25.36-25.36s-11.35-25.36-25.36-25.36-25.36,11.35-25.36,25.36,11.35,25.36,25.36,25.36Zm-34.61,26.71c13.13,0,23.78-10.65,23.78-23.78s-10.65-23.78-23.78-23.78-23.78,10.65-23.78,23.78,10.65,23.78,23.78,23.78Z"/><path class="cls-1" d="m66.06,98.97c1.36-.52,2.05-2.04,1.54-3.41s-2.04-2.05-3.41-1.54c-.16.06-.3.13-.44.22,0-.28-.06-.57-.17-.85-.52-1.36-2.04-2.05-3.41-1.54s-2.05,2.04-1.54,3.41,2.04,2.05,3.41,1.54c.16-.06.3-.13.44-.22,0,.28.06.57.17.85.52,1.36,2.04,2.05,3.41,1.54Z"/><circle class="cls-1" cx="82.08" cy="84.58" r="2.64"/><circle class="cls-1" cx="75.32" cy="101.14" r="2.64" transform="translate(-17.77 16.07) rotate(-10.9)"/></g></svg>